G04 (created by PCBNEW (2013-june-11)-stable) date lun 19 ago 2013 20:26:36 COT*
%MOIN*%
G04 Gerber Fmt 3.4, Leading zero omitted, Abs format*
%FSLAX34Y34*%
G01*
G70*
G90*
G04 APERTURE LIST*
%ADD10C,0.00590551*%
%ADD11R,0.08X0.1*%
%ADD12R,0.0987X0.1184*%
%ADD13R,0.0397X0.1106*%
%ADD14C,0.2169*%
%ADD15R,0.08X0.08*%
%ADD16C,0.08*%
%ADD17C,0.0791*%
%ADD18C,0.1381*%
%ADD19C,0.075*%
%ADD20R,0.1X0.08*%
%ADD21R,0.09X0.09*%
%ADD22C,0.09*%
%ADD23R,0.37X0.37*%
%ADD24R,0.12X0.12*%
%ADD25C,0.12*%
%ADD26R,0.1361X0.1145*%
%ADD27R,0.1145X0.1243*%
%ADD28R,0.1243X0.1145*%
%ADD29R,0.075X0.055*%
%ADD30R,0.055X0.075*%
%ADD31R,0.0357X0.0436*%
G04 APERTURE END LIST*
G54D10*
G54D11*
X66378Y-34154D03*
X67678Y-34154D03*
G54D12*
X70276Y-13583D03*
X73780Y-13583D03*
X73780Y-15748D03*
X70276Y-15748D03*
G54D13*
X72028Y-15748D03*
X72343Y-15748D03*
X71713Y-15747D03*
X72658Y-15748D03*
X71398Y-15748D03*
G54D14*
X79331Y-40649D03*
X79331Y-13878D03*
X34449Y-13878D03*
X34449Y-40650D03*
X58067Y-15196D03*
X40822Y-34279D03*
X58114Y-34275D03*
X40814Y-15098D03*
G54D15*
X42602Y-16094D03*
G54D16*
X42602Y-15094D03*
X43602Y-16094D03*
X43602Y-15094D03*
X44602Y-16094D03*
X44602Y-15094D03*
X45602Y-16094D03*
X45602Y-15094D03*
X46602Y-16094D03*
X46602Y-15094D03*
X47602Y-16094D03*
X47602Y-15094D03*
X48602Y-16094D03*
X48602Y-15094D03*
X49602Y-16094D03*
X49602Y-15094D03*
X50602Y-16094D03*
X50602Y-15094D03*
X51602Y-16094D03*
X51602Y-15094D03*
X52602Y-16094D03*
X52602Y-15094D03*
X53602Y-16094D03*
X53602Y-15094D03*
G54D15*
X42602Y-35094D03*
G54D16*
X42602Y-34094D03*
X43602Y-35094D03*
X43602Y-34094D03*
X44602Y-35094D03*
X44602Y-34094D03*
X45602Y-35094D03*
X45602Y-34094D03*
X46602Y-35094D03*
X46602Y-34094D03*
X47602Y-35094D03*
X47602Y-34094D03*
X48602Y-35094D03*
X48602Y-34094D03*
X49602Y-35094D03*
X49602Y-34094D03*
X50602Y-35094D03*
X50602Y-34094D03*
X51602Y-35094D03*
X51602Y-34094D03*
X52602Y-35094D03*
X52602Y-34094D03*
X53602Y-35094D03*
X53602Y-34094D03*
G54D15*
X58614Y-27944D03*
G54D16*
X57614Y-27944D03*
X58614Y-26944D03*
X57614Y-26944D03*
X58614Y-25944D03*
X57614Y-25944D03*
X58614Y-24944D03*
X57614Y-24944D03*
X58614Y-23944D03*
X57614Y-23944D03*
X58614Y-22944D03*
X57614Y-22944D03*
X58614Y-21944D03*
X57614Y-21944D03*
X58614Y-20944D03*
X57614Y-20944D03*
X58614Y-19944D03*
X57614Y-19944D03*
X58614Y-18944D03*
X57614Y-18944D03*
X58614Y-17944D03*
X57614Y-17944D03*
X58614Y-16944D03*
X57614Y-16944D03*
G54D15*
X54590Y-16125D03*
G54D16*
X54590Y-15125D03*
G54D17*
X62675Y-15256D03*
X63675Y-15256D03*
X64475Y-15256D03*
X65475Y-15256D03*
G54D18*
X61475Y-14206D03*
X66875Y-14206D03*
G54D19*
X84965Y-21473D03*
X84965Y-19473D03*
X81965Y-21473D03*
X81965Y-19473D03*
X84965Y-17044D03*
X84965Y-15044D03*
X81965Y-17044D03*
X81965Y-15044D03*
X84965Y-34957D03*
X84965Y-32957D03*
X81965Y-34957D03*
X81965Y-32957D03*
X84965Y-39878D03*
X84965Y-37878D03*
X81965Y-39878D03*
X81965Y-37878D03*
G54D20*
X72540Y-17559D03*
X72540Y-18859D03*
X71260Y-17559D03*
X71260Y-18859D03*
X81988Y-23760D03*
X81988Y-25060D03*
G54D15*
X34351Y-36764D03*
G54D16*
X35351Y-36764D03*
X34351Y-31764D03*
X35351Y-35764D03*
X34351Y-30764D03*
X35351Y-34764D03*
X34351Y-29764D03*
X35351Y-33764D03*
X34351Y-28764D03*
X35351Y-32764D03*
X34351Y-27764D03*
X35351Y-31764D03*
X34351Y-26764D03*
X35351Y-30764D03*
X34351Y-25764D03*
X35351Y-29764D03*
X34351Y-24764D03*
X35351Y-28764D03*
X34351Y-23764D03*
X35351Y-27764D03*
X34351Y-22764D03*
X35351Y-26764D03*
X34351Y-21764D03*
X35351Y-25764D03*
X35351Y-24764D03*
X34351Y-20764D03*
X35351Y-23764D03*
X35351Y-21764D03*
X35351Y-20764D03*
X35351Y-19764D03*
X35351Y-18764D03*
X34351Y-19764D03*
X34351Y-18764D03*
X34351Y-35764D03*
X34351Y-34764D03*
X34351Y-33764D03*
X34351Y-32764D03*
X34351Y-17764D03*
X35351Y-17764D03*
X35351Y-22764D03*
G54D15*
X83464Y-23975D03*
G54D16*
X83464Y-24975D03*
X83464Y-25975D03*
X83464Y-26975D03*
X83464Y-27975D03*
X83464Y-28975D03*
G54D15*
X71425Y-31595D03*
G54D16*
X75425Y-31595D03*
G54D15*
X71425Y-33268D03*
G54D16*
X75425Y-33268D03*
G54D15*
X71425Y-34941D03*
G54D16*
X75425Y-34941D03*
G54D15*
X71425Y-29725D03*
G54D16*
X75425Y-29725D03*
G54D15*
X71425Y-26181D03*
G54D16*
X75425Y-26181D03*
G54D15*
X71425Y-27953D03*
G54D16*
X75425Y-27953D03*
G54D21*
X58465Y-40370D03*
G54D22*
X58465Y-39370D03*
X58465Y-38370D03*
G54D23*
X51965Y-39370D03*
G54D15*
X45162Y-39961D03*
G54D16*
X46162Y-39961D03*
X47162Y-39961D03*
G54D24*
X39945Y-39961D03*
G54D25*
X41945Y-39961D03*
X64370Y-18201D03*
X64370Y-20201D03*
X64370Y-22201D03*
X64370Y-24201D03*
X64370Y-34201D03*
X64370Y-32201D03*
G54D24*
X64370Y-36201D03*
G54D25*
X64370Y-30201D03*
X64370Y-28201D03*
X64370Y-26201D03*
G54D24*
X64370Y-40469D03*
G54D25*
X64370Y-38469D03*
G54D26*
X71349Y-40001D03*
G54D27*
X71289Y-37245D03*
G54D26*
X73927Y-41064D03*
G54D28*
X73986Y-37245D03*
G54D11*
X59980Y-40453D03*
X61280Y-40453D03*
G54D20*
X71063Y-21615D03*
X71063Y-20315D03*
G54D11*
X81043Y-28150D03*
X82343Y-28150D03*
X82815Y-38878D03*
X84115Y-38878D03*
X82815Y-33957D03*
X84115Y-33957D03*
X82815Y-16044D03*
X84115Y-16044D03*
X82815Y-20473D03*
X84115Y-20473D03*
X66378Y-26181D03*
X67678Y-26181D03*
X67657Y-24705D03*
X68957Y-24705D03*
X66378Y-32185D03*
X67678Y-32185D03*
X66378Y-30217D03*
X67678Y-30217D03*
X66378Y-28248D03*
X67678Y-28248D03*
X68838Y-26181D03*
X70138Y-26181D03*
X66378Y-23327D03*
X67678Y-23327D03*
X66378Y-21457D03*
X67678Y-21457D03*
X66378Y-19587D03*
X67678Y-19587D03*
X68740Y-36221D03*
X70040Y-36221D03*
X68838Y-34154D03*
X70138Y-34154D03*
X68838Y-32185D03*
X70138Y-32185D03*
X68838Y-30217D03*
X70138Y-30217D03*
X68838Y-28248D03*
X70138Y-28248D03*
X71812Y-24705D03*
X70512Y-24705D03*
X70237Y-23327D03*
X68937Y-23327D03*
X70040Y-21457D03*
X68740Y-21457D03*
X70040Y-19587D03*
X68740Y-19587D03*
X61871Y-16929D03*
X60571Y-16929D03*
X61871Y-18012D03*
X60571Y-18012D03*
X61871Y-19095D03*
X60571Y-19095D03*
G54D29*
X69882Y-40176D03*
X69882Y-40926D03*
X75591Y-37580D03*
X75591Y-36830D03*
X75591Y-40926D03*
X75591Y-40176D03*
G54D30*
X61005Y-39370D03*
X60255Y-39370D03*
G54D31*
X40287Y-37586D03*
X40641Y-37586D03*
G54D29*
X80791Y-24274D03*
X80791Y-25024D03*
G54D11*
X66378Y-36221D03*
X67678Y-36221D03*
G54D20*
X76830Y-36834D03*
X76830Y-38134D03*
G54D11*
X81043Y-29233D03*
X82343Y-29233D03*
G54D20*
X68406Y-41201D03*
X68406Y-39901D03*
M02*
