G04 (created by PCBNEW (2013-june-11)-stable) date lun 19 ago 2013 20:26:35 COT*
%MOIN*%
G04 Gerber Fmt 3.4, Leading zero omitted, Abs format*
%FSLAX34Y34*%
G01*
G70*
G90*
G04 APERTURE LIST*
%ADD10C,0.00590551*%
%ADD11C,0.012*%
%ADD12C,0.005*%
%ADD13C,0.008*%
%ADD14C,0.0039*%
%ADD15C,0.0001*%
%ADD16C,0.01*%
%ADD17C,0.0043*%
G04 APERTURE END LIST*
G54D10*
G54D11*
X94684Y-31298D02*
X94684Y-23424D01*
X82873Y-31298D02*
X94684Y-31298D01*
X82873Y-23424D02*
X94684Y-23424D01*
X82873Y-31298D02*
X82873Y-23424D01*
G54D12*
X66914Y-30551D02*
X66914Y-31901D01*
X66914Y-31901D02*
X68914Y-31901D01*
X68914Y-30551D02*
X66914Y-30551D01*
X68914Y-31901D02*
X68914Y-30551D01*
X66914Y-31501D02*
X67114Y-31501D01*
X67114Y-31501D02*
X67114Y-31001D01*
X67114Y-31001D02*
X66914Y-31001D01*
X84465Y-20473D02*
G75*
G03X84465Y-20473I-1000J0D01*
G74*
G01*
X81965Y-21973D02*
X84965Y-21973D01*
X84965Y-21973D02*
X84965Y-18973D01*
X84965Y-18973D02*
X81965Y-18973D01*
X81965Y-21973D02*
X81965Y-18973D01*
X84465Y-16044D02*
G75*
G03X84465Y-16044I-1000J0D01*
G74*
G01*
X81965Y-17544D02*
X84965Y-17544D01*
X84965Y-17544D02*
X84965Y-14544D01*
X84965Y-14544D02*
X81965Y-14544D01*
X81965Y-17544D02*
X81965Y-14544D01*
X84465Y-33957D02*
G75*
G03X84465Y-33957I-1000J0D01*
G74*
G01*
X81965Y-35457D02*
X84965Y-35457D01*
X84965Y-35457D02*
X84965Y-32457D01*
X84965Y-32457D02*
X81965Y-32457D01*
X81965Y-35457D02*
X81965Y-32457D01*
X84465Y-38878D02*
G75*
G03X84465Y-38878I-1000J0D01*
G74*
G01*
X81965Y-40378D02*
X84965Y-40378D01*
X84965Y-40378D02*
X84965Y-37378D01*
X84965Y-37378D02*
X81965Y-37378D01*
X81965Y-40378D02*
X81965Y-37378D01*
X59532Y-38639D02*
X59532Y-37739D01*
X59532Y-37739D02*
X60182Y-37739D01*
X60882Y-38639D02*
X61532Y-38639D01*
X61532Y-38639D02*
X61532Y-37739D01*
X61532Y-37739D02*
X60882Y-37739D01*
X60182Y-38639D02*
X59532Y-38639D01*
G54D11*
X33851Y-17264D02*
X33851Y-37264D01*
X35851Y-17264D02*
X35851Y-37264D01*
X35851Y-17264D02*
X33851Y-17264D01*
X35851Y-37264D02*
X33851Y-37264D01*
X83964Y-23475D02*
X82964Y-23475D01*
X82964Y-23475D02*
X82964Y-29475D01*
X82964Y-29475D02*
X83964Y-29475D01*
X83964Y-29475D02*
X83964Y-23475D01*
X83964Y-24475D02*
X82964Y-24475D01*
G54D12*
X66914Y-34587D02*
X66914Y-35937D01*
X66914Y-35937D02*
X68914Y-35937D01*
X68914Y-34587D02*
X66914Y-34587D01*
X68914Y-35937D02*
X68914Y-34587D01*
X66914Y-35537D02*
X67114Y-35537D01*
X67114Y-35537D02*
X67114Y-35037D01*
X67114Y-35037D02*
X66914Y-35037D01*
X66914Y-26516D02*
X66914Y-27866D01*
X66914Y-27866D02*
X68914Y-27866D01*
X68914Y-26516D02*
X66914Y-26516D01*
X68914Y-27866D02*
X68914Y-26516D01*
X66914Y-27466D02*
X67114Y-27466D01*
X67114Y-27466D02*
X67114Y-26966D01*
X67114Y-26966D02*
X66914Y-26966D01*
G54D13*
X72274Y-20462D02*
X68474Y-20462D01*
X68474Y-20462D02*
X68474Y-21962D01*
X68474Y-21962D02*
X72274Y-21962D01*
X72274Y-21962D02*
X72274Y-20462D01*
X72274Y-20962D02*
X71974Y-20962D01*
X71974Y-20962D02*
X71974Y-21362D01*
X71974Y-21362D02*
X72274Y-21362D01*
G54D12*
X53626Y-18462D02*
X53626Y-17562D01*
X53626Y-17562D02*
X54276Y-17562D01*
X54976Y-18462D02*
X55626Y-18462D01*
X55626Y-18462D02*
X55626Y-17562D01*
X55626Y-17562D02*
X54976Y-17562D01*
X54276Y-18462D02*
X53626Y-18462D01*
X53626Y-19545D02*
X53626Y-18645D01*
X53626Y-18645D02*
X54276Y-18645D01*
X54976Y-19545D02*
X55626Y-19545D01*
X55626Y-19545D02*
X55626Y-18645D01*
X55626Y-18645D02*
X54976Y-18645D01*
X54276Y-19545D02*
X53626Y-19545D01*
X53626Y-20627D02*
X53626Y-19727D01*
X53626Y-19727D02*
X54276Y-19727D01*
X54976Y-20627D02*
X55626Y-20627D01*
X55626Y-20627D02*
X55626Y-19727D01*
X55626Y-19727D02*
X54976Y-19727D01*
X54276Y-20627D02*
X53626Y-20627D01*
X65794Y-17284D02*
G75*
G03X65794Y-17284I-50J0D01*
G74*
G01*
X65744Y-16834D02*
X65744Y-17234D01*
X65744Y-17234D02*
X66344Y-17234D01*
X66344Y-17234D02*
X66344Y-16834D01*
X66344Y-16434D02*
X66344Y-16034D01*
X66344Y-16034D02*
X65744Y-16034D01*
X65744Y-16034D02*
X65744Y-16434D01*
X61660Y-17186D02*
G75*
G03X61660Y-17186I-50J0D01*
G74*
G01*
X61610Y-16736D02*
X61610Y-17136D01*
X61610Y-17136D02*
X62210Y-17136D01*
X62210Y-17136D02*
X62210Y-16736D01*
X62210Y-16336D02*
X62210Y-15936D01*
X62210Y-15936D02*
X61610Y-15936D01*
X61610Y-15936D02*
X61610Y-16336D01*
G54D14*
X59691Y-36688D02*
G75*
G03X59691Y-36688I-50J0D01*
G74*
G01*
X60091Y-36688D02*
X59691Y-36688D01*
X59691Y-36688D02*
X59691Y-37288D01*
X59691Y-37288D02*
X60091Y-37288D01*
X60491Y-37288D02*
X60891Y-37288D01*
X60891Y-37288D02*
X60891Y-36688D01*
X60891Y-36688D02*
X60491Y-36688D01*
G54D15*
G36*
X51813Y-28218D02*
X50815Y-28218D01*
X50815Y-25541D01*
X50775Y-25232D01*
X50761Y-25174D01*
X50722Y-25046D01*
X50672Y-24908D01*
X50618Y-24775D01*
X50565Y-24662D01*
X50519Y-24582D01*
X50488Y-24551D01*
X50487Y-24551D01*
X50449Y-24563D01*
X50440Y-24605D01*
X50462Y-24688D01*
X50498Y-24781D01*
X50568Y-25005D01*
X50614Y-25256D01*
X50631Y-25507D01*
X50617Y-25732D01*
X50614Y-25754D01*
X50538Y-26035D01*
X50418Y-26266D01*
X50406Y-26279D01*
X50406Y-25224D01*
X50381Y-24940D01*
X50308Y-24638D01*
X50190Y-24327D01*
X50032Y-24017D01*
X49836Y-23717D01*
X49607Y-23435D01*
X49411Y-23236D01*
X49130Y-23005D01*
X48817Y-22794D01*
X48489Y-22613D01*
X48163Y-22472D01*
X47930Y-22399D01*
X47772Y-22368D01*
X47593Y-22347D01*
X47406Y-22338D01*
X47222Y-22338D01*
X47053Y-22348D01*
X46911Y-22367D01*
X46806Y-22394D01*
X46752Y-22430D01*
X46747Y-22446D01*
X46778Y-22458D01*
X46864Y-22471D01*
X46992Y-22482D01*
X47151Y-22491D01*
X47205Y-22493D01*
X47460Y-22508D01*
X47671Y-22534D01*
X47860Y-22577D01*
X48048Y-22643D01*
X48258Y-22737D01*
X48349Y-22781D01*
X48656Y-22951D01*
X48922Y-23136D01*
X49174Y-23355D01*
X49238Y-23418D01*
X49493Y-23704D01*
X49701Y-24002D01*
X49861Y-24308D01*
X49972Y-24614D01*
X50031Y-24915D01*
X50038Y-25204D01*
X49992Y-25476D01*
X49892Y-25725D01*
X49891Y-25726D01*
X49891Y-24877D01*
X49863Y-24778D01*
X49826Y-24687D01*
X49638Y-24338D01*
X49397Y-24026D01*
X49108Y-23754D01*
X48779Y-23530D01*
X48415Y-23358D01*
X48301Y-23318D01*
X48194Y-23286D01*
X48096Y-23265D01*
X47989Y-23255D01*
X47853Y-23252D01*
X47672Y-23256D01*
X47651Y-23256D01*
X47473Y-23263D01*
X47343Y-23272D01*
X47244Y-23286D01*
X47157Y-23311D01*
X47064Y-23349D01*
X46968Y-23393D01*
X46697Y-23557D01*
X46454Y-23773D01*
X46253Y-24030D01*
X46173Y-24168D01*
X46025Y-24523D01*
X45939Y-24891D01*
X45916Y-25268D01*
X45953Y-25645D01*
X46050Y-26017D01*
X46205Y-26379D01*
X46419Y-26723D01*
X46608Y-26957D01*
X46702Y-27051D01*
X46814Y-27146D01*
X46930Y-27234D01*
X47037Y-27305D01*
X47124Y-27351D01*
X47178Y-27363D01*
X47185Y-27359D01*
X47176Y-27324D01*
X47129Y-27256D01*
X47052Y-27165D01*
X47013Y-27123D01*
X46801Y-26855D01*
X46627Y-26543D01*
X46496Y-26198D01*
X46412Y-25834D01*
X46380Y-25464D01*
X46380Y-25437D01*
X46407Y-25056D01*
X46485Y-24715D01*
X46614Y-24416D01*
X46795Y-24160D01*
X47025Y-23946D01*
X47295Y-23782D01*
X47407Y-23730D01*
X47501Y-23696D01*
X47599Y-23675D01*
X47721Y-23663D01*
X47885Y-23656D01*
X48065Y-23652D01*
X48201Y-23658D01*
X48316Y-23675D01*
X48433Y-23705D01*
X48469Y-23716D01*
X48794Y-23855D01*
X49099Y-24054D01*
X49379Y-24309D01*
X49628Y-24615D01*
X49695Y-24716D01*
X49783Y-24841D01*
X49848Y-24909D01*
X49884Y-24921D01*
X49891Y-24877D01*
X49891Y-25726D01*
X49764Y-25911D01*
X49687Y-25988D01*
X49578Y-26079D01*
X49475Y-26154D01*
X49366Y-26231D01*
X49305Y-26283D01*
X49286Y-26322D01*
X49301Y-26357D01*
X49320Y-26378D01*
X49348Y-26403D01*
X49378Y-26414D01*
X49428Y-26407D01*
X49514Y-26384D01*
X49579Y-26365D01*
X49832Y-26257D01*
X50044Y-26098D01*
X50212Y-25891D01*
X50332Y-25639D01*
X50377Y-25483D01*
X50406Y-25224D01*
X50406Y-26279D01*
X50254Y-26448D01*
X50044Y-26581D01*
X49966Y-26613D01*
X49715Y-26673D01*
X49454Y-26670D01*
X49189Y-26605D01*
X48928Y-26482D01*
X48676Y-26302D01*
X48547Y-26183D01*
X48363Y-25978D01*
X48216Y-25767D01*
X48099Y-25533D01*
X48001Y-25260D01*
X47945Y-25053D01*
X47915Y-24967D01*
X47888Y-24944D01*
X47867Y-24980D01*
X47852Y-25071D01*
X47848Y-25201D01*
X47880Y-25538D01*
X47976Y-25869D01*
X48132Y-26184D01*
X48344Y-26477D01*
X48447Y-26588D01*
X48695Y-26810D01*
X48943Y-26968D01*
X49197Y-27066D01*
X49465Y-27107D01*
X49581Y-27108D01*
X49739Y-27097D01*
X49866Y-27070D01*
X50000Y-27017D01*
X50054Y-26991D01*
X50283Y-26842D01*
X50476Y-26645D01*
X50629Y-26407D01*
X50739Y-26137D01*
X50802Y-25846D01*
X50815Y-25541D01*
X50815Y-28218D01*
X50779Y-28218D01*
X50779Y-26975D01*
X50773Y-26879D01*
X50757Y-26847D01*
X50736Y-26877D01*
X50711Y-26968D01*
X50699Y-27025D01*
X50638Y-27194D01*
X50523Y-27326D01*
X50356Y-27418D01*
X50138Y-27471D01*
X49937Y-27483D01*
X49771Y-27480D01*
X49639Y-27463D01*
X49509Y-27429D01*
X49380Y-27382D01*
X49027Y-27214D01*
X48695Y-26995D01*
X48393Y-26733D01*
X48128Y-26437D01*
X47906Y-26114D01*
X47737Y-25773D01*
X47626Y-25423D01*
X47589Y-25152D01*
X47603Y-24913D01*
X47668Y-24710D01*
X47782Y-24547D01*
X47889Y-24460D01*
X47964Y-24415D01*
X48036Y-24388D01*
X48124Y-24374D01*
X48247Y-24369D01*
X48330Y-24368D01*
X48479Y-24370D01*
X48615Y-24377D01*
X48716Y-24388D01*
X48738Y-24392D01*
X48820Y-24399D01*
X48850Y-24378D01*
X48831Y-24337D01*
X48766Y-24286D01*
X48688Y-24247D01*
X48428Y-24158D01*
X48153Y-24105D01*
X47880Y-24089D01*
X47623Y-24110D01*
X47399Y-24169D01*
X47337Y-24196D01*
X47125Y-24334D01*
X46960Y-24515D01*
X46844Y-24733D01*
X46777Y-24983D01*
X46760Y-25259D01*
X46795Y-25557D01*
X46882Y-25870D01*
X46978Y-26105D01*
X47132Y-26399D01*
X47306Y-26663D01*
X47517Y-26917D01*
X47678Y-27085D01*
X48019Y-27389D01*
X48377Y-27634D01*
X48746Y-27819D01*
X49121Y-27940D01*
X49173Y-27952D01*
X49403Y-27994D01*
X49591Y-28012D01*
X49757Y-28006D01*
X49923Y-27976D01*
X49960Y-27967D01*
X50205Y-27873D01*
X50415Y-27732D01*
X50584Y-27553D01*
X50704Y-27344D01*
X50769Y-27113D01*
X50779Y-26975D01*
X50779Y-28218D01*
X48480Y-28218D01*
X45147Y-28218D01*
X45147Y-25118D01*
X45147Y-22018D01*
X48480Y-22018D01*
X51813Y-22018D01*
X51813Y-25118D01*
X51813Y-28218D01*
X51813Y-28218D01*
X51813Y-28218D01*
G37*
G54D12*
X70186Y-31032D02*
X70186Y-31396D01*
X70167Y-31439D01*
X70148Y-31460D01*
X70110Y-31482D01*
X70034Y-31482D01*
X69996Y-31460D01*
X69977Y-31439D01*
X69958Y-31396D01*
X69958Y-31032D01*
X69805Y-31032D02*
X69558Y-31032D01*
X69691Y-31203D01*
X69634Y-31203D01*
X69596Y-31225D01*
X69577Y-31246D01*
X69558Y-31289D01*
X69558Y-31396D01*
X69577Y-31439D01*
X69596Y-31460D01*
X69634Y-31482D01*
X69748Y-31482D01*
X69786Y-31460D01*
X69805Y-31439D01*
X69228Y-33232D02*
X69228Y-32832D01*
X69094Y-33118D01*
X68961Y-32832D01*
X68961Y-33232D01*
X68694Y-32832D02*
X68618Y-32832D01*
X68580Y-32851D01*
X68542Y-32890D01*
X68523Y-32966D01*
X68523Y-33099D01*
X68542Y-33175D01*
X68580Y-33213D01*
X68618Y-33232D01*
X68694Y-33232D01*
X68733Y-33213D01*
X68771Y-33175D01*
X68790Y-33099D01*
X68790Y-32966D01*
X68771Y-32890D01*
X68733Y-32851D01*
X68694Y-32832D01*
X68123Y-33194D02*
X68142Y-33213D01*
X68199Y-33232D01*
X68237Y-33232D01*
X68294Y-33213D01*
X68333Y-33175D01*
X68352Y-33137D01*
X68371Y-33061D01*
X68371Y-33004D01*
X68352Y-32928D01*
X68333Y-32890D01*
X68294Y-32851D01*
X68237Y-32832D01*
X68199Y-32832D01*
X68142Y-32851D01*
X68123Y-32871D01*
X67952Y-33232D02*
X67952Y-32832D01*
X67856Y-32832D01*
X67799Y-32851D01*
X67761Y-32890D01*
X67742Y-32928D01*
X67723Y-33004D01*
X67723Y-33061D01*
X67742Y-33137D01*
X67761Y-33175D01*
X67799Y-33213D01*
X67856Y-33232D01*
X67952Y-33232D01*
X67571Y-32871D02*
X67552Y-32851D01*
X67513Y-32832D01*
X67418Y-32832D01*
X67380Y-32851D01*
X67361Y-32871D01*
X67342Y-32909D01*
X67342Y-32947D01*
X67361Y-33004D01*
X67590Y-33232D01*
X67342Y-33232D01*
X66961Y-33232D02*
X67190Y-33232D01*
X67075Y-33232D02*
X67075Y-32832D01*
X67113Y-32890D01*
X67152Y-32928D01*
X67190Y-32947D01*
X66828Y-32832D02*
X66580Y-32832D01*
X66713Y-32985D01*
X66656Y-32985D01*
X66618Y-33004D01*
X66599Y-33023D01*
X66580Y-33061D01*
X66580Y-33156D01*
X66599Y-33194D01*
X66618Y-33213D01*
X66656Y-33232D01*
X66771Y-33232D01*
X66809Y-33213D01*
X66828Y-33194D01*
G54D13*
X83998Y-20915D02*
X83941Y-20934D01*
X83845Y-20934D01*
X83807Y-20915D01*
X83788Y-20896D01*
X83769Y-20858D01*
X83769Y-20820D01*
X83788Y-20782D01*
X83807Y-20763D01*
X83845Y-20744D01*
X83922Y-20725D01*
X83960Y-20706D01*
X83979Y-20687D01*
X83998Y-20649D01*
X83998Y-20611D01*
X83979Y-20573D01*
X83960Y-20553D01*
X83922Y-20534D01*
X83826Y-20534D01*
X83769Y-20553D01*
X83636Y-20534D02*
X83541Y-20934D01*
X83465Y-20649D01*
X83388Y-20934D01*
X83293Y-20534D01*
X82969Y-20668D02*
X82969Y-20934D01*
X83064Y-20515D02*
X83160Y-20801D01*
X82912Y-20801D01*
X84122Y-18764D02*
X84122Y-18364D01*
X83969Y-18364D01*
X83931Y-18383D01*
X83912Y-18403D01*
X83893Y-18441D01*
X83893Y-18498D01*
X83912Y-18536D01*
X83931Y-18555D01*
X83969Y-18574D01*
X84122Y-18574D01*
X83741Y-18650D02*
X83550Y-18650D01*
X83779Y-18764D02*
X83645Y-18364D01*
X83512Y-18764D01*
X83169Y-18383D02*
X83207Y-18364D01*
X83265Y-18364D01*
X83322Y-18383D01*
X83360Y-18422D01*
X83379Y-18460D01*
X83398Y-18536D01*
X83398Y-18593D01*
X83379Y-18669D01*
X83360Y-18707D01*
X83322Y-18745D01*
X83265Y-18764D01*
X83226Y-18764D01*
X83169Y-18745D01*
X83150Y-18726D01*
X83150Y-18593D01*
X83226Y-18593D01*
X82979Y-18555D02*
X82845Y-18555D01*
X82788Y-18764D02*
X82979Y-18764D01*
X82979Y-18364D01*
X82788Y-18364D01*
X83998Y-16486D02*
X83941Y-16505D01*
X83845Y-16505D01*
X83807Y-16486D01*
X83788Y-16467D01*
X83769Y-16429D01*
X83769Y-16391D01*
X83788Y-16353D01*
X83807Y-16334D01*
X83845Y-16315D01*
X83922Y-16296D01*
X83960Y-16277D01*
X83979Y-16258D01*
X83998Y-16220D01*
X83998Y-16182D01*
X83979Y-16144D01*
X83960Y-16124D01*
X83922Y-16105D01*
X83826Y-16105D01*
X83769Y-16124D01*
X83636Y-16105D02*
X83541Y-16505D01*
X83465Y-16220D01*
X83388Y-16505D01*
X83293Y-16105D01*
X83179Y-16105D02*
X82931Y-16105D01*
X83064Y-16258D01*
X83007Y-16258D01*
X82969Y-16277D01*
X82950Y-16296D01*
X82931Y-16334D01*
X82931Y-16429D01*
X82950Y-16467D01*
X82969Y-16486D01*
X83007Y-16505D01*
X83122Y-16505D01*
X83160Y-16486D01*
X83179Y-16467D01*
X84293Y-14126D02*
X84160Y-14126D01*
X84103Y-14335D02*
X84293Y-14335D01*
X84293Y-13935D01*
X84103Y-13935D01*
X83931Y-14335D02*
X83931Y-13935D01*
X83703Y-14335D01*
X83703Y-13935D01*
X83569Y-13935D02*
X83341Y-13935D01*
X83455Y-14335D02*
X83455Y-13935D01*
X83207Y-14126D02*
X83074Y-14126D01*
X83017Y-14335D02*
X83207Y-14335D01*
X83207Y-13935D01*
X83017Y-13935D01*
X82617Y-14335D02*
X82750Y-14145D01*
X82845Y-14335D02*
X82845Y-13935D01*
X82693Y-13935D01*
X82655Y-13954D01*
X82636Y-13974D01*
X82617Y-14012D01*
X82617Y-14069D01*
X82636Y-14107D01*
X82655Y-14126D01*
X82693Y-14145D01*
X82845Y-14145D01*
X83998Y-34399D02*
X83941Y-34418D01*
X83845Y-34418D01*
X83807Y-34399D01*
X83788Y-34380D01*
X83769Y-34342D01*
X83769Y-34304D01*
X83788Y-34266D01*
X83807Y-34247D01*
X83845Y-34228D01*
X83922Y-34209D01*
X83960Y-34190D01*
X83979Y-34171D01*
X83998Y-34133D01*
X83998Y-34095D01*
X83979Y-34057D01*
X83960Y-34037D01*
X83922Y-34018D01*
X83826Y-34018D01*
X83769Y-34037D01*
X83636Y-34018D02*
X83541Y-34418D01*
X83465Y-34133D01*
X83388Y-34418D01*
X83293Y-34018D01*
X83160Y-34057D02*
X83141Y-34037D01*
X83103Y-34018D01*
X83007Y-34018D01*
X82969Y-34037D01*
X82950Y-34057D01*
X82931Y-34095D01*
X82931Y-34133D01*
X82950Y-34190D01*
X83179Y-34418D01*
X82931Y-34418D01*
X84217Y-32248D02*
X84217Y-31848D01*
X84122Y-31848D01*
X84065Y-31867D01*
X84026Y-31906D01*
X84007Y-31944D01*
X83988Y-32020D01*
X83988Y-32077D01*
X84007Y-32153D01*
X84026Y-32191D01*
X84065Y-32229D01*
X84122Y-32248D01*
X84217Y-32248D01*
X83741Y-31848D02*
X83665Y-31848D01*
X83626Y-31867D01*
X83588Y-31906D01*
X83569Y-31982D01*
X83569Y-32115D01*
X83588Y-32191D01*
X83626Y-32229D01*
X83665Y-32248D01*
X83741Y-32248D01*
X83779Y-32229D01*
X83817Y-32191D01*
X83836Y-32115D01*
X83836Y-31982D01*
X83817Y-31906D01*
X83779Y-31867D01*
X83741Y-31848D01*
X83436Y-31848D02*
X83341Y-32248D01*
X83265Y-31963D01*
X83188Y-32248D01*
X83093Y-31848D01*
X82941Y-32248D02*
X82941Y-31848D01*
X82712Y-32248D01*
X82712Y-31848D01*
X83998Y-39320D02*
X83941Y-39339D01*
X83845Y-39339D01*
X83807Y-39320D01*
X83788Y-39301D01*
X83769Y-39263D01*
X83769Y-39225D01*
X83788Y-39187D01*
X83807Y-39168D01*
X83845Y-39149D01*
X83922Y-39130D01*
X83960Y-39111D01*
X83979Y-39092D01*
X83998Y-39054D01*
X83998Y-39016D01*
X83979Y-38978D01*
X83960Y-38958D01*
X83922Y-38939D01*
X83826Y-38939D01*
X83769Y-38958D01*
X83636Y-38939D02*
X83541Y-39339D01*
X83465Y-39054D01*
X83388Y-39339D01*
X83293Y-38939D01*
X82931Y-39339D02*
X83160Y-39339D01*
X83045Y-39339D02*
X83045Y-38939D01*
X83084Y-38997D01*
X83122Y-39035D01*
X83160Y-39054D01*
X83779Y-36769D02*
X83779Y-37093D01*
X83760Y-37131D01*
X83741Y-37150D01*
X83703Y-37169D01*
X83626Y-37169D01*
X83588Y-37150D01*
X83569Y-37131D01*
X83550Y-37093D01*
X83550Y-36769D01*
X83360Y-37169D02*
X83360Y-36769D01*
X83207Y-36769D01*
X83169Y-36788D01*
X83150Y-36808D01*
X83131Y-36846D01*
X83131Y-36903D01*
X83150Y-36941D01*
X83169Y-36960D01*
X83207Y-36979D01*
X83360Y-36979D01*
G54D12*
X59204Y-38281D02*
X59218Y-38296D01*
X59261Y-38310D01*
X59289Y-38310D01*
X59332Y-38296D01*
X59361Y-38267D01*
X59375Y-38239D01*
X59389Y-38181D01*
X59389Y-38139D01*
X59375Y-38081D01*
X59361Y-38053D01*
X59332Y-38024D01*
X59289Y-38010D01*
X59261Y-38010D01*
X59218Y-38024D01*
X59204Y-38039D01*
X58946Y-38110D02*
X58946Y-38310D01*
X59018Y-37996D02*
X59089Y-38210D01*
X58904Y-38210D01*
G54D16*
X36579Y-27165D02*
X36179Y-27165D01*
X36179Y-27318D01*
X36198Y-27356D01*
X36218Y-27375D01*
X36256Y-27394D01*
X36313Y-27394D01*
X36351Y-27375D01*
X36370Y-27356D01*
X36389Y-27318D01*
X36389Y-27165D01*
X36179Y-27527D02*
X36179Y-27775D01*
X36332Y-27641D01*
X36332Y-27699D01*
X36351Y-27737D01*
X36370Y-27756D01*
X36408Y-27775D01*
X36503Y-27775D01*
X36541Y-27756D01*
X36560Y-27737D01*
X36579Y-27699D01*
X36579Y-27584D01*
X36560Y-27546D01*
X36541Y-27527D01*
G54D13*
X36541Y-22793D02*
X36560Y-22774D01*
X36579Y-22717D01*
X36579Y-22679D01*
X36560Y-22622D01*
X36522Y-22584D01*
X36484Y-22565D01*
X36408Y-22546D01*
X36351Y-22546D01*
X36275Y-22565D01*
X36237Y-22584D01*
X36198Y-22622D01*
X36179Y-22679D01*
X36179Y-22717D01*
X36198Y-22774D01*
X36218Y-22793D01*
X36179Y-23041D02*
X36179Y-23117D01*
X36198Y-23155D01*
X36237Y-23193D01*
X36313Y-23213D01*
X36446Y-23213D01*
X36522Y-23193D01*
X36560Y-23155D01*
X36579Y-23117D01*
X36579Y-23041D01*
X36560Y-23003D01*
X36522Y-22965D01*
X36446Y-22946D01*
X36313Y-22946D01*
X36237Y-22965D01*
X36198Y-23003D01*
X36179Y-23041D01*
X36579Y-23384D02*
X36179Y-23384D01*
X36579Y-23613D01*
X36179Y-23613D01*
X36579Y-23803D02*
X36179Y-23803D01*
X36579Y-24032D01*
X36179Y-24032D01*
X36618Y-24127D02*
X36618Y-24432D01*
X36218Y-24508D02*
X36198Y-24527D01*
X36179Y-24565D01*
X36179Y-24660D01*
X36198Y-24698D01*
X36218Y-24717D01*
X36256Y-24736D01*
X36294Y-24736D01*
X36351Y-24717D01*
X36579Y-24489D01*
X36579Y-24736D01*
X36179Y-24984D02*
X36179Y-25022D01*
X36198Y-25060D01*
X36218Y-25079D01*
X36256Y-25098D01*
X36332Y-25117D01*
X36427Y-25117D01*
X36503Y-25098D01*
X36541Y-25079D01*
X36560Y-25060D01*
X36579Y-25022D01*
X36579Y-24984D01*
X36560Y-24946D01*
X36541Y-24927D01*
X36503Y-24908D01*
X36427Y-24889D01*
X36332Y-24889D01*
X36256Y-24908D01*
X36218Y-24927D01*
X36198Y-24946D01*
X36179Y-24984D01*
X36179Y-25251D02*
X36579Y-25517D01*
X36179Y-25517D02*
X36579Y-25251D01*
X36218Y-25651D02*
X36198Y-25670D01*
X36179Y-25708D01*
X36179Y-25803D01*
X36198Y-25841D01*
X36218Y-25860D01*
X36256Y-25879D01*
X36294Y-25879D01*
X36351Y-25860D01*
X36579Y-25632D01*
X36579Y-25879D01*
X83724Y-29821D02*
X83324Y-29821D01*
X83324Y-29974D01*
X83343Y-30012D01*
X83363Y-30031D01*
X83401Y-30050D01*
X83458Y-30050D01*
X83496Y-30031D01*
X83515Y-30012D01*
X83534Y-29974D01*
X83534Y-29821D01*
X83324Y-30412D02*
X83324Y-30221D01*
X83515Y-30202D01*
X83496Y-30221D01*
X83477Y-30259D01*
X83477Y-30355D01*
X83496Y-30393D01*
X83515Y-30412D01*
X83553Y-30431D01*
X83648Y-30431D01*
X83686Y-30412D01*
X83705Y-30393D01*
X83724Y-30355D01*
X83724Y-30259D01*
X83705Y-30221D01*
X83686Y-30202D01*
G54D12*
X70186Y-35067D02*
X70186Y-35431D01*
X70167Y-35474D01*
X70148Y-35495D01*
X70110Y-35517D01*
X70034Y-35517D01*
X69996Y-35495D01*
X69977Y-35474D01*
X69958Y-35431D01*
X69958Y-35067D01*
X69786Y-35110D02*
X69767Y-35088D01*
X69729Y-35067D01*
X69634Y-35067D01*
X69596Y-35088D01*
X69577Y-35110D01*
X69558Y-35152D01*
X69558Y-35195D01*
X69577Y-35260D01*
X69805Y-35517D01*
X69558Y-35517D01*
X69228Y-37464D02*
X69228Y-37064D01*
X69094Y-37350D01*
X68961Y-37064D01*
X68961Y-37464D01*
X68694Y-37064D02*
X68618Y-37064D01*
X68580Y-37083D01*
X68542Y-37122D01*
X68523Y-37198D01*
X68523Y-37331D01*
X68542Y-37407D01*
X68580Y-37445D01*
X68618Y-37464D01*
X68694Y-37464D01*
X68733Y-37445D01*
X68771Y-37407D01*
X68790Y-37331D01*
X68790Y-37198D01*
X68771Y-37122D01*
X68733Y-37083D01*
X68694Y-37064D01*
X68123Y-37426D02*
X68142Y-37445D01*
X68199Y-37464D01*
X68237Y-37464D01*
X68294Y-37445D01*
X68333Y-37407D01*
X68352Y-37369D01*
X68371Y-37293D01*
X68371Y-37236D01*
X68352Y-37160D01*
X68333Y-37122D01*
X68294Y-37083D01*
X68237Y-37064D01*
X68199Y-37064D01*
X68142Y-37083D01*
X68123Y-37103D01*
X67952Y-37464D02*
X67952Y-37064D01*
X67856Y-37064D01*
X67799Y-37083D01*
X67761Y-37122D01*
X67742Y-37160D01*
X67723Y-37236D01*
X67723Y-37293D01*
X67742Y-37369D01*
X67761Y-37407D01*
X67799Y-37445D01*
X67856Y-37464D01*
X67952Y-37464D01*
X67571Y-37103D02*
X67552Y-37083D01*
X67513Y-37064D01*
X67418Y-37064D01*
X67380Y-37083D01*
X67361Y-37103D01*
X67342Y-37141D01*
X67342Y-37179D01*
X67361Y-37236D01*
X67590Y-37464D01*
X67342Y-37464D01*
X66961Y-37464D02*
X67190Y-37464D01*
X67075Y-37464D02*
X67075Y-37064D01*
X67113Y-37122D01*
X67152Y-37160D01*
X67190Y-37179D01*
X66828Y-37064D02*
X66580Y-37064D01*
X66713Y-37217D01*
X66656Y-37217D01*
X66618Y-37236D01*
X66599Y-37255D01*
X66580Y-37293D01*
X66580Y-37388D01*
X66599Y-37426D01*
X66618Y-37445D01*
X66656Y-37464D01*
X66771Y-37464D01*
X66809Y-37445D01*
X66828Y-37426D01*
X70285Y-26996D02*
X70285Y-27360D01*
X70266Y-27403D01*
X70247Y-27424D01*
X70209Y-27446D01*
X70133Y-27446D01*
X70095Y-27424D01*
X70076Y-27403D01*
X70057Y-27360D01*
X70057Y-26996D01*
X69695Y-27146D02*
X69695Y-27446D01*
X69790Y-26974D02*
X69885Y-27296D01*
X69638Y-27296D01*
X69228Y-29197D02*
X69228Y-28797D01*
X69094Y-29083D01*
X68961Y-28797D01*
X68961Y-29197D01*
X68694Y-28797D02*
X68618Y-28797D01*
X68580Y-28816D01*
X68542Y-28855D01*
X68523Y-28931D01*
X68523Y-29064D01*
X68542Y-29140D01*
X68580Y-29178D01*
X68618Y-29197D01*
X68694Y-29197D01*
X68733Y-29178D01*
X68771Y-29140D01*
X68790Y-29064D01*
X68790Y-28931D01*
X68771Y-28855D01*
X68733Y-28816D01*
X68694Y-28797D01*
X68123Y-29159D02*
X68142Y-29178D01*
X68199Y-29197D01*
X68237Y-29197D01*
X68294Y-29178D01*
X68333Y-29140D01*
X68352Y-29102D01*
X68371Y-29026D01*
X68371Y-28969D01*
X68352Y-28893D01*
X68333Y-28855D01*
X68294Y-28816D01*
X68237Y-28797D01*
X68199Y-28797D01*
X68142Y-28816D01*
X68123Y-28836D01*
X67952Y-29197D02*
X67952Y-28797D01*
X67856Y-28797D01*
X67799Y-28816D01*
X67761Y-28855D01*
X67742Y-28893D01*
X67723Y-28969D01*
X67723Y-29026D01*
X67742Y-29102D01*
X67761Y-29140D01*
X67799Y-29178D01*
X67856Y-29197D01*
X67952Y-29197D01*
X67571Y-28836D02*
X67552Y-28816D01*
X67513Y-28797D01*
X67418Y-28797D01*
X67380Y-28816D01*
X67361Y-28836D01*
X67342Y-28874D01*
X67342Y-28912D01*
X67361Y-28969D01*
X67590Y-29197D01*
X67342Y-29197D01*
X66961Y-29197D02*
X67190Y-29197D01*
X67075Y-29197D02*
X67075Y-28797D01*
X67113Y-28855D01*
X67152Y-28893D01*
X67190Y-28912D01*
X66828Y-28797D02*
X66580Y-28797D01*
X66713Y-28950D01*
X66656Y-28950D01*
X66618Y-28969D01*
X66599Y-28988D01*
X66580Y-29026D01*
X66580Y-29121D01*
X66599Y-29159D01*
X66618Y-29178D01*
X66656Y-29197D01*
X66771Y-29197D01*
X66809Y-29178D01*
X66828Y-29159D01*
X73275Y-20923D02*
X73275Y-21247D01*
X73254Y-21285D01*
X73233Y-21304D01*
X73190Y-21323D01*
X73104Y-21323D01*
X73061Y-21304D01*
X73040Y-21285D01*
X73018Y-21247D01*
X73018Y-20923D01*
X72590Y-20923D02*
X72804Y-20923D01*
X72825Y-21114D01*
X72804Y-21095D01*
X72761Y-21076D01*
X72654Y-21076D01*
X72611Y-21095D01*
X72590Y-21114D01*
X72568Y-21152D01*
X72568Y-21247D01*
X72590Y-21285D01*
X72611Y-21304D01*
X72654Y-21323D01*
X72761Y-21323D01*
X72804Y-21304D01*
X72825Y-21285D01*
X71259Y-21421D02*
X71450Y-21421D01*
X71450Y-21021D01*
X71126Y-21421D02*
X71126Y-21021D01*
X70993Y-21307D01*
X70859Y-21021D01*
X70859Y-21421D01*
X70707Y-21021D02*
X70459Y-21021D01*
X70593Y-21174D01*
X70535Y-21174D01*
X70497Y-21193D01*
X70478Y-21212D01*
X70459Y-21250D01*
X70459Y-21345D01*
X70478Y-21383D01*
X70497Y-21402D01*
X70535Y-21421D01*
X70650Y-21421D01*
X70688Y-21402D01*
X70707Y-21383D01*
X70307Y-21060D02*
X70288Y-21040D01*
X70250Y-21021D01*
X70154Y-21021D01*
X70116Y-21040D01*
X70097Y-21060D01*
X70078Y-21098D01*
X70078Y-21136D01*
X70097Y-21193D01*
X70326Y-21421D01*
X70078Y-21421D01*
X69735Y-21155D02*
X69735Y-21421D01*
X69831Y-21002D02*
X69926Y-21288D01*
X69678Y-21288D01*
X69526Y-21421D02*
X69526Y-21021D01*
X69297Y-21421D01*
X69297Y-21021D01*
X56491Y-18133D02*
X56591Y-17990D01*
X56663Y-18133D02*
X56663Y-17833D01*
X56549Y-17833D01*
X56520Y-17847D01*
X56506Y-17862D01*
X56491Y-17890D01*
X56491Y-17933D01*
X56506Y-17962D01*
X56520Y-17976D01*
X56549Y-17990D01*
X56663Y-17990D01*
X56377Y-17862D02*
X56363Y-17847D01*
X56334Y-17833D01*
X56263Y-17833D01*
X56234Y-17847D01*
X56220Y-17862D01*
X56206Y-17890D01*
X56206Y-17919D01*
X56220Y-17962D01*
X56391Y-18133D01*
X56206Y-18133D01*
X56063Y-18133D02*
X56006Y-18133D01*
X55977Y-18119D01*
X55963Y-18104D01*
X55934Y-18062D01*
X55920Y-18004D01*
X55920Y-17890D01*
X55934Y-17862D01*
X55949Y-17847D01*
X55977Y-17833D01*
X56034Y-17833D01*
X56063Y-17847D01*
X56077Y-17862D01*
X56091Y-17890D01*
X56091Y-17962D01*
X56077Y-17990D01*
X56063Y-18004D01*
X56034Y-18019D01*
X55977Y-18019D01*
X55949Y-18004D01*
X55934Y-17990D01*
X55920Y-17962D01*
X56491Y-19216D02*
X56591Y-19073D01*
X56663Y-19216D02*
X56663Y-18916D01*
X56549Y-18916D01*
X56520Y-18930D01*
X56506Y-18945D01*
X56491Y-18973D01*
X56491Y-19016D01*
X56506Y-19045D01*
X56520Y-19059D01*
X56549Y-19073D01*
X56663Y-19073D01*
X56391Y-18916D02*
X56206Y-18916D01*
X56306Y-19030D01*
X56263Y-19030D01*
X56234Y-19045D01*
X56220Y-19059D01*
X56206Y-19087D01*
X56206Y-19159D01*
X56220Y-19187D01*
X56234Y-19202D01*
X56263Y-19216D01*
X56349Y-19216D01*
X56377Y-19202D01*
X56391Y-19187D01*
X55920Y-19216D02*
X56091Y-19216D01*
X56006Y-19216D02*
X56006Y-18916D01*
X56034Y-18959D01*
X56063Y-18987D01*
X56091Y-19002D01*
X56491Y-20298D02*
X56591Y-20155D01*
X56663Y-20298D02*
X56663Y-19998D01*
X56549Y-19998D01*
X56520Y-20012D01*
X56506Y-20027D01*
X56491Y-20055D01*
X56491Y-20098D01*
X56506Y-20127D01*
X56520Y-20141D01*
X56549Y-20155D01*
X56663Y-20155D01*
X56391Y-19998D02*
X56206Y-19998D01*
X56306Y-20112D01*
X56263Y-20112D01*
X56234Y-20127D01*
X56220Y-20141D01*
X56206Y-20169D01*
X56206Y-20241D01*
X56220Y-20269D01*
X56234Y-20284D01*
X56263Y-20298D01*
X56349Y-20298D01*
X56377Y-20284D01*
X56391Y-20269D01*
X56106Y-19998D02*
X55920Y-19998D01*
X56020Y-20112D01*
X55977Y-20112D01*
X55949Y-20127D01*
X55934Y-20141D01*
X55920Y-20169D01*
X55920Y-20241D01*
X55934Y-20269D01*
X55949Y-20284D01*
X55977Y-20298D01*
X56063Y-20298D01*
X56091Y-20284D01*
X56106Y-20269D01*
X66735Y-16592D02*
X66735Y-16473D01*
X66485Y-16473D01*
X66735Y-16806D02*
X66735Y-16663D01*
X66735Y-16735D02*
X66485Y-16735D01*
X66520Y-16711D01*
X66544Y-16687D01*
X66556Y-16663D01*
X61322Y-16494D02*
X61322Y-16375D01*
X61072Y-16375D01*
X61072Y-16696D02*
X61072Y-16577D01*
X61191Y-16565D01*
X61179Y-16577D01*
X61167Y-16601D01*
X61167Y-16661D01*
X61179Y-16684D01*
X61191Y-16696D01*
X61215Y-16708D01*
X61274Y-16708D01*
X61298Y-16696D01*
X61310Y-16684D01*
X61322Y-16661D01*
X61322Y-16601D01*
X61310Y-16577D01*
X61298Y-16565D01*
G54D17*
X60307Y-37612D02*
X60317Y-37621D01*
X60345Y-37630D01*
X60364Y-37630D01*
X60392Y-37621D01*
X60411Y-37602D01*
X60420Y-37583D01*
X60429Y-37546D01*
X60429Y-37518D01*
X60420Y-37480D01*
X60411Y-37461D01*
X60392Y-37443D01*
X60364Y-37433D01*
X60345Y-37433D01*
X60317Y-37443D01*
X60307Y-37452D01*
X60129Y-37433D02*
X60223Y-37433D01*
X60232Y-37527D01*
X60223Y-37518D01*
X60204Y-37508D01*
X60157Y-37508D01*
X60139Y-37518D01*
X60129Y-37527D01*
X60120Y-37546D01*
X60120Y-37593D01*
X60129Y-37612D01*
X60139Y-37621D01*
X60157Y-37630D01*
X60204Y-37630D01*
X60223Y-37621D01*
X60232Y-37612D01*
X60380Y-36520D02*
X60493Y-36520D01*
X60436Y-36520D02*
X60436Y-36323D01*
X60455Y-36351D01*
X60474Y-36370D01*
X60493Y-36379D01*
X60211Y-36389D02*
X60211Y-36520D01*
X60296Y-36389D02*
X60296Y-36492D01*
X60286Y-36511D01*
X60267Y-36520D01*
X60239Y-36520D01*
X60221Y-36511D01*
X60211Y-36501D01*
X60052Y-36417D02*
X60117Y-36417D01*
X60117Y-36520D02*
X60117Y-36323D01*
X60024Y-36323D01*
M02*
