G04 (created by PCBNEW (2013-mar-13)-testing) date jue 26 sep 2013 04:07:39 COT*
%MOIN*%
G04 Gerber Fmt 3.4, Leading zero omitted, Abs format*
%FSLAX34Y34*%
G01*
G70*
G90*
G04 APERTURE LIST*
%ADD10C,0.005906*%
%ADD11C,0.012000*%
%ADD12C,0.005000*%
%ADD13C,0.015000*%
%ADD14C,0.006000*%
%ADD15C,0.012500*%
%ADD16C,0.002800*%
%ADD17C,0.003900*%
%ADD18C,0.010000*%
%ADD19C,0.007900*%
%ADD20C,0.005900*%
%ADD21C,0.008000*%
%ADD22C,0.004300*%
G04 APERTURE END LIST*
G54D10*
G54D11*
X79053Y-25634D02*
X79081Y-25663D01*
X79110Y-25749D01*
X79110Y-25806D01*
X79081Y-25891D01*
X79024Y-25949D01*
X78967Y-25977D01*
X78853Y-26006D01*
X78767Y-26006D01*
X78653Y-25977D01*
X78596Y-25949D01*
X78539Y-25891D01*
X78510Y-25806D01*
X78510Y-25749D01*
X78539Y-25663D01*
X78567Y-25634D01*
X78796Y-25377D02*
X78796Y-25177D01*
X79110Y-25091D02*
X79110Y-25377D01*
X78510Y-25377D01*
X78510Y-25091D01*
X79081Y-24863D02*
X79110Y-24777D01*
X79110Y-24634D01*
X79081Y-24577D01*
X79053Y-24549D01*
X78996Y-24520D01*
X78939Y-24520D01*
X78881Y-24549D01*
X78853Y-24577D01*
X78824Y-24634D01*
X78796Y-24749D01*
X78767Y-24806D01*
X78739Y-24834D01*
X78681Y-24863D01*
X78624Y-24863D01*
X78567Y-24834D01*
X78539Y-24806D01*
X78510Y-24749D01*
X78510Y-24606D01*
X78539Y-24520D01*
X78939Y-24291D02*
X78939Y-24006D01*
X79110Y-24349D02*
X78510Y-24149D01*
X79110Y-23949D01*
X79110Y-23406D02*
X78824Y-23606D01*
X79110Y-23749D02*
X78510Y-23749D01*
X78510Y-23520D01*
X78539Y-23463D01*
X78567Y-23434D01*
X78624Y-23406D01*
X78710Y-23406D01*
X78767Y-23434D01*
X78796Y-23463D01*
X78824Y-23520D01*
X78824Y-23749D01*
X78939Y-22720D02*
X78939Y-22434D01*
X79110Y-22777D02*
X78510Y-22577D01*
X79110Y-22377D01*
X79053Y-22177D02*
X79081Y-22148D01*
X79110Y-22177D01*
X79081Y-22206D01*
X79053Y-22177D01*
X79110Y-22177D01*
X79110Y-21434D02*
X78510Y-21434D01*
X78510Y-21206D01*
X78539Y-21149D01*
X78567Y-21120D01*
X78624Y-21091D01*
X78710Y-21091D01*
X78767Y-21120D01*
X78796Y-21149D01*
X78824Y-21206D01*
X78824Y-21434D01*
X78939Y-20863D02*
X78939Y-20577D01*
X79110Y-20920D02*
X78510Y-20720D01*
X79110Y-20520D01*
X79110Y-20320D02*
X78510Y-20320D01*
X79110Y-19977D01*
X78510Y-19977D01*
X78510Y-19777D02*
X78510Y-19434D01*
X79110Y-19606D02*
X78510Y-19606D01*
X78510Y-19120D02*
X78510Y-19006D01*
X78539Y-18949D01*
X78596Y-18891D01*
X78710Y-18863D01*
X78910Y-18863D01*
X79024Y-18891D01*
X79081Y-18949D01*
X79110Y-19006D01*
X79110Y-19120D01*
X79081Y-19177D01*
X79024Y-19234D01*
X78910Y-19263D01*
X78710Y-19263D01*
X78596Y-19234D01*
X78539Y-19177D01*
X78510Y-19120D01*
X78510Y-18434D02*
X78939Y-18434D01*
X79024Y-18463D01*
X79081Y-18520D01*
X79110Y-18606D01*
X79110Y-18663D01*
X78939Y-18177D02*
X78939Y-17891D01*
X79110Y-18234D02*
X78510Y-18034D01*
X79110Y-17834D01*
X80041Y-22948D02*
X80070Y-22863D01*
X80070Y-22720D01*
X80041Y-22663D01*
X80013Y-22634D01*
X79956Y-22606D01*
X79899Y-22606D01*
X79841Y-22634D01*
X79813Y-22663D01*
X79784Y-22720D01*
X79756Y-22834D01*
X79727Y-22891D01*
X79699Y-22920D01*
X79641Y-22948D01*
X79584Y-22948D01*
X79527Y-22920D01*
X79499Y-22891D01*
X79470Y-22834D01*
X79470Y-22691D01*
X79499Y-22606D01*
X80070Y-22348D02*
X79470Y-22348D01*
X80070Y-22063D02*
X79470Y-22063D01*
X79899Y-21863D01*
X79470Y-21663D01*
X80070Y-21663D01*
X80070Y-21377D02*
X79470Y-21377D01*
X79899Y-21177D01*
X79470Y-20977D01*
X80070Y-20977D01*
X48641Y-27200D02*
X48041Y-27200D01*
X48470Y-27000D01*
X48041Y-26800D01*
X48641Y-26800D01*
X48641Y-26514D02*
X48241Y-26514D01*
X48041Y-26514D02*
X48070Y-26543D01*
X48098Y-26514D01*
X48070Y-26486D01*
X48041Y-26514D01*
X48098Y-26514D01*
X48241Y-26229D02*
X48641Y-26229D01*
X48298Y-26229D02*
X48270Y-26200D01*
X48241Y-26143D01*
X48241Y-26057D01*
X48270Y-26000D01*
X48327Y-25972D01*
X48641Y-25972D01*
X48641Y-25686D02*
X48241Y-25686D01*
X48041Y-25686D02*
X48070Y-25714D01*
X48098Y-25686D01*
X48070Y-25657D01*
X48041Y-25686D01*
X48098Y-25686D01*
X48612Y-24972D02*
X48641Y-24886D01*
X48641Y-24743D01*
X48612Y-24686D01*
X48584Y-24657D01*
X48527Y-24629D01*
X48470Y-24629D01*
X48412Y-24657D01*
X48384Y-24686D01*
X48355Y-24743D01*
X48327Y-24857D01*
X48298Y-24914D01*
X48270Y-24943D01*
X48212Y-24972D01*
X48155Y-24972D01*
X48098Y-24943D01*
X48070Y-24914D01*
X48041Y-24857D01*
X48041Y-24714D01*
X48070Y-24629D01*
X48241Y-24457D02*
X48241Y-24229D01*
X48041Y-24372D02*
X48555Y-24372D01*
X48612Y-24343D01*
X48641Y-24286D01*
X48641Y-24229D01*
X48641Y-23772D02*
X48327Y-23772D01*
X48270Y-23800D01*
X48241Y-23857D01*
X48241Y-23972D01*
X48270Y-24029D01*
X48612Y-23772D02*
X48641Y-23829D01*
X48641Y-23972D01*
X48612Y-24029D01*
X48555Y-24057D01*
X48498Y-24057D01*
X48441Y-24029D01*
X48412Y-23972D01*
X48412Y-23829D01*
X48384Y-23772D01*
X48641Y-23486D02*
X48241Y-23486D01*
X48298Y-23486D02*
X48270Y-23457D01*
X48241Y-23400D01*
X48241Y-23314D01*
X48270Y-23257D01*
X48327Y-23229D01*
X48641Y-23229D01*
X48327Y-23229D02*
X48270Y-23200D01*
X48241Y-23143D01*
X48241Y-23057D01*
X48270Y-23000D01*
X48327Y-22972D01*
X48641Y-22972D01*
X48241Y-22686D02*
X48841Y-22686D01*
X48270Y-22686D02*
X48241Y-22629D01*
X48241Y-22514D01*
X48270Y-22457D01*
X48298Y-22429D01*
X48355Y-22400D01*
X48527Y-22400D01*
X48584Y-22429D01*
X48612Y-22457D01*
X48641Y-22514D01*
X48641Y-22629D01*
X48612Y-22686D01*
X59646Y-36122D02*
X39371Y-36122D01*
X59646Y-13878D02*
X59646Y-36122D01*
X39371Y-13878D02*
X59646Y-13878D01*
X39371Y-36122D02*
X39371Y-13878D01*
X80512Y-12697D02*
X80512Y-41831D01*
G54D12*
X66028Y-33704D02*
X66028Y-34604D01*
X66028Y-34604D02*
X66678Y-34604D01*
X67378Y-33704D02*
X68028Y-33704D01*
X68028Y-33704D02*
X68028Y-34604D01*
X68028Y-34604D02*
X67378Y-34604D01*
X66678Y-33704D02*
X66028Y-33704D01*
G54D11*
X70276Y-14197D02*
X70276Y-15147D01*
X71176Y-15747D02*
X70876Y-15747D01*
X70876Y-15747D02*
X70826Y-15747D01*
X73276Y-15747D02*
X72926Y-15747D01*
X73876Y-14197D02*
X73876Y-15147D01*
X70276Y-12947D02*
X70276Y-12997D01*
X70276Y-12697D02*
X70276Y-12947D01*
X70276Y-12697D02*
X73876Y-12697D01*
X73876Y-12697D02*
X73876Y-12997D01*
G54D13*
X42102Y-14594D02*
X42102Y-16594D01*
X42102Y-16594D02*
X54102Y-16594D01*
X54102Y-16594D02*
X54102Y-14594D01*
X54102Y-14594D02*
X42102Y-14594D01*
X42102Y-33594D02*
X42102Y-35594D01*
X42102Y-35594D02*
X54102Y-35594D01*
X54102Y-35594D02*
X54102Y-33594D01*
X54102Y-33594D02*
X42102Y-33594D01*
X57114Y-28444D02*
X59114Y-28444D01*
X59114Y-28444D02*
X59114Y-16444D01*
X59114Y-16444D02*
X57114Y-16444D01*
X57114Y-16444D02*
X57114Y-28444D01*
G54D14*
X55090Y-16625D02*
X54090Y-16625D01*
X54090Y-16625D02*
X54090Y-14625D01*
X54090Y-14625D02*
X55090Y-14625D01*
X55090Y-14625D02*
X55090Y-16625D01*
G54D12*
X61125Y-15706D02*
X61125Y-10156D01*
X67025Y-10156D02*
X67025Y-15706D01*
X61125Y-15706D02*
X67025Y-15706D01*
X61125Y-10156D02*
X67025Y-10156D01*
X72990Y-17209D02*
X72090Y-17209D01*
X72090Y-17209D02*
X72090Y-17859D01*
X72990Y-18559D02*
X72990Y-19209D01*
X72990Y-19209D02*
X72090Y-19209D01*
X72090Y-19209D02*
X72090Y-18559D01*
X72990Y-17859D02*
X72990Y-17209D01*
X71710Y-17209D02*
X70810Y-17209D01*
X70810Y-17209D02*
X70810Y-17859D01*
X71710Y-18559D02*
X71710Y-19209D01*
X71710Y-19209D02*
X70810Y-19209D01*
X70810Y-19209D02*
X70810Y-18559D01*
X71710Y-17859D02*
X71710Y-17209D01*
X82438Y-23410D02*
X81538Y-23410D01*
X81538Y-23410D02*
X81538Y-24060D01*
X82438Y-24760D02*
X82438Y-25410D01*
X82438Y-25410D02*
X81538Y-25410D01*
X81538Y-25410D02*
X81538Y-24760D01*
X82438Y-24060D02*
X82438Y-23410D01*
G54D15*
X74925Y-31595D02*
X75425Y-31595D01*
X71925Y-31595D02*
X71425Y-31595D01*
X71925Y-31595D02*
X72225Y-31595D01*
G54D11*
X72225Y-31595D02*
X72225Y-31995D01*
X72225Y-31995D02*
X74625Y-31995D01*
X74625Y-31995D02*
X74625Y-31595D01*
X74625Y-31595D02*
X74925Y-31595D01*
X74625Y-31595D02*
X74625Y-31195D01*
X74625Y-31195D02*
X72225Y-31195D01*
X72225Y-31195D02*
X72225Y-31595D01*
X72425Y-31995D02*
X72425Y-31195D01*
X72525Y-31195D02*
X72525Y-31995D01*
G54D15*
X74925Y-33268D02*
X75425Y-33268D01*
X71925Y-33268D02*
X71425Y-33268D01*
X71925Y-33268D02*
X72225Y-33268D01*
G54D11*
X72225Y-33268D02*
X72225Y-33668D01*
X72225Y-33668D02*
X74625Y-33668D01*
X74625Y-33668D02*
X74625Y-33268D01*
X74625Y-33268D02*
X74925Y-33268D01*
X74625Y-33268D02*
X74625Y-32868D01*
X74625Y-32868D02*
X72225Y-32868D01*
X72225Y-32868D02*
X72225Y-33268D01*
X72425Y-33668D02*
X72425Y-32868D01*
X72525Y-32868D02*
X72525Y-33668D01*
G54D15*
X74925Y-34941D02*
X75425Y-34941D01*
X71925Y-34941D02*
X71425Y-34941D01*
X71925Y-34941D02*
X72225Y-34941D01*
G54D11*
X72225Y-34941D02*
X72225Y-35341D01*
X72225Y-35341D02*
X74625Y-35341D01*
X74625Y-35341D02*
X74625Y-34941D01*
X74625Y-34941D02*
X74925Y-34941D01*
X74625Y-34941D02*
X74625Y-34541D01*
X74625Y-34541D02*
X72225Y-34541D01*
X72225Y-34541D02*
X72225Y-34941D01*
X72425Y-35341D02*
X72425Y-34541D01*
X72525Y-34541D02*
X72525Y-35341D01*
G54D15*
X74925Y-29725D02*
X75425Y-29725D01*
X71925Y-29725D02*
X71425Y-29725D01*
X71925Y-29725D02*
X72225Y-29725D01*
G54D11*
X72225Y-29725D02*
X72225Y-30125D01*
X72225Y-30125D02*
X74625Y-30125D01*
X74625Y-30125D02*
X74625Y-29725D01*
X74625Y-29725D02*
X74925Y-29725D01*
X74625Y-29725D02*
X74625Y-29325D01*
X74625Y-29325D02*
X72225Y-29325D01*
X72225Y-29325D02*
X72225Y-29725D01*
X72425Y-30125D02*
X72425Y-29325D01*
X72525Y-29325D02*
X72525Y-30125D01*
G54D15*
X74925Y-26181D02*
X75425Y-26181D01*
X71925Y-26181D02*
X71425Y-26181D01*
X71925Y-26181D02*
X72225Y-26181D01*
G54D11*
X72225Y-26181D02*
X72225Y-26581D01*
X72225Y-26581D02*
X74625Y-26581D01*
X74625Y-26581D02*
X74625Y-26181D01*
X74625Y-26181D02*
X74925Y-26181D01*
X74625Y-26181D02*
X74625Y-25781D01*
X74625Y-25781D02*
X72225Y-25781D01*
X72225Y-25781D02*
X72225Y-26181D01*
X72425Y-26581D02*
X72425Y-25781D01*
X72525Y-25781D02*
X72525Y-26581D01*
G54D15*
X74925Y-27953D02*
X75425Y-27953D01*
X71925Y-27953D02*
X71425Y-27953D01*
X71925Y-27953D02*
X72225Y-27953D01*
G54D11*
X72225Y-27953D02*
X72225Y-28353D01*
X72225Y-28353D02*
X74625Y-28353D01*
X74625Y-28353D02*
X74625Y-27953D01*
X74625Y-27953D02*
X74925Y-27953D01*
X74625Y-27953D02*
X74625Y-27553D01*
X74625Y-27553D02*
X72225Y-27553D01*
X72225Y-27553D02*
X72225Y-27953D01*
X72425Y-28353D02*
X72425Y-27553D01*
X72525Y-27553D02*
X72525Y-28353D01*
X58465Y-40370D02*
X56465Y-40370D01*
X58465Y-39370D02*
X56465Y-39370D01*
X58465Y-38370D02*
X56465Y-38370D01*
X56465Y-37370D02*
X50465Y-37370D01*
X50465Y-37370D02*
X50465Y-41370D01*
X50465Y-41370D02*
X56465Y-41370D01*
X56465Y-41370D02*
X56465Y-37370D01*
X53465Y-37870D02*
X53465Y-41370D01*
X53465Y-37870D02*
X53465Y-37370D01*
X42945Y-40961D02*
X38945Y-40961D01*
X42945Y-41461D02*
X42945Y-38461D01*
X42945Y-38461D02*
X38945Y-38461D01*
X38945Y-38461D02*
X38945Y-41461D01*
X38945Y-41461D02*
X42945Y-41461D01*
X65370Y-25201D02*
X65370Y-17151D01*
X62870Y-25201D02*
X62870Y-17151D01*
X62870Y-17151D02*
X65870Y-17151D01*
X65870Y-17151D02*
X65870Y-25201D01*
X62870Y-37201D02*
X65870Y-37201D01*
X65370Y-37201D02*
X65370Y-25201D01*
X62870Y-37201D02*
X62870Y-25201D01*
X65870Y-37201D02*
X65870Y-25201D01*
X65370Y-37469D02*
X65370Y-41469D01*
X65870Y-37469D02*
X62870Y-37469D01*
X62870Y-37469D02*
X62870Y-41469D01*
X62870Y-41469D02*
X65870Y-41469D01*
X65870Y-41469D02*
X65870Y-37469D01*
X72208Y-42183D02*
X72958Y-42183D01*
X72958Y-42183D02*
X72958Y-41733D01*
X72208Y-41683D02*
X72208Y-42033D01*
X72208Y-42033D02*
X72208Y-42183D01*
X71858Y-41683D02*
X73408Y-41683D01*
X73408Y-41683D02*
X73458Y-36233D01*
X73458Y-36233D02*
X71858Y-36233D01*
X71858Y-41683D02*
X71858Y-36233D01*
G54D12*
X59630Y-40003D02*
X59630Y-40903D01*
X59630Y-40903D02*
X60280Y-40903D01*
X60980Y-40003D02*
X61630Y-40003D01*
X61630Y-40003D02*
X61630Y-40903D01*
X61630Y-40903D02*
X60980Y-40903D01*
X60280Y-40003D02*
X59630Y-40003D01*
X70613Y-21965D02*
X71513Y-21965D01*
X71513Y-21965D02*
X71513Y-21315D01*
X70613Y-20615D02*
X70613Y-19965D01*
X70613Y-19965D02*
X71513Y-19965D01*
X71513Y-19965D02*
X71513Y-20615D01*
X70613Y-21315D02*
X70613Y-21965D01*
X80693Y-27700D02*
X80693Y-28600D01*
X80693Y-28600D02*
X81343Y-28600D01*
X82043Y-27700D02*
X82693Y-27700D01*
X82693Y-27700D02*
X82693Y-28600D01*
X82693Y-28600D02*
X82043Y-28600D01*
X81343Y-27700D02*
X80693Y-27700D01*
X82465Y-38428D02*
X82465Y-39328D01*
X82465Y-39328D02*
X83115Y-39328D01*
X83815Y-38428D02*
X84465Y-38428D01*
X84465Y-38428D02*
X84465Y-39328D01*
X84465Y-39328D02*
X83815Y-39328D01*
X83115Y-38428D02*
X82465Y-38428D01*
X82465Y-33507D02*
X82465Y-34407D01*
X82465Y-34407D02*
X83115Y-34407D01*
X83815Y-33507D02*
X84465Y-33507D01*
X84465Y-33507D02*
X84465Y-34407D01*
X84465Y-34407D02*
X83815Y-34407D01*
X83115Y-33507D02*
X82465Y-33507D01*
X82465Y-15594D02*
X82465Y-16494D01*
X82465Y-16494D02*
X83115Y-16494D01*
X83815Y-15594D02*
X84465Y-15594D01*
X84465Y-15594D02*
X84465Y-16494D01*
X84465Y-16494D02*
X83815Y-16494D01*
X83115Y-15594D02*
X82465Y-15594D01*
X82465Y-20023D02*
X82465Y-20923D01*
X82465Y-20923D02*
X83115Y-20923D01*
X83815Y-20023D02*
X84465Y-20023D01*
X84465Y-20023D02*
X84465Y-20923D01*
X84465Y-20923D02*
X83815Y-20923D01*
X83115Y-20023D02*
X82465Y-20023D01*
X66028Y-25731D02*
X66028Y-26631D01*
X66028Y-26631D02*
X66678Y-26631D01*
X67378Y-25731D02*
X68028Y-25731D01*
X68028Y-25731D02*
X68028Y-26631D01*
X68028Y-26631D02*
X67378Y-26631D01*
X66678Y-25731D02*
X66028Y-25731D01*
X67307Y-24255D02*
X67307Y-25155D01*
X67307Y-25155D02*
X67957Y-25155D01*
X68657Y-24255D02*
X69307Y-24255D01*
X69307Y-24255D02*
X69307Y-25155D01*
X69307Y-25155D02*
X68657Y-25155D01*
X67957Y-24255D02*
X67307Y-24255D01*
X66028Y-31735D02*
X66028Y-32635D01*
X66028Y-32635D02*
X66678Y-32635D01*
X67378Y-31735D02*
X68028Y-31735D01*
X68028Y-31735D02*
X68028Y-32635D01*
X68028Y-32635D02*
X67378Y-32635D01*
X66678Y-31735D02*
X66028Y-31735D01*
X66028Y-29767D02*
X66028Y-30667D01*
X66028Y-30667D02*
X66678Y-30667D01*
X67378Y-29767D02*
X68028Y-29767D01*
X68028Y-29767D02*
X68028Y-30667D01*
X68028Y-30667D02*
X67378Y-30667D01*
X66678Y-29767D02*
X66028Y-29767D01*
X66028Y-27798D02*
X66028Y-28698D01*
X66028Y-28698D02*
X66678Y-28698D01*
X67378Y-27798D02*
X68028Y-27798D01*
X68028Y-27798D02*
X68028Y-28698D01*
X68028Y-28698D02*
X67378Y-28698D01*
X66678Y-27798D02*
X66028Y-27798D01*
X68488Y-25731D02*
X68488Y-26631D01*
X68488Y-26631D02*
X69138Y-26631D01*
X69838Y-25731D02*
X70488Y-25731D01*
X70488Y-25731D02*
X70488Y-26631D01*
X70488Y-26631D02*
X69838Y-26631D01*
X69138Y-25731D02*
X68488Y-25731D01*
X66028Y-22877D02*
X66028Y-23777D01*
X66028Y-23777D02*
X66678Y-23777D01*
X67378Y-22877D02*
X68028Y-22877D01*
X68028Y-22877D02*
X68028Y-23777D01*
X68028Y-23777D02*
X67378Y-23777D01*
X66678Y-22877D02*
X66028Y-22877D01*
X66028Y-21007D02*
X66028Y-21907D01*
X66028Y-21907D02*
X66678Y-21907D01*
X67378Y-21007D02*
X68028Y-21007D01*
X68028Y-21007D02*
X68028Y-21907D01*
X68028Y-21907D02*
X67378Y-21907D01*
X66678Y-21007D02*
X66028Y-21007D01*
X66028Y-19137D02*
X66028Y-20037D01*
X66028Y-20037D02*
X66678Y-20037D01*
X67378Y-19137D02*
X68028Y-19137D01*
X68028Y-19137D02*
X68028Y-20037D01*
X68028Y-20037D02*
X67378Y-20037D01*
X66678Y-19137D02*
X66028Y-19137D01*
X68390Y-35771D02*
X68390Y-36671D01*
X68390Y-36671D02*
X69040Y-36671D01*
X69740Y-35771D02*
X70390Y-35771D01*
X70390Y-35771D02*
X70390Y-36671D01*
X70390Y-36671D02*
X69740Y-36671D01*
X69040Y-35771D02*
X68390Y-35771D01*
X68488Y-33704D02*
X68488Y-34604D01*
X68488Y-34604D02*
X69138Y-34604D01*
X69838Y-33704D02*
X70488Y-33704D01*
X70488Y-33704D02*
X70488Y-34604D01*
X70488Y-34604D02*
X69838Y-34604D01*
X69138Y-33704D02*
X68488Y-33704D01*
X68488Y-31735D02*
X68488Y-32635D01*
X68488Y-32635D02*
X69138Y-32635D01*
X69838Y-31735D02*
X70488Y-31735D01*
X70488Y-31735D02*
X70488Y-32635D01*
X70488Y-32635D02*
X69838Y-32635D01*
X69138Y-31735D02*
X68488Y-31735D01*
X68488Y-29767D02*
X68488Y-30667D01*
X68488Y-30667D02*
X69138Y-30667D01*
X69838Y-29767D02*
X70488Y-29767D01*
X70488Y-29767D02*
X70488Y-30667D01*
X70488Y-30667D02*
X69838Y-30667D01*
X69138Y-29767D02*
X68488Y-29767D01*
X68488Y-27798D02*
X68488Y-28698D01*
X68488Y-28698D02*
X69138Y-28698D01*
X69838Y-27798D02*
X70488Y-27798D01*
X70488Y-27798D02*
X70488Y-28698D01*
X70488Y-28698D02*
X69838Y-28698D01*
X69138Y-27798D02*
X68488Y-27798D01*
X72162Y-25155D02*
X72162Y-24255D01*
X72162Y-24255D02*
X71512Y-24255D01*
X70812Y-25155D02*
X70162Y-25155D01*
X70162Y-25155D02*
X70162Y-24255D01*
X70162Y-24255D02*
X70812Y-24255D01*
X71512Y-25155D02*
X72162Y-25155D01*
X70587Y-23777D02*
X70587Y-22877D01*
X70587Y-22877D02*
X69937Y-22877D01*
X69237Y-23777D02*
X68587Y-23777D01*
X68587Y-23777D02*
X68587Y-22877D01*
X68587Y-22877D02*
X69237Y-22877D01*
X69937Y-23777D02*
X70587Y-23777D01*
X70390Y-21907D02*
X70390Y-21007D01*
X70390Y-21007D02*
X69740Y-21007D01*
X69040Y-21907D02*
X68390Y-21907D01*
X68390Y-21907D02*
X68390Y-21007D01*
X68390Y-21007D02*
X69040Y-21007D01*
X69740Y-21907D02*
X70390Y-21907D01*
X70390Y-20037D02*
X70390Y-19137D01*
X70390Y-19137D02*
X69740Y-19137D01*
X69040Y-20037D02*
X68390Y-20037D01*
X68390Y-20037D02*
X68390Y-19137D01*
X68390Y-19137D02*
X69040Y-19137D01*
X69740Y-20037D02*
X70390Y-20037D01*
X62221Y-17379D02*
X62221Y-16479D01*
X62221Y-16479D02*
X61571Y-16479D01*
X60871Y-17379D02*
X60221Y-17379D01*
X60221Y-17379D02*
X60221Y-16479D01*
X60221Y-16479D02*
X60871Y-16479D01*
X61571Y-17379D02*
X62221Y-17379D01*
X62221Y-18462D02*
X62221Y-17562D01*
X62221Y-17562D02*
X61571Y-17562D01*
X60871Y-18462D02*
X60221Y-18462D01*
X60221Y-18462D02*
X60221Y-17562D01*
X60221Y-17562D02*
X60871Y-17562D01*
X61571Y-18462D02*
X62221Y-18462D01*
X62221Y-19545D02*
X62221Y-18645D01*
X62221Y-18645D02*
X61571Y-18645D01*
X60871Y-19545D02*
X60221Y-19545D01*
X60221Y-19545D02*
X60221Y-18645D01*
X60221Y-18645D02*
X60871Y-18645D01*
X61571Y-19545D02*
X62221Y-19545D01*
X69632Y-39901D02*
G75*
G03X69632Y-39901I-50J0D01*
G74*
G01*
X69582Y-40351D02*
X69582Y-39951D01*
X69582Y-39951D02*
X70182Y-39951D01*
X70182Y-39951D02*
X70182Y-40351D01*
X70182Y-40751D02*
X70182Y-41151D01*
X70182Y-41151D02*
X69582Y-41151D01*
X69582Y-41151D02*
X69582Y-40751D01*
X75941Y-37855D02*
G75*
G03X75941Y-37855I-50J0D01*
G74*
G01*
X75891Y-37405D02*
X75891Y-37805D01*
X75891Y-37805D02*
X75291Y-37805D01*
X75291Y-37805D02*
X75291Y-37405D01*
X75291Y-37005D02*
X75291Y-36605D01*
X75291Y-36605D02*
X75891Y-36605D01*
X75891Y-36605D02*
X75891Y-37005D01*
X75941Y-41201D02*
G75*
G03X75941Y-41201I-50J0D01*
G74*
G01*
X75891Y-40751D02*
X75891Y-41151D01*
X75891Y-41151D02*
X75291Y-41151D01*
X75291Y-41151D02*
X75291Y-40751D01*
X75291Y-40351D02*
X75291Y-39951D01*
X75291Y-39951D02*
X75891Y-39951D01*
X75891Y-39951D02*
X75891Y-40351D01*
X61330Y-39070D02*
G75*
G03X61330Y-39070I-50J0D01*
G74*
G01*
X60830Y-39070D02*
X61230Y-39070D01*
X61230Y-39070D02*
X61230Y-39670D01*
X61230Y-39670D02*
X60830Y-39670D01*
X60430Y-39670D02*
X60030Y-39670D01*
X60030Y-39670D02*
X60030Y-39070D01*
X60030Y-39070D02*
X60430Y-39070D01*
G54D16*
X40364Y-37436D02*
X40164Y-37436D01*
X40164Y-37436D02*
X40164Y-37736D01*
X40164Y-37736D02*
X40364Y-37736D01*
X40564Y-37436D02*
X40764Y-37436D01*
X40764Y-37436D02*
X40764Y-37736D01*
X40764Y-37736D02*
X40564Y-37736D01*
G54D17*
X80541Y-23999D02*
G75*
G03X80541Y-23999I-50J0D01*
G74*
G01*
X80491Y-24449D02*
X80491Y-24049D01*
X80491Y-24049D02*
X81091Y-24049D01*
X81091Y-24049D02*
X81091Y-24449D01*
X81091Y-24849D02*
X81091Y-25249D01*
X81091Y-25249D02*
X80491Y-25249D01*
X80491Y-25249D02*
X80491Y-24849D01*
G54D12*
X66028Y-35771D02*
X66028Y-36671D01*
X66028Y-36671D02*
X66678Y-36671D01*
X67378Y-35771D02*
X68028Y-35771D01*
X68028Y-35771D02*
X68028Y-36671D01*
X68028Y-36671D02*
X67378Y-36671D01*
X66678Y-35771D02*
X66028Y-35771D01*
X77280Y-36484D02*
X76380Y-36484D01*
X76380Y-36484D02*
X76380Y-37134D01*
X77280Y-37834D02*
X77280Y-38484D01*
X77280Y-38484D02*
X76380Y-38484D01*
X76380Y-38484D02*
X76380Y-37834D01*
X77280Y-37134D02*
X77280Y-36484D01*
X80693Y-28783D02*
X80693Y-29683D01*
X80693Y-29683D02*
X81343Y-29683D01*
X82043Y-28783D02*
X82693Y-28783D01*
X82693Y-28783D02*
X82693Y-29683D01*
X82693Y-29683D02*
X82043Y-29683D01*
X81343Y-28783D02*
X80693Y-28783D01*
X67956Y-41551D02*
X68856Y-41551D01*
X68856Y-41551D02*
X68856Y-40901D01*
X67956Y-40201D02*
X67956Y-39551D01*
X67956Y-39551D02*
X68856Y-39551D01*
X68856Y-39551D02*
X68856Y-40201D01*
X67956Y-40901D02*
X67956Y-41551D01*
G54D18*
X44500Y-39500D02*
X48500Y-39500D01*
X44500Y-40500D02*
X48500Y-40500D01*
X48500Y-40500D02*
X48500Y-39500D01*
X44500Y-39500D02*
X44500Y-40500D01*
G54D12*
X66835Y-35076D02*
X66735Y-34933D01*
X66663Y-35076D02*
X66663Y-34776D01*
X66778Y-34776D01*
X66806Y-34791D01*
X66820Y-34805D01*
X66835Y-34833D01*
X66835Y-34876D01*
X66820Y-34905D01*
X66806Y-34919D01*
X66778Y-34933D01*
X66663Y-34933D01*
X67120Y-35076D02*
X66949Y-35076D01*
X67035Y-35076D02*
X67035Y-34776D01*
X67006Y-34819D01*
X66978Y-34848D01*
X66949Y-34862D01*
X67235Y-34805D02*
X67249Y-34791D01*
X67278Y-34776D01*
X67349Y-34776D01*
X67378Y-34791D01*
X67392Y-34805D01*
X67406Y-34833D01*
X67406Y-34862D01*
X67392Y-34905D01*
X67220Y-35076D01*
X67406Y-35076D01*
G54D18*
X74628Y-17640D02*
X75032Y-17640D01*
X75080Y-17616D01*
X75104Y-17593D01*
X75128Y-17545D01*
X75128Y-17450D01*
X75104Y-17402D01*
X75080Y-17378D01*
X75032Y-17355D01*
X74628Y-17355D01*
X75104Y-17140D02*
X75128Y-17069D01*
X75128Y-16950D01*
X75104Y-16902D01*
X75080Y-16878D01*
X75032Y-16855D01*
X74985Y-16855D01*
X74937Y-16878D01*
X74913Y-16902D01*
X74890Y-16950D01*
X74866Y-17045D01*
X74842Y-17093D01*
X74818Y-17116D01*
X74771Y-17140D01*
X74723Y-17140D01*
X74675Y-17116D01*
X74652Y-17093D01*
X74628Y-17045D01*
X74628Y-16926D01*
X74652Y-16855D01*
X74866Y-16474D02*
X74890Y-16402D01*
X74913Y-16378D01*
X74961Y-16355D01*
X75032Y-16355D01*
X75080Y-16378D01*
X75104Y-16402D01*
X75128Y-16450D01*
X75128Y-16640D01*
X74628Y-16640D01*
X74628Y-16474D01*
X74652Y-16426D01*
X74675Y-16402D01*
X74723Y-16378D01*
X74771Y-16378D01*
X74818Y-16402D01*
X74842Y-16426D01*
X74866Y-16474D01*
X74866Y-16640D01*
X74937Y-16140D02*
X74937Y-15759D01*
X75128Y-15521D02*
X74628Y-15521D01*
X74985Y-15355D01*
X74628Y-15188D01*
X75128Y-15188D01*
X75128Y-14950D02*
X74628Y-14950D01*
X75128Y-14712D02*
X74628Y-14712D01*
X75128Y-14426D01*
X74628Y-14426D01*
X75128Y-14188D02*
X74628Y-14188D01*
X74937Y-13950D02*
X74937Y-13569D01*
X74866Y-13164D02*
X74890Y-13093D01*
X74913Y-13069D01*
X74961Y-13045D01*
X75032Y-13045D01*
X75080Y-13069D01*
X75104Y-13093D01*
X75128Y-13140D01*
X75128Y-13331D01*
X74628Y-13331D01*
X74628Y-13164D01*
X74652Y-13116D01*
X74675Y-13093D01*
X74723Y-13069D01*
X74771Y-13069D01*
X74818Y-13093D01*
X74842Y-13116D01*
X74866Y-13164D01*
X74866Y-13331D01*
G54D19*
X42698Y-17613D02*
X42304Y-17613D01*
X42304Y-17463D01*
X42323Y-17426D01*
X42341Y-17407D01*
X42379Y-17388D01*
X42435Y-17388D01*
X42473Y-17407D01*
X42491Y-17426D01*
X42510Y-17463D01*
X42510Y-17613D01*
X42341Y-17238D02*
X42323Y-17219D01*
X42304Y-17182D01*
X42304Y-17088D01*
X42323Y-17050D01*
X42341Y-17032D01*
X42379Y-17013D01*
X42416Y-17013D01*
X42473Y-17032D01*
X42698Y-17257D01*
X42698Y-17013D01*
X44172Y-33003D02*
X43772Y-33003D01*
X43772Y-32850D01*
X43792Y-32812D01*
X43811Y-32793D01*
X43849Y-32774D01*
X43906Y-32774D01*
X43944Y-32793D01*
X43963Y-32812D01*
X43982Y-32850D01*
X43982Y-33003D01*
X44172Y-32393D02*
X44172Y-32622D01*
X44172Y-32507D02*
X43772Y-32507D01*
X43830Y-32546D01*
X43868Y-32584D01*
X43887Y-32622D01*
G54D18*
X58947Y-29239D02*
X58547Y-29239D01*
X58547Y-29086D01*
X58567Y-29048D01*
X58586Y-29029D01*
X58624Y-29010D01*
X58681Y-29010D01*
X58719Y-29029D01*
X58738Y-29048D01*
X58757Y-29086D01*
X58757Y-29239D01*
X58681Y-28667D02*
X58947Y-28667D01*
X58528Y-28763D02*
X58814Y-28858D01*
X58814Y-28610D01*
G54D20*
X55173Y-15790D02*
X55342Y-15790D01*
X55376Y-15801D01*
X55398Y-15824D01*
X55409Y-15858D01*
X55409Y-15880D01*
X55409Y-15678D02*
X55173Y-15678D01*
X55173Y-15588D01*
X55185Y-15565D01*
X55196Y-15554D01*
X55218Y-15543D01*
X55252Y-15543D01*
X55274Y-15554D01*
X55286Y-15565D01*
X55297Y-15588D01*
X55297Y-15678D01*
X55252Y-15341D02*
X55409Y-15341D01*
X55162Y-15397D02*
X55331Y-15453D01*
X55331Y-15307D01*
G54D11*
X68206Y-13845D02*
X68206Y-14274D01*
X68177Y-14359D01*
X68120Y-14416D01*
X68034Y-14445D01*
X67977Y-14445D01*
X68463Y-13902D02*
X68491Y-13874D01*
X68548Y-13845D01*
X68691Y-13845D01*
X68748Y-13874D01*
X68777Y-13902D01*
X68806Y-13959D01*
X68806Y-14016D01*
X68777Y-14102D01*
X68434Y-14445D01*
X68806Y-14445D01*
X62606Y-16108D02*
X62606Y-16594D01*
X62635Y-16651D01*
X62663Y-16679D01*
X62720Y-16708D01*
X62835Y-16708D01*
X62892Y-16679D01*
X62920Y-16651D01*
X62949Y-16594D01*
X62949Y-16108D01*
X63206Y-16679D02*
X63292Y-16708D01*
X63435Y-16708D01*
X63492Y-16679D01*
X63520Y-16651D01*
X63549Y-16594D01*
X63549Y-16537D01*
X63520Y-16479D01*
X63492Y-16451D01*
X63435Y-16422D01*
X63320Y-16394D01*
X63263Y-16365D01*
X63235Y-16337D01*
X63206Y-16279D01*
X63206Y-16222D01*
X63235Y-16165D01*
X63263Y-16137D01*
X63320Y-16108D01*
X63463Y-16108D01*
X63549Y-16137D01*
X64006Y-16394D02*
X64092Y-16422D01*
X64120Y-16451D01*
X64149Y-16508D01*
X64149Y-16594D01*
X64120Y-16651D01*
X64092Y-16679D01*
X64035Y-16708D01*
X63806Y-16708D01*
X63806Y-16108D01*
X64006Y-16108D01*
X64063Y-16137D01*
X64092Y-16165D01*
X64120Y-16222D01*
X64120Y-16279D01*
X64092Y-16337D01*
X64063Y-16365D01*
X64006Y-16394D01*
X63806Y-16394D01*
X64263Y-16765D02*
X64720Y-16765D01*
X64835Y-16165D02*
X64863Y-16137D01*
X64920Y-16108D01*
X65063Y-16108D01*
X65120Y-16137D01*
X65149Y-16165D01*
X65178Y-16222D01*
X65178Y-16279D01*
X65149Y-16365D01*
X64806Y-16708D01*
X65178Y-16708D01*
G54D12*
X72474Y-20382D02*
X72474Y-20210D01*
X72774Y-20296D02*
X72474Y-20296D01*
X72474Y-20153D02*
X72774Y-20053D01*
X72474Y-19953D01*
X72760Y-19867D02*
X72774Y-19824D01*
X72774Y-19753D01*
X72760Y-19724D01*
X72746Y-19710D01*
X72717Y-19696D01*
X72689Y-19696D01*
X72660Y-19710D01*
X72646Y-19724D01*
X72631Y-19753D01*
X72617Y-19810D01*
X72603Y-19839D01*
X72589Y-19853D01*
X72560Y-19867D01*
X72531Y-19867D01*
X72503Y-19853D01*
X72489Y-19839D01*
X72474Y-19810D01*
X72474Y-19739D01*
X72489Y-19696D01*
X72503Y-19582D02*
X72489Y-19567D01*
X72474Y-19539D01*
X72474Y-19467D01*
X72489Y-19439D01*
X72503Y-19424D01*
X72531Y-19410D01*
X72560Y-19410D01*
X72603Y-19424D01*
X72774Y-19596D01*
X72774Y-19410D01*
X70209Y-18709D02*
X70209Y-18537D01*
X70509Y-18623D02*
X70209Y-18623D01*
X70209Y-18480D02*
X70509Y-18380D01*
X70209Y-18280D01*
X70495Y-18194D02*
X70509Y-18151D01*
X70509Y-18080D01*
X70495Y-18051D01*
X70481Y-18037D01*
X70452Y-18023D01*
X70424Y-18023D01*
X70395Y-18037D01*
X70381Y-18051D01*
X70366Y-18080D01*
X70352Y-18137D01*
X70338Y-18166D01*
X70324Y-18180D01*
X70295Y-18194D01*
X70266Y-18194D01*
X70238Y-18180D01*
X70224Y-18166D01*
X70209Y-18137D01*
X70209Y-18066D01*
X70224Y-18023D01*
X70509Y-17737D02*
X70509Y-17909D01*
X70509Y-17823D02*
X70209Y-17823D01*
X70252Y-17851D01*
X70281Y-17880D01*
X70295Y-17909D01*
X82095Y-25838D02*
X82109Y-25852D01*
X82123Y-25895D01*
X82123Y-25923D01*
X82109Y-25966D01*
X82080Y-25995D01*
X82052Y-26009D01*
X81995Y-26023D01*
X81952Y-26023D01*
X81895Y-26009D01*
X81866Y-25995D01*
X81838Y-25966D01*
X81823Y-25923D01*
X81823Y-25895D01*
X81838Y-25852D01*
X81852Y-25838D01*
X82123Y-25552D02*
X82123Y-25723D01*
X82123Y-25638D02*
X81823Y-25638D01*
X81866Y-25666D01*
X81895Y-25695D01*
X81909Y-25723D01*
G54D21*
X73129Y-30988D02*
X73129Y-30588D01*
X73225Y-30588D01*
X73282Y-30608D01*
X73320Y-30646D01*
X73339Y-30684D01*
X73358Y-30760D01*
X73358Y-30817D01*
X73339Y-30893D01*
X73320Y-30931D01*
X73282Y-30969D01*
X73225Y-30988D01*
X73129Y-30988D01*
X73491Y-30588D02*
X73739Y-30588D01*
X73605Y-30741D01*
X73663Y-30741D01*
X73701Y-30760D01*
X73720Y-30779D01*
X73739Y-30817D01*
X73739Y-30912D01*
X73720Y-30950D01*
X73701Y-30969D01*
X73663Y-30988D01*
X73548Y-30988D01*
X73510Y-30969D01*
X73491Y-30950D01*
X73129Y-32660D02*
X73129Y-32260D01*
X73225Y-32260D01*
X73282Y-32280D01*
X73320Y-32318D01*
X73339Y-32356D01*
X73358Y-32432D01*
X73358Y-32489D01*
X73339Y-32565D01*
X73320Y-32603D01*
X73282Y-32641D01*
X73225Y-32660D01*
X73129Y-32660D01*
X73510Y-32299D02*
X73529Y-32280D01*
X73567Y-32260D01*
X73663Y-32260D01*
X73701Y-32280D01*
X73720Y-32299D01*
X73739Y-32337D01*
X73739Y-32375D01*
X73720Y-32432D01*
X73491Y-32660D01*
X73739Y-32660D01*
X73129Y-34334D02*
X73129Y-33934D01*
X73225Y-33934D01*
X73282Y-33954D01*
X73320Y-33992D01*
X73339Y-34030D01*
X73358Y-34106D01*
X73358Y-34163D01*
X73339Y-34239D01*
X73320Y-34277D01*
X73282Y-34315D01*
X73225Y-34334D01*
X73129Y-34334D01*
X73739Y-34334D02*
X73510Y-34334D01*
X73625Y-34334D02*
X73625Y-33934D01*
X73586Y-33992D01*
X73548Y-34030D01*
X73510Y-34049D01*
X73129Y-29117D02*
X73129Y-28717D01*
X73225Y-28717D01*
X73282Y-28737D01*
X73320Y-28775D01*
X73339Y-28813D01*
X73358Y-28889D01*
X73358Y-28946D01*
X73339Y-29022D01*
X73320Y-29060D01*
X73282Y-29098D01*
X73225Y-29117D01*
X73129Y-29117D01*
X73701Y-28851D02*
X73701Y-29117D01*
X73605Y-28698D02*
X73510Y-28984D01*
X73758Y-28984D01*
X73031Y-25573D02*
X73031Y-25173D01*
X73127Y-25173D01*
X73184Y-25193D01*
X73222Y-25231D01*
X73241Y-25269D01*
X73260Y-25345D01*
X73260Y-25402D01*
X73241Y-25478D01*
X73222Y-25516D01*
X73184Y-25554D01*
X73127Y-25573D01*
X73031Y-25573D01*
X73603Y-25173D02*
X73527Y-25173D01*
X73488Y-25193D01*
X73469Y-25212D01*
X73431Y-25269D01*
X73412Y-25345D01*
X73412Y-25497D01*
X73431Y-25535D01*
X73450Y-25554D01*
X73488Y-25573D01*
X73565Y-25573D01*
X73603Y-25554D01*
X73622Y-25535D01*
X73641Y-25497D01*
X73641Y-25402D01*
X73622Y-25364D01*
X73603Y-25345D01*
X73565Y-25326D01*
X73488Y-25326D01*
X73450Y-25345D01*
X73431Y-25364D01*
X73412Y-25402D01*
X73031Y-27346D02*
X73031Y-26946D01*
X73127Y-26946D01*
X73184Y-26966D01*
X73222Y-27004D01*
X73241Y-27042D01*
X73260Y-27118D01*
X73260Y-27175D01*
X73241Y-27251D01*
X73222Y-27289D01*
X73184Y-27327D01*
X73127Y-27346D01*
X73031Y-27346D01*
X73622Y-26946D02*
X73431Y-26946D01*
X73412Y-27137D01*
X73431Y-27118D01*
X73469Y-27099D01*
X73565Y-27099D01*
X73603Y-27118D01*
X73622Y-27137D01*
X73641Y-27175D01*
X73641Y-27270D01*
X73622Y-27308D01*
X73603Y-27327D01*
X73565Y-27346D01*
X73469Y-27346D01*
X73431Y-27327D01*
X73412Y-27308D01*
X55495Y-39674D02*
X55819Y-39674D01*
X55857Y-39655D01*
X55876Y-39636D01*
X55895Y-39598D01*
X55895Y-39522D01*
X55876Y-39484D01*
X55857Y-39465D01*
X55819Y-39446D01*
X55495Y-39446D01*
X55895Y-39046D02*
X55895Y-39274D01*
X55895Y-39160D02*
X55495Y-39160D01*
X55553Y-39198D01*
X55591Y-39236D01*
X55610Y-39274D01*
X54395Y-40236D02*
X54395Y-40427D01*
X53995Y-40427D01*
X54395Y-40103D02*
X53995Y-40103D01*
X54281Y-39970D01*
X53995Y-39836D01*
X54395Y-39836D01*
X54034Y-39665D02*
X54015Y-39646D01*
X53995Y-39608D01*
X53995Y-39512D01*
X54015Y-39474D01*
X54034Y-39455D01*
X54072Y-39436D01*
X54110Y-39436D01*
X54167Y-39455D01*
X54395Y-39684D01*
X54395Y-39436D01*
X54395Y-39246D02*
X54395Y-39169D01*
X54376Y-39131D01*
X54357Y-39112D01*
X54300Y-39074D01*
X54224Y-39055D01*
X54072Y-39055D01*
X54034Y-39074D01*
X54015Y-39093D01*
X53995Y-39131D01*
X53995Y-39208D01*
X54015Y-39246D01*
X54034Y-39265D01*
X54072Y-39284D01*
X54167Y-39284D01*
X54205Y-39265D01*
X54224Y-39246D01*
X54243Y-39208D01*
X54243Y-39131D01*
X54224Y-39093D01*
X54205Y-39074D01*
X54167Y-39055D01*
X54129Y-38712D02*
X54395Y-38712D01*
X53976Y-38808D02*
X54262Y-38903D01*
X54262Y-38655D01*
X53995Y-38427D02*
X53995Y-38389D01*
X54015Y-38350D01*
X54034Y-38331D01*
X54072Y-38312D01*
X54148Y-38293D01*
X54243Y-38293D01*
X54319Y-38312D01*
X54357Y-38331D01*
X54376Y-38350D01*
X54395Y-38389D01*
X54395Y-38427D01*
X54376Y-38465D01*
X54357Y-38484D01*
X54319Y-38503D01*
X54243Y-38522D01*
X54148Y-38522D01*
X54072Y-38503D01*
X54034Y-38484D01*
X54015Y-38465D01*
X53995Y-38427D01*
G54D11*
X37549Y-40429D02*
X37549Y-39829D01*
X37777Y-39829D01*
X37834Y-39858D01*
X37863Y-39886D01*
X37892Y-39943D01*
X37892Y-40029D01*
X37863Y-40086D01*
X37834Y-40115D01*
X37777Y-40143D01*
X37549Y-40143D01*
X38234Y-40086D02*
X38177Y-40058D01*
X38149Y-40029D01*
X38120Y-39972D01*
X38120Y-39943D01*
X38149Y-39886D01*
X38177Y-39858D01*
X38234Y-39829D01*
X38349Y-39829D01*
X38406Y-39858D01*
X38434Y-39886D01*
X38463Y-39943D01*
X38463Y-39972D01*
X38434Y-40029D01*
X38406Y-40058D01*
X38349Y-40086D01*
X38234Y-40086D01*
X38177Y-40115D01*
X38149Y-40143D01*
X38120Y-40200D01*
X38120Y-40315D01*
X38149Y-40372D01*
X38177Y-40400D01*
X38234Y-40429D01*
X38349Y-40429D01*
X38406Y-40400D01*
X38434Y-40372D01*
X38463Y-40315D01*
X38463Y-40200D01*
X38434Y-40143D01*
X38406Y-40115D01*
X38349Y-40086D01*
X36928Y-39229D02*
X37014Y-39257D01*
X37042Y-39286D01*
X37071Y-39343D01*
X37071Y-39429D01*
X37042Y-39486D01*
X37014Y-39514D01*
X36957Y-39543D01*
X36728Y-39543D01*
X36728Y-38943D01*
X36928Y-38943D01*
X36985Y-38972D01*
X37014Y-39000D01*
X37042Y-39057D01*
X37042Y-39114D01*
X37014Y-39172D01*
X36985Y-39200D01*
X36928Y-39229D01*
X36728Y-39229D01*
X37328Y-39543D02*
X37328Y-38943D01*
X37671Y-39543D01*
X37671Y-38943D01*
X38300Y-39486D02*
X38271Y-39514D01*
X38185Y-39543D01*
X38128Y-39543D01*
X38042Y-39514D01*
X37985Y-39457D01*
X37957Y-39400D01*
X37928Y-39286D01*
X37928Y-39200D01*
X37957Y-39086D01*
X37985Y-39029D01*
X38042Y-38972D01*
X38128Y-38943D01*
X38185Y-38943D01*
X38271Y-38972D01*
X38300Y-39000D01*
X62574Y-28690D02*
X61974Y-28690D01*
X61974Y-28462D01*
X62003Y-28405D01*
X62031Y-28376D01*
X62088Y-28348D01*
X62174Y-28348D01*
X62231Y-28376D01*
X62260Y-28405D01*
X62288Y-28462D01*
X62288Y-28690D01*
X61974Y-28148D02*
X61974Y-27748D01*
X62574Y-28005D01*
X62616Y-35120D02*
X62644Y-35148D01*
X62673Y-35234D01*
X62673Y-35291D01*
X62644Y-35377D01*
X62587Y-35434D01*
X62530Y-35463D01*
X62416Y-35491D01*
X62330Y-35491D01*
X62216Y-35463D01*
X62159Y-35434D01*
X62102Y-35377D01*
X62073Y-35291D01*
X62073Y-35234D01*
X62102Y-35148D01*
X62130Y-35120D01*
X62073Y-34748D02*
X62073Y-34634D01*
X62102Y-34577D01*
X62159Y-34520D01*
X62273Y-34491D01*
X62473Y-34491D01*
X62587Y-34520D01*
X62644Y-34577D01*
X62673Y-34634D01*
X62673Y-34748D01*
X62644Y-34805D01*
X62587Y-34863D01*
X62473Y-34891D01*
X62273Y-34891D01*
X62159Y-34863D01*
X62102Y-34805D01*
X62073Y-34748D01*
X62673Y-34234D02*
X62073Y-34234D01*
X62673Y-33891D01*
X62073Y-33891D01*
X62673Y-33605D02*
X62073Y-33605D01*
X62673Y-33263D01*
X62073Y-33263D01*
X62730Y-33120D02*
X62730Y-32663D01*
X62673Y-32205D02*
X62673Y-32548D01*
X62673Y-32377D02*
X62073Y-32377D01*
X62159Y-32434D01*
X62216Y-32491D01*
X62244Y-32548D01*
X62073Y-31834D02*
X62073Y-31777D01*
X62102Y-31720D01*
X62130Y-31691D01*
X62187Y-31663D01*
X62302Y-31634D01*
X62444Y-31634D01*
X62559Y-31663D01*
X62616Y-31691D01*
X62644Y-31720D01*
X62673Y-31777D01*
X62673Y-31834D01*
X62644Y-31891D01*
X62616Y-31920D01*
X62559Y-31948D01*
X62444Y-31977D01*
X62302Y-31977D01*
X62187Y-31948D01*
X62130Y-31920D01*
X62102Y-31891D01*
X62073Y-31834D01*
X62641Y-39911D02*
X62041Y-39911D01*
X62041Y-39683D01*
X62070Y-39626D01*
X62098Y-39597D01*
X62155Y-39569D01*
X62241Y-39569D01*
X62298Y-39597D01*
X62327Y-39626D01*
X62355Y-39683D01*
X62355Y-39911D01*
X62041Y-39054D02*
X62041Y-39169D01*
X62070Y-39226D01*
X62098Y-39254D01*
X62184Y-39311D01*
X62298Y-39340D01*
X62527Y-39340D01*
X62584Y-39311D01*
X62612Y-39283D01*
X62641Y-39226D01*
X62641Y-39111D01*
X62612Y-39054D01*
X62584Y-39026D01*
X62527Y-38997D01*
X62384Y-38997D01*
X62327Y-39026D01*
X62298Y-39054D01*
X62270Y-39111D01*
X62270Y-39226D01*
X62298Y-39283D01*
X62327Y-39311D01*
X62384Y-39340D01*
X66584Y-40740D02*
X66612Y-40768D01*
X66641Y-40854D01*
X66641Y-40911D01*
X66612Y-40997D01*
X66555Y-41054D01*
X66498Y-41083D01*
X66384Y-41111D01*
X66298Y-41111D01*
X66184Y-41083D01*
X66127Y-41054D01*
X66070Y-40997D01*
X66041Y-40911D01*
X66041Y-40854D01*
X66070Y-40768D01*
X66098Y-40740D01*
X66041Y-40368D02*
X66041Y-40254D01*
X66070Y-40197D01*
X66127Y-40140D01*
X66241Y-40111D01*
X66441Y-40111D01*
X66555Y-40140D01*
X66612Y-40197D01*
X66641Y-40254D01*
X66641Y-40368D01*
X66612Y-40426D01*
X66555Y-40483D01*
X66441Y-40511D01*
X66241Y-40511D01*
X66127Y-40483D01*
X66070Y-40426D01*
X66041Y-40368D01*
X66641Y-39854D02*
X66041Y-39854D01*
X66641Y-39511D01*
X66041Y-39511D01*
X66641Y-39226D02*
X66041Y-39226D01*
X66641Y-38883D01*
X66041Y-38883D01*
X66698Y-38740D02*
X66698Y-38283D01*
X66098Y-38169D02*
X66070Y-38140D01*
X66041Y-38083D01*
X66041Y-37940D01*
X66070Y-37883D01*
X66098Y-37854D01*
X66155Y-37826D01*
X66212Y-37826D01*
X66298Y-37854D01*
X66641Y-38197D01*
X66641Y-37826D01*
G54D18*
X72463Y-37371D02*
X72820Y-37371D01*
X72891Y-37395D01*
X72939Y-37443D01*
X72963Y-37514D01*
X72963Y-37562D01*
X72963Y-36871D02*
X72963Y-37157D01*
X72963Y-37014D02*
X72463Y-37014D01*
X72534Y-37062D01*
X72582Y-37109D01*
X72606Y-37157D01*
X73939Y-40101D02*
X74296Y-40101D01*
X74367Y-40125D01*
X74415Y-40172D01*
X74439Y-40244D01*
X74439Y-40291D01*
X74296Y-39887D02*
X74296Y-39649D01*
X74439Y-39934D02*
X73939Y-39768D01*
X74439Y-39601D01*
X74391Y-39149D02*
X74415Y-39172D01*
X74439Y-39244D01*
X74439Y-39291D01*
X74415Y-39363D01*
X74367Y-39410D01*
X74320Y-39434D01*
X74224Y-39458D01*
X74153Y-39458D01*
X74058Y-39434D01*
X74010Y-39410D01*
X73963Y-39363D01*
X73939Y-39291D01*
X73939Y-39244D01*
X73963Y-39172D01*
X73986Y-39149D01*
X74439Y-38934D02*
X73939Y-38934D01*
X74439Y-38649D02*
X74153Y-38863D01*
X73939Y-38649D02*
X74224Y-38934D01*
X74486Y-38553D02*
X74486Y-38172D01*
X73939Y-38101D02*
X73939Y-37791D01*
X74129Y-37958D01*
X74129Y-37887D01*
X74153Y-37839D01*
X74177Y-37815D01*
X74224Y-37791D01*
X74343Y-37791D01*
X74391Y-37815D01*
X74415Y-37839D01*
X74439Y-37887D01*
X74439Y-38030D01*
X74415Y-38077D01*
X74391Y-38101D01*
X74439Y-37577D02*
X73939Y-37577D01*
X73939Y-37387D01*
X73963Y-37339D01*
X73986Y-37315D01*
X74034Y-37291D01*
X74105Y-37291D01*
X74153Y-37315D01*
X74177Y-37339D01*
X74201Y-37387D01*
X74201Y-37577D01*
G54D12*
X59202Y-40560D02*
X59187Y-40574D01*
X59144Y-40588D01*
X59116Y-40588D01*
X59073Y-40574D01*
X59044Y-40545D01*
X59030Y-40517D01*
X59016Y-40460D01*
X59016Y-40417D01*
X59030Y-40360D01*
X59044Y-40331D01*
X59073Y-40303D01*
X59116Y-40288D01*
X59144Y-40288D01*
X59187Y-40303D01*
X59202Y-40317D01*
X59302Y-40288D02*
X59487Y-40288D01*
X59387Y-40403D01*
X59430Y-40403D01*
X59459Y-40417D01*
X59473Y-40431D01*
X59487Y-40460D01*
X59487Y-40531D01*
X59473Y-40560D01*
X59459Y-40574D01*
X59430Y-40588D01*
X59344Y-40588D01*
X59316Y-40574D01*
X59302Y-40560D01*
X71170Y-22393D02*
X71184Y-22407D01*
X71198Y-22450D01*
X71198Y-22478D01*
X71184Y-22521D01*
X71155Y-22550D01*
X71127Y-22564D01*
X71070Y-22578D01*
X71027Y-22578D01*
X70970Y-22564D01*
X70941Y-22550D01*
X70913Y-22521D01*
X70898Y-22478D01*
X70898Y-22450D01*
X70913Y-22407D01*
X70927Y-22393D01*
X70898Y-22135D02*
X70898Y-22193D01*
X70913Y-22221D01*
X70927Y-22235D01*
X70970Y-22264D01*
X71027Y-22278D01*
X71141Y-22278D01*
X71170Y-22264D01*
X71184Y-22250D01*
X71198Y-22221D01*
X71198Y-22164D01*
X71184Y-22135D01*
X71170Y-22121D01*
X71141Y-22107D01*
X71070Y-22107D01*
X71041Y-22121D01*
X71027Y-22135D01*
X71013Y-22164D01*
X71013Y-22221D01*
X71027Y-22250D01*
X71041Y-22264D01*
X71070Y-22278D01*
X80068Y-28383D02*
X79968Y-28240D01*
X79896Y-28383D02*
X79896Y-28083D01*
X80010Y-28083D01*
X80039Y-28098D01*
X80053Y-28112D01*
X80068Y-28140D01*
X80068Y-28183D01*
X80053Y-28212D01*
X80039Y-28226D01*
X80010Y-28240D01*
X79896Y-28240D01*
X80353Y-28383D02*
X80182Y-28383D01*
X80268Y-28383D02*
X80268Y-28083D01*
X80239Y-28126D01*
X80210Y-28155D01*
X80182Y-28169D01*
X83415Y-38226D02*
X83315Y-38083D01*
X83243Y-38226D02*
X83243Y-37926D01*
X83357Y-37926D01*
X83386Y-37941D01*
X83400Y-37955D01*
X83415Y-37983D01*
X83415Y-38026D01*
X83400Y-38055D01*
X83386Y-38069D01*
X83357Y-38083D01*
X83243Y-38083D01*
X83515Y-37926D02*
X83700Y-37926D01*
X83600Y-38041D01*
X83643Y-38041D01*
X83672Y-38055D01*
X83686Y-38069D01*
X83700Y-38098D01*
X83700Y-38169D01*
X83686Y-38198D01*
X83672Y-38212D01*
X83643Y-38226D01*
X83557Y-38226D01*
X83529Y-38212D01*
X83515Y-38198D01*
X83415Y-33305D02*
X83315Y-33162D01*
X83243Y-33305D02*
X83243Y-33005D01*
X83357Y-33005D01*
X83386Y-33020D01*
X83400Y-33034D01*
X83415Y-33062D01*
X83415Y-33105D01*
X83400Y-33134D01*
X83386Y-33148D01*
X83357Y-33162D01*
X83243Y-33162D01*
X83672Y-33105D02*
X83672Y-33305D01*
X83600Y-32991D02*
X83529Y-33205D01*
X83715Y-33205D01*
X83415Y-15391D02*
X83315Y-15248D01*
X83243Y-15391D02*
X83243Y-15091D01*
X83357Y-15091D01*
X83386Y-15106D01*
X83400Y-15120D01*
X83415Y-15148D01*
X83415Y-15191D01*
X83400Y-15220D01*
X83386Y-15234D01*
X83357Y-15248D01*
X83243Y-15248D01*
X83686Y-15091D02*
X83543Y-15091D01*
X83529Y-15234D01*
X83543Y-15220D01*
X83572Y-15206D01*
X83643Y-15206D01*
X83672Y-15220D01*
X83686Y-15234D01*
X83700Y-15263D01*
X83700Y-15334D01*
X83686Y-15363D01*
X83672Y-15377D01*
X83643Y-15391D01*
X83572Y-15391D01*
X83543Y-15377D01*
X83529Y-15363D01*
X83415Y-19820D02*
X83315Y-19677D01*
X83243Y-19820D02*
X83243Y-19520D01*
X83357Y-19520D01*
X83386Y-19535D01*
X83400Y-19549D01*
X83415Y-19577D01*
X83415Y-19620D01*
X83400Y-19649D01*
X83386Y-19663D01*
X83357Y-19677D01*
X83243Y-19677D01*
X83672Y-19520D02*
X83615Y-19520D01*
X83586Y-19535D01*
X83572Y-19549D01*
X83543Y-19592D01*
X83529Y-19649D01*
X83529Y-19763D01*
X83543Y-19792D01*
X83557Y-19806D01*
X83586Y-19820D01*
X83643Y-19820D01*
X83672Y-19806D01*
X83686Y-19792D01*
X83700Y-19763D01*
X83700Y-19692D01*
X83686Y-19663D01*
X83672Y-19649D01*
X83643Y-19635D01*
X83586Y-19635D01*
X83557Y-19649D01*
X83543Y-19663D01*
X83529Y-19692D01*
X66978Y-27104D02*
X66878Y-26961D01*
X66806Y-27104D02*
X66806Y-26804D01*
X66920Y-26804D01*
X66949Y-26819D01*
X66963Y-26833D01*
X66978Y-26861D01*
X66978Y-26904D01*
X66963Y-26933D01*
X66949Y-26947D01*
X66920Y-26961D01*
X66806Y-26961D01*
X67120Y-27104D02*
X67178Y-27104D01*
X67206Y-27090D01*
X67220Y-27076D01*
X67249Y-27033D01*
X67263Y-26976D01*
X67263Y-26861D01*
X67249Y-26833D01*
X67235Y-26819D01*
X67206Y-26804D01*
X67149Y-26804D01*
X67120Y-26819D01*
X67106Y-26833D01*
X67092Y-26861D01*
X67092Y-26933D01*
X67106Y-26961D01*
X67120Y-26976D01*
X67149Y-26990D01*
X67206Y-26990D01*
X67235Y-26976D01*
X67249Y-26961D01*
X67263Y-26933D01*
X68114Y-25529D02*
X68014Y-25386D01*
X67942Y-25529D02*
X67942Y-25229D01*
X68057Y-25229D01*
X68085Y-25244D01*
X68099Y-25258D01*
X68114Y-25286D01*
X68114Y-25329D01*
X68099Y-25358D01*
X68085Y-25372D01*
X68057Y-25386D01*
X67942Y-25386D01*
X68399Y-25529D02*
X68228Y-25529D01*
X68314Y-25529D02*
X68314Y-25229D01*
X68285Y-25272D01*
X68257Y-25301D01*
X68228Y-25315D01*
X68585Y-25229D02*
X68614Y-25229D01*
X68642Y-25244D01*
X68657Y-25258D01*
X68671Y-25286D01*
X68685Y-25344D01*
X68685Y-25415D01*
X68671Y-25472D01*
X68657Y-25501D01*
X68642Y-25515D01*
X68614Y-25529D01*
X68585Y-25529D01*
X68557Y-25515D01*
X68542Y-25501D01*
X68528Y-25472D01*
X68514Y-25415D01*
X68514Y-25344D01*
X68528Y-25286D01*
X68542Y-25258D01*
X68557Y-25244D01*
X68585Y-25229D01*
X66835Y-33108D02*
X66735Y-32965D01*
X66663Y-33108D02*
X66663Y-32808D01*
X66778Y-32808D01*
X66806Y-32823D01*
X66820Y-32837D01*
X66835Y-32865D01*
X66835Y-32908D01*
X66820Y-32937D01*
X66806Y-32951D01*
X66778Y-32965D01*
X66663Y-32965D01*
X67120Y-33108D02*
X66949Y-33108D01*
X67035Y-33108D02*
X67035Y-32808D01*
X67006Y-32851D01*
X66978Y-32880D01*
X66949Y-32894D01*
X67220Y-32808D02*
X67406Y-32808D01*
X67306Y-32923D01*
X67349Y-32923D01*
X67378Y-32937D01*
X67392Y-32951D01*
X67406Y-32980D01*
X67406Y-33051D01*
X67392Y-33080D01*
X67378Y-33094D01*
X67349Y-33108D01*
X67263Y-33108D01*
X67235Y-33094D01*
X67220Y-33080D01*
X66835Y-31139D02*
X66735Y-30996D01*
X66663Y-31139D02*
X66663Y-30839D01*
X66778Y-30839D01*
X66806Y-30854D01*
X66820Y-30868D01*
X66835Y-30896D01*
X66835Y-30939D01*
X66820Y-30968D01*
X66806Y-30982D01*
X66778Y-30996D01*
X66663Y-30996D01*
X67120Y-31139D02*
X66949Y-31139D01*
X67035Y-31139D02*
X67035Y-30839D01*
X67006Y-30882D01*
X66978Y-30911D01*
X66949Y-30925D01*
X67378Y-30939D02*
X67378Y-31139D01*
X67306Y-30825D02*
X67235Y-31039D01*
X67420Y-31039D01*
X66835Y-29171D02*
X66735Y-29028D01*
X66663Y-29171D02*
X66663Y-28871D01*
X66778Y-28871D01*
X66806Y-28886D01*
X66820Y-28900D01*
X66835Y-28928D01*
X66835Y-28971D01*
X66820Y-29000D01*
X66806Y-29014D01*
X66778Y-29028D01*
X66663Y-29028D01*
X67120Y-29171D02*
X66949Y-29171D01*
X67035Y-29171D02*
X67035Y-28871D01*
X67006Y-28914D01*
X66978Y-28943D01*
X66949Y-28957D01*
X67392Y-28871D02*
X67249Y-28871D01*
X67235Y-29014D01*
X67249Y-29000D01*
X67278Y-28986D01*
X67349Y-28986D01*
X67378Y-29000D01*
X67392Y-29014D01*
X67406Y-29043D01*
X67406Y-29114D01*
X67392Y-29143D01*
X67378Y-29157D01*
X67349Y-29171D01*
X67278Y-29171D01*
X67249Y-29157D01*
X67235Y-29143D01*
X69295Y-27202D02*
X69195Y-27059D01*
X69123Y-27202D02*
X69123Y-26902D01*
X69238Y-26902D01*
X69266Y-26917D01*
X69280Y-26931D01*
X69295Y-26959D01*
X69295Y-27002D01*
X69280Y-27031D01*
X69266Y-27045D01*
X69238Y-27059D01*
X69123Y-27059D01*
X69580Y-27202D02*
X69409Y-27202D01*
X69495Y-27202D02*
X69495Y-26902D01*
X69466Y-26945D01*
X69438Y-26974D01*
X69409Y-26988D01*
X69838Y-26902D02*
X69780Y-26902D01*
X69752Y-26917D01*
X69738Y-26931D01*
X69709Y-26974D01*
X69695Y-27031D01*
X69695Y-27145D01*
X69709Y-27174D01*
X69723Y-27188D01*
X69752Y-27202D01*
X69809Y-27202D01*
X69838Y-27188D01*
X69852Y-27174D01*
X69866Y-27145D01*
X69866Y-27074D01*
X69852Y-27045D01*
X69838Y-27031D01*
X69809Y-27017D01*
X69752Y-27017D01*
X69723Y-27031D01*
X69709Y-27045D01*
X69695Y-27074D01*
X66835Y-24249D02*
X66735Y-24106D01*
X66663Y-24249D02*
X66663Y-23949D01*
X66778Y-23949D01*
X66806Y-23964D01*
X66820Y-23978D01*
X66835Y-24006D01*
X66835Y-24049D01*
X66820Y-24078D01*
X66806Y-24092D01*
X66778Y-24106D01*
X66663Y-24106D01*
X67120Y-24249D02*
X66949Y-24249D01*
X67035Y-24249D02*
X67035Y-23949D01*
X67006Y-23992D01*
X66978Y-24021D01*
X66949Y-24035D01*
X67220Y-23949D02*
X67420Y-23949D01*
X67292Y-24249D01*
X66835Y-22379D02*
X66735Y-22236D01*
X66663Y-22379D02*
X66663Y-22079D01*
X66778Y-22079D01*
X66806Y-22094D01*
X66820Y-22108D01*
X66835Y-22136D01*
X66835Y-22179D01*
X66820Y-22208D01*
X66806Y-22222D01*
X66778Y-22236D01*
X66663Y-22236D01*
X67120Y-22379D02*
X66949Y-22379D01*
X67035Y-22379D02*
X67035Y-22079D01*
X67006Y-22122D01*
X66978Y-22151D01*
X66949Y-22165D01*
X67292Y-22208D02*
X67263Y-22194D01*
X67249Y-22179D01*
X67235Y-22151D01*
X67235Y-22136D01*
X67249Y-22108D01*
X67263Y-22094D01*
X67292Y-22079D01*
X67349Y-22079D01*
X67378Y-22094D01*
X67392Y-22108D01*
X67406Y-22136D01*
X67406Y-22151D01*
X67392Y-22179D01*
X67378Y-22194D01*
X67349Y-22208D01*
X67292Y-22208D01*
X67263Y-22222D01*
X67249Y-22236D01*
X67235Y-22265D01*
X67235Y-22322D01*
X67249Y-22351D01*
X67263Y-22365D01*
X67292Y-22379D01*
X67349Y-22379D01*
X67378Y-22365D01*
X67392Y-22351D01*
X67406Y-22322D01*
X67406Y-22265D01*
X67392Y-22236D01*
X67378Y-22222D01*
X67349Y-22208D01*
X67460Y-20576D02*
X67360Y-20433D01*
X67289Y-20576D02*
X67289Y-20276D01*
X67403Y-20276D01*
X67432Y-20290D01*
X67446Y-20305D01*
X67460Y-20333D01*
X67460Y-20376D01*
X67446Y-20405D01*
X67432Y-20419D01*
X67403Y-20433D01*
X67289Y-20433D01*
X67746Y-20576D02*
X67574Y-20576D01*
X67660Y-20576D02*
X67660Y-20276D01*
X67632Y-20319D01*
X67603Y-20348D01*
X67574Y-20362D01*
X67889Y-20576D02*
X67946Y-20576D01*
X67974Y-20562D01*
X67989Y-20548D01*
X68017Y-20505D01*
X68032Y-20448D01*
X68032Y-20333D01*
X68017Y-20305D01*
X68003Y-20290D01*
X67974Y-20276D01*
X67917Y-20276D01*
X67889Y-20290D01*
X67874Y-20305D01*
X67860Y-20333D01*
X67860Y-20405D01*
X67874Y-20433D01*
X67889Y-20448D01*
X67917Y-20462D01*
X67974Y-20462D01*
X68003Y-20448D01*
X68017Y-20433D01*
X68032Y-20405D01*
X69197Y-37143D02*
X69097Y-37000D01*
X69025Y-37143D02*
X69025Y-36843D01*
X69140Y-36843D01*
X69168Y-36858D01*
X69182Y-36872D01*
X69197Y-36900D01*
X69197Y-36943D01*
X69182Y-36972D01*
X69168Y-36986D01*
X69140Y-37000D01*
X69025Y-37000D01*
X69311Y-36872D02*
X69325Y-36858D01*
X69354Y-36843D01*
X69425Y-36843D01*
X69454Y-36858D01*
X69468Y-36872D01*
X69482Y-36900D01*
X69482Y-36929D01*
X69468Y-36972D01*
X69297Y-37143D01*
X69482Y-37143D01*
X69668Y-36843D02*
X69697Y-36843D01*
X69725Y-36858D01*
X69740Y-36872D01*
X69754Y-36900D01*
X69768Y-36958D01*
X69768Y-37029D01*
X69754Y-37086D01*
X69740Y-37115D01*
X69725Y-37129D01*
X69697Y-37143D01*
X69668Y-37143D01*
X69640Y-37129D01*
X69625Y-37115D01*
X69611Y-37086D01*
X69597Y-37029D01*
X69597Y-36958D01*
X69611Y-36900D01*
X69625Y-36872D01*
X69640Y-36858D01*
X69668Y-36843D01*
X69295Y-35076D02*
X69195Y-34933D01*
X69123Y-35076D02*
X69123Y-34776D01*
X69238Y-34776D01*
X69266Y-34791D01*
X69280Y-34805D01*
X69295Y-34833D01*
X69295Y-34876D01*
X69280Y-34905D01*
X69266Y-34919D01*
X69238Y-34933D01*
X69123Y-34933D01*
X69409Y-34805D02*
X69423Y-34791D01*
X69452Y-34776D01*
X69523Y-34776D01*
X69552Y-34791D01*
X69566Y-34805D01*
X69580Y-34833D01*
X69580Y-34862D01*
X69566Y-34905D01*
X69395Y-35076D01*
X69580Y-35076D01*
X69866Y-35076D02*
X69695Y-35076D01*
X69780Y-35076D02*
X69780Y-34776D01*
X69752Y-34819D01*
X69723Y-34848D01*
X69695Y-34862D01*
X69295Y-33108D02*
X69195Y-32965D01*
X69123Y-33108D02*
X69123Y-32808D01*
X69238Y-32808D01*
X69266Y-32823D01*
X69280Y-32837D01*
X69295Y-32865D01*
X69295Y-32908D01*
X69280Y-32937D01*
X69266Y-32951D01*
X69238Y-32965D01*
X69123Y-32965D01*
X69409Y-32837D02*
X69423Y-32823D01*
X69452Y-32808D01*
X69523Y-32808D01*
X69552Y-32823D01*
X69566Y-32837D01*
X69580Y-32865D01*
X69580Y-32894D01*
X69566Y-32937D01*
X69395Y-33108D01*
X69580Y-33108D01*
X69695Y-32837D02*
X69709Y-32823D01*
X69738Y-32808D01*
X69809Y-32808D01*
X69838Y-32823D01*
X69852Y-32837D01*
X69866Y-32865D01*
X69866Y-32894D01*
X69852Y-32937D01*
X69680Y-33108D01*
X69866Y-33108D01*
X69295Y-31139D02*
X69195Y-30996D01*
X69123Y-31139D02*
X69123Y-30839D01*
X69238Y-30839D01*
X69266Y-30854D01*
X69280Y-30868D01*
X69295Y-30896D01*
X69295Y-30939D01*
X69280Y-30968D01*
X69266Y-30982D01*
X69238Y-30996D01*
X69123Y-30996D01*
X69409Y-30868D02*
X69423Y-30854D01*
X69452Y-30839D01*
X69523Y-30839D01*
X69552Y-30854D01*
X69566Y-30868D01*
X69580Y-30896D01*
X69580Y-30925D01*
X69566Y-30968D01*
X69395Y-31139D01*
X69580Y-31139D01*
X69680Y-30839D02*
X69866Y-30839D01*
X69766Y-30954D01*
X69809Y-30954D01*
X69838Y-30968D01*
X69852Y-30982D01*
X69866Y-31011D01*
X69866Y-31082D01*
X69852Y-31111D01*
X69838Y-31125D01*
X69809Y-31139D01*
X69723Y-31139D01*
X69695Y-31125D01*
X69680Y-31111D01*
X69295Y-29171D02*
X69195Y-29028D01*
X69123Y-29171D02*
X69123Y-28871D01*
X69238Y-28871D01*
X69266Y-28886D01*
X69280Y-28900D01*
X69295Y-28928D01*
X69295Y-28971D01*
X69280Y-29000D01*
X69266Y-29014D01*
X69238Y-29028D01*
X69123Y-29028D01*
X69409Y-28900D02*
X69423Y-28886D01*
X69452Y-28871D01*
X69523Y-28871D01*
X69552Y-28886D01*
X69566Y-28900D01*
X69580Y-28928D01*
X69580Y-28957D01*
X69566Y-29000D01*
X69395Y-29171D01*
X69580Y-29171D01*
X69838Y-28971D02*
X69838Y-29171D01*
X69766Y-28857D02*
X69695Y-29071D01*
X69880Y-29071D01*
X70969Y-25529D02*
X70869Y-25386D01*
X70797Y-25529D02*
X70797Y-25229D01*
X70912Y-25229D01*
X70940Y-25244D01*
X70954Y-25258D01*
X70969Y-25286D01*
X70969Y-25329D01*
X70954Y-25358D01*
X70940Y-25372D01*
X70912Y-25386D01*
X70797Y-25386D01*
X71083Y-25258D02*
X71097Y-25244D01*
X71126Y-25229D01*
X71197Y-25229D01*
X71226Y-25244D01*
X71240Y-25258D01*
X71254Y-25286D01*
X71254Y-25315D01*
X71240Y-25358D01*
X71069Y-25529D01*
X71254Y-25529D01*
X71526Y-25229D02*
X71383Y-25229D01*
X71369Y-25372D01*
X71383Y-25358D01*
X71412Y-25344D01*
X71483Y-25344D01*
X71512Y-25358D01*
X71526Y-25372D01*
X71540Y-25401D01*
X71540Y-25472D01*
X71526Y-25501D01*
X71512Y-25515D01*
X71483Y-25529D01*
X71412Y-25529D01*
X71383Y-25515D01*
X71369Y-25501D01*
X69394Y-24249D02*
X69294Y-24106D01*
X69222Y-24249D02*
X69222Y-23949D01*
X69337Y-23949D01*
X69365Y-23964D01*
X69379Y-23978D01*
X69394Y-24006D01*
X69394Y-24049D01*
X69379Y-24078D01*
X69365Y-24092D01*
X69337Y-24106D01*
X69222Y-24106D01*
X69508Y-23978D02*
X69522Y-23964D01*
X69551Y-23949D01*
X69622Y-23949D01*
X69651Y-23964D01*
X69665Y-23978D01*
X69679Y-24006D01*
X69679Y-24035D01*
X69665Y-24078D01*
X69494Y-24249D01*
X69679Y-24249D01*
X69937Y-23949D02*
X69879Y-23949D01*
X69851Y-23964D01*
X69837Y-23978D01*
X69808Y-24021D01*
X69794Y-24078D01*
X69794Y-24192D01*
X69808Y-24221D01*
X69822Y-24235D01*
X69851Y-24249D01*
X69908Y-24249D01*
X69937Y-24235D01*
X69951Y-24221D01*
X69965Y-24192D01*
X69965Y-24121D01*
X69951Y-24092D01*
X69937Y-24078D01*
X69908Y-24064D01*
X69851Y-24064D01*
X69822Y-24078D01*
X69808Y-24092D01*
X69794Y-24121D01*
X69197Y-22379D02*
X69097Y-22236D01*
X69025Y-22379D02*
X69025Y-22079D01*
X69140Y-22079D01*
X69168Y-22094D01*
X69182Y-22108D01*
X69197Y-22136D01*
X69197Y-22179D01*
X69182Y-22208D01*
X69168Y-22222D01*
X69140Y-22236D01*
X69025Y-22236D01*
X69311Y-22108D02*
X69325Y-22094D01*
X69354Y-22079D01*
X69425Y-22079D01*
X69454Y-22094D01*
X69468Y-22108D01*
X69482Y-22136D01*
X69482Y-22165D01*
X69468Y-22208D01*
X69297Y-22379D01*
X69482Y-22379D01*
X69582Y-22079D02*
X69782Y-22079D01*
X69654Y-22379D01*
X69197Y-20509D02*
X69097Y-20366D01*
X69025Y-20509D02*
X69025Y-20209D01*
X69140Y-20209D01*
X69168Y-20224D01*
X69182Y-20238D01*
X69197Y-20266D01*
X69197Y-20309D01*
X69182Y-20338D01*
X69168Y-20352D01*
X69140Y-20366D01*
X69025Y-20366D01*
X69311Y-20238D02*
X69325Y-20224D01*
X69354Y-20209D01*
X69425Y-20209D01*
X69454Y-20224D01*
X69468Y-20238D01*
X69482Y-20266D01*
X69482Y-20295D01*
X69468Y-20338D01*
X69297Y-20509D01*
X69482Y-20509D01*
X69654Y-20338D02*
X69625Y-20324D01*
X69611Y-20309D01*
X69597Y-20281D01*
X69597Y-20266D01*
X69611Y-20238D01*
X69625Y-20224D01*
X69654Y-20209D01*
X69711Y-20209D01*
X69740Y-20224D01*
X69754Y-20238D01*
X69768Y-20266D01*
X69768Y-20281D01*
X69754Y-20309D01*
X69740Y-20324D01*
X69711Y-20338D01*
X69654Y-20338D01*
X69625Y-20352D01*
X69611Y-20366D01*
X69597Y-20395D01*
X69597Y-20452D01*
X69611Y-20481D01*
X69625Y-20495D01*
X69654Y-20509D01*
X69711Y-20509D01*
X69740Y-20495D01*
X69754Y-20481D01*
X69768Y-20452D01*
X69768Y-20395D01*
X69754Y-20366D01*
X69740Y-20352D01*
X69711Y-20338D01*
X60339Y-20214D02*
X60239Y-20071D01*
X60167Y-20214D02*
X60167Y-19914D01*
X60282Y-19914D01*
X60310Y-19929D01*
X60324Y-19943D01*
X60339Y-19971D01*
X60339Y-20014D01*
X60324Y-20043D01*
X60310Y-20057D01*
X60282Y-20071D01*
X60167Y-20071D01*
X60439Y-19914D02*
X60624Y-19914D01*
X60524Y-20029D01*
X60567Y-20029D01*
X60596Y-20043D01*
X60610Y-20057D01*
X60624Y-20086D01*
X60624Y-20157D01*
X60610Y-20186D01*
X60596Y-20200D01*
X60567Y-20214D01*
X60482Y-20214D01*
X60453Y-20200D01*
X60439Y-20186D01*
X60810Y-19914D02*
X60839Y-19914D01*
X60867Y-19929D01*
X60882Y-19943D01*
X60896Y-19971D01*
X60910Y-20029D01*
X60910Y-20100D01*
X60896Y-20157D01*
X60882Y-20186D01*
X60867Y-20200D01*
X60839Y-20214D01*
X60810Y-20214D01*
X60782Y-20200D01*
X60767Y-20186D01*
X60753Y-20157D01*
X60739Y-20100D01*
X60739Y-20029D01*
X60753Y-19971D01*
X60767Y-19943D01*
X60782Y-19929D01*
X60810Y-19914D01*
X60339Y-21198D02*
X60239Y-21055D01*
X60167Y-21198D02*
X60167Y-20898D01*
X60282Y-20898D01*
X60310Y-20913D01*
X60324Y-20927D01*
X60339Y-20955D01*
X60339Y-20998D01*
X60324Y-21027D01*
X60310Y-21041D01*
X60282Y-21055D01*
X60167Y-21055D01*
X60439Y-20898D02*
X60624Y-20898D01*
X60524Y-21013D01*
X60567Y-21013D01*
X60596Y-21027D01*
X60610Y-21041D01*
X60624Y-21070D01*
X60624Y-21141D01*
X60610Y-21170D01*
X60596Y-21184D01*
X60567Y-21198D01*
X60482Y-21198D01*
X60453Y-21184D01*
X60439Y-21170D01*
X60739Y-20927D02*
X60753Y-20913D01*
X60782Y-20898D01*
X60853Y-20898D01*
X60882Y-20913D01*
X60896Y-20927D01*
X60910Y-20955D01*
X60910Y-20984D01*
X60896Y-21027D01*
X60724Y-21198D01*
X60910Y-21198D01*
X60339Y-20706D02*
X60239Y-20563D01*
X60167Y-20706D02*
X60167Y-20406D01*
X60282Y-20406D01*
X60310Y-20421D01*
X60324Y-20435D01*
X60339Y-20463D01*
X60339Y-20506D01*
X60324Y-20535D01*
X60310Y-20549D01*
X60282Y-20563D01*
X60167Y-20563D01*
X60439Y-20406D02*
X60624Y-20406D01*
X60524Y-20521D01*
X60567Y-20521D01*
X60596Y-20535D01*
X60610Y-20549D01*
X60624Y-20578D01*
X60624Y-20649D01*
X60610Y-20678D01*
X60596Y-20692D01*
X60567Y-20706D01*
X60482Y-20706D01*
X60453Y-20692D01*
X60439Y-20678D01*
X60882Y-20506D02*
X60882Y-20706D01*
X60810Y-20392D02*
X60739Y-20606D01*
X60924Y-20606D01*
X69306Y-40592D02*
X69306Y-40711D01*
X69056Y-40711D01*
X69079Y-40521D02*
X69068Y-40509D01*
X69056Y-40485D01*
X69056Y-40426D01*
X69068Y-40402D01*
X69079Y-40390D01*
X69103Y-40378D01*
X69127Y-40378D01*
X69163Y-40390D01*
X69306Y-40533D01*
X69306Y-40378D01*
X75704Y-36262D02*
X75704Y-36381D01*
X75454Y-36381D01*
X75454Y-36203D02*
X75454Y-36048D01*
X75549Y-36131D01*
X75549Y-36096D01*
X75561Y-36072D01*
X75573Y-36060D01*
X75596Y-36048D01*
X75656Y-36048D01*
X75680Y-36060D01*
X75692Y-36072D01*
X75704Y-36096D01*
X75704Y-36167D01*
X75692Y-36191D01*
X75680Y-36203D01*
X75802Y-39608D02*
X75802Y-39727D01*
X75552Y-39727D01*
X75635Y-39418D02*
X75802Y-39418D01*
X75540Y-39477D02*
X75718Y-39537D01*
X75718Y-39382D01*
X59604Y-39483D02*
X59485Y-39483D01*
X59485Y-39233D01*
X59794Y-39233D02*
X59747Y-39233D01*
X59723Y-39245D01*
X59711Y-39256D01*
X59687Y-39292D01*
X59675Y-39340D01*
X59675Y-39435D01*
X59687Y-39459D01*
X59699Y-39471D01*
X59723Y-39483D01*
X59771Y-39483D01*
X59794Y-39471D01*
X59806Y-39459D01*
X59818Y-39435D01*
X59818Y-39375D01*
X59806Y-39352D01*
X59794Y-39340D01*
X59771Y-39328D01*
X59723Y-39328D01*
X59699Y-39340D01*
X59687Y-39352D01*
X59675Y-39375D01*
G54D16*
X41054Y-37612D02*
X41049Y-37618D01*
X41031Y-37625D01*
X41020Y-37625D01*
X41003Y-37618D01*
X40991Y-37605D01*
X40986Y-37592D01*
X40980Y-37566D01*
X40980Y-37546D01*
X40986Y-37520D01*
X40991Y-37507D01*
X41003Y-37493D01*
X41020Y-37487D01*
X41031Y-37487D01*
X41049Y-37493D01*
X41054Y-37500D01*
X41094Y-37487D02*
X41174Y-37487D01*
X41123Y-37625D01*
G54D22*
X81392Y-24662D02*
X81402Y-24671D01*
X81411Y-24699D01*
X81411Y-24718D01*
X81402Y-24746D01*
X81383Y-24765D01*
X81364Y-24774D01*
X81327Y-24784D01*
X81298Y-24784D01*
X81261Y-24774D01*
X81242Y-24765D01*
X81223Y-24746D01*
X81214Y-24718D01*
X81214Y-24699D01*
X81223Y-24671D01*
X81233Y-24662D01*
X81233Y-24587D02*
X81223Y-24577D01*
X81214Y-24559D01*
X81214Y-24512D01*
X81223Y-24493D01*
X81233Y-24483D01*
X81251Y-24474D01*
X81270Y-24474D01*
X81298Y-24483D01*
X81411Y-24596D01*
X81411Y-24474D01*
X80238Y-24766D02*
X80238Y-24878D01*
X80238Y-24822D02*
X80041Y-24822D01*
X80069Y-24841D01*
X80088Y-24860D01*
X80097Y-24878D01*
X80106Y-24597D02*
X80238Y-24597D01*
X80106Y-24681D02*
X80210Y-24681D01*
X80228Y-24672D01*
X80238Y-24653D01*
X80238Y-24625D01*
X80228Y-24606D01*
X80219Y-24597D01*
X80135Y-24437D02*
X80135Y-24503D01*
X80238Y-24503D02*
X80041Y-24503D01*
X80041Y-24409D01*
G54D12*
X66818Y-37104D02*
X66718Y-36961D01*
X66647Y-37104D02*
X66647Y-36804D01*
X66761Y-36804D01*
X66790Y-36818D01*
X66804Y-36832D01*
X66818Y-36861D01*
X66818Y-36904D01*
X66804Y-36932D01*
X66790Y-36947D01*
X66761Y-36961D01*
X66647Y-36961D01*
X67104Y-37104D02*
X66933Y-37104D01*
X67018Y-37104D02*
X67018Y-36804D01*
X66990Y-36847D01*
X66961Y-36875D01*
X66933Y-36889D01*
X67390Y-37104D02*
X67218Y-37104D01*
X67304Y-37104D02*
X67304Y-36804D01*
X67276Y-36847D01*
X67247Y-36875D01*
X67218Y-36889D01*
X77005Y-36140D02*
X76862Y-36240D01*
X77005Y-36311D02*
X76705Y-36311D01*
X76705Y-36197D01*
X76720Y-36169D01*
X76734Y-36154D01*
X76762Y-36140D01*
X76805Y-36140D01*
X76834Y-36154D01*
X76848Y-36169D01*
X76862Y-36197D01*
X76862Y-36311D01*
X76705Y-36040D02*
X76705Y-35840D01*
X77005Y-35969D01*
X80060Y-29364D02*
X79960Y-29221D01*
X79888Y-29364D02*
X79888Y-29064D01*
X80003Y-29064D01*
X80031Y-29078D01*
X80045Y-29092D01*
X80060Y-29121D01*
X80060Y-29164D01*
X80045Y-29192D01*
X80031Y-29206D01*
X80003Y-29221D01*
X79888Y-29221D01*
X80174Y-29092D02*
X80188Y-29078D01*
X80217Y-29064D01*
X80288Y-29064D01*
X80317Y-29078D01*
X80331Y-29092D01*
X80345Y-29121D01*
X80345Y-29149D01*
X80331Y-29192D01*
X80160Y-29364D01*
X80345Y-29364D01*
X67761Y-40620D02*
X67618Y-40720D01*
X67761Y-40792D02*
X67461Y-40792D01*
X67461Y-40678D01*
X67475Y-40649D01*
X67490Y-40635D01*
X67518Y-40620D01*
X67561Y-40620D01*
X67590Y-40635D01*
X67604Y-40649D01*
X67618Y-40678D01*
X67618Y-40792D01*
X67590Y-40449D02*
X67575Y-40478D01*
X67561Y-40492D01*
X67533Y-40506D01*
X67518Y-40506D01*
X67490Y-40492D01*
X67475Y-40478D01*
X67461Y-40449D01*
X67461Y-40392D01*
X67475Y-40363D01*
X67490Y-40349D01*
X67518Y-40335D01*
X67533Y-40335D01*
X67561Y-40349D01*
X67575Y-40363D01*
X67590Y-40392D01*
X67590Y-40449D01*
X67604Y-40478D01*
X67618Y-40492D01*
X67647Y-40506D01*
X67704Y-40506D01*
X67733Y-40492D01*
X67747Y-40478D01*
X67761Y-40449D01*
X67761Y-40392D01*
X67747Y-40363D01*
X67733Y-40349D01*
X67704Y-40335D01*
X67647Y-40335D01*
X67618Y-40349D01*
X67604Y-40363D01*
X67590Y-40392D01*
G54D21*
X46204Y-41180D02*
X46204Y-40780D01*
X46357Y-40780D01*
X46395Y-40800D01*
X46414Y-40819D01*
X46433Y-40857D01*
X46433Y-40914D01*
X46414Y-40952D01*
X46395Y-40971D01*
X46357Y-40990D01*
X46204Y-40990D01*
X46623Y-41180D02*
X46700Y-41180D01*
X46738Y-41161D01*
X46757Y-41142D01*
X46795Y-41085D01*
X46814Y-41009D01*
X46814Y-40857D01*
X46795Y-40819D01*
X46776Y-40800D01*
X46738Y-40780D01*
X46661Y-40780D01*
X46623Y-40800D01*
X46604Y-40819D01*
X46585Y-40857D01*
X46585Y-40952D01*
X46604Y-40990D01*
X46623Y-41009D01*
X46661Y-41028D01*
X46738Y-41028D01*
X46776Y-41009D01*
X46795Y-40990D01*
X46814Y-40952D01*
M02*
