G04 (created by PCBNEW (2013-june-11)-stable) date lun 19 ago 2013 20:26:36 COT*
%MOIN*%
G04 Gerber Fmt 3.4, Leading zero omitted, Abs format*
%FSLAX34Y34*%
G01*
G70*
G90*
G04 APERTURE LIST*
%ADD10C,0.00590551*%
%ADD11C,0.012*%
%ADD12C,0.005*%
%ADD13C,0.015*%
%ADD14C,0.006*%
%ADD15C,0.0125*%
%ADD16C,0.0028*%
%ADD17C,0.0039*%
%ADD18C,0.01*%
%ADD19C,0.0079*%
%ADD20C,0.0059*%
%ADD21C,0.008*%
%ADD22C,0.0043*%
G04 APERTURE END LIST*
G54D10*
G54D11*
X79024Y-25634D02*
X79053Y-25663D01*
X79081Y-25749D01*
X79081Y-25806D01*
X79053Y-25891D01*
X78996Y-25949D01*
X78939Y-25977D01*
X78824Y-26006D01*
X78739Y-26006D01*
X78624Y-25977D01*
X78567Y-25949D01*
X78510Y-25891D01*
X78481Y-25806D01*
X78481Y-25749D01*
X78510Y-25663D01*
X78539Y-25634D01*
X78767Y-25377D02*
X78767Y-25177D01*
X79081Y-25091D02*
X79081Y-25377D01*
X78481Y-25377D01*
X78481Y-25091D01*
X79053Y-24863D02*
X79081Y-24777D01*
X79081Y-24634D01*
X79053Y-24577D01*
X79024Y-24549D01*
X78967Y-24520D01*
X78910Y-24520D01*
X78853Y-24549D01*
X78824Y-24577D01*
X78796Y-24634D01*
X78767Y-24749D01*
X78739Y-24806D01*
X78710Y-24834D01*
X78653Y-24863D01*
X78596Y-24863D01*
X78539Y-24834D01*
X78510Y-24806D01*
X78481Y-24749D01*
X78481Y-24606D01*
X78510Y-24520D01*
X78910Y-24291D02*
X78910Y-24006D01*
X79081Y-24349D02*
X78481Y-24149D01*
X79081Y-23949D01*
X79081Y-23406D02*
X78796Y-23606D01*
X79081Y-23749D02*
X78481Y-23749D01*
X78481Y-23520D01*
X78510Y-23463D01*
X78539Y-23434D01*
X78596Y-23406D01*
X78681Y-23406D01*
X78739Y-23434D01*
X78767Y-23463D01*
X78796Y-23520D01*
X78796Y-23749D01*
X78910Y-22720D02*
X78910Y-22434D01*
X79081Y-22777D02*
X78481Y-22577D01*
X79081Y-22377D01*
X79024Y-22177D02*
X79053Y-22148D01*
X79081Y-22177D01*
X79053Y-22206D01*
X79024Y-22177D01*
X79081Y-22177D01*
X79081Y-21434D02*
X78481Y-21434D01*
X78481Y-21206D01*
X78510Y-21149D01*
X78539Y-21120D01*
X78596Y-21091D01*
X78681Y-21091D01*
X78739Y-21120D01*
X78767Y-21149D01*
X78796Y-21206D01*
X78796Y-21434D01*
X78910Y-20863D02*
X78910Y-20577D01*
X79081Y-20920D02*
X78481Y-20720D01*
X79081Y-20520D01*
X79081Y-20320D02*
X78481Y-20320D01*
X79081Y-19977D01*
X78481Y-19977D01*
X78481Y-19777D02*
X78481Y-19434D01*
X79081Y-19606D02*
X78481Y-19606D01*
X78481Y-19120D02*
X78481Y-19006D01*
X78510Y-18949D01*
X78567Y-18891D01*
X78681Y-18863D01*
X78881Y-18863D01*
X78996Y-18891D01*
X79053Y-18949D01*
X79081Y-19006D01*
X79081Y-19120D01*
X79053Y-19177D01*
X78996Y-19234D01*
X78881Y-19263D01*
X78681Y-19263D01*
X78567Y-19234D01*
X78510Y-19177D01*
X78481Y-19120D01*
X78481Y-18434D02*
X78910Y-18434D01*
X78996Y-18463D01*
X79053Y-18520D01*
X79081Y-18606D01*
X79081Y-18663D01*
X78910Y-18177D02*
X78910Y-17891D01*
X79081Y-18234D02*
X78481Y-18034D01*
X79081Y-17834D01*
X80013Y-22948D02*
X80041Y-22863D01*
X80041Y-22720D01*
X80013Y-22663D01*
X79984Y-22634D01*
X79927Y-22606D01*
X79870Y-22606D01*
X79813Y-22634D01*
X79784Y-22663D01*
X79756Y-22720D01*
X79727Y-22834D01*
X79699Y-22891D01*
X79670Y-22920D01*
X79613Y-22948D01*
X79556Y-22948D01*
X79499Y-22920D01*
X79470Y-22891D01*
X79441Y-22834D01*
X79441Y-22691D01*
X79470Y-22606D01*
X80041Y-22348D02*
X79441Y-22348D01*
X80041Y-22063D02*
X79441Y-22063D01*
X79870Y-21863D01*
X79441Y-21663D01*
X80041Y-21663D01*
X80041Y-21377D02*
X79441Y-21377D01*
X79870Y-21177D01*
X79441Y-20977D01*
X80041Y-20977D01*
X48612Y-27200D02*
X48012Y-27200D01*
X48441Y-27000D01*
X48012Y-26800D01*
X48612Y-26800D01*
X48612Y-26514D02*
X48212Y-26514D01*
X48012Y-26514D02*
X48041Y-26543D01*
X48070Y-26514D01*
X48041Y-26486D01*
X48012Y-26514D01*
X48070Y-26514D01*
X48212Y-26229D02*
X48612Y-26229D01*
X48270Y-26229D02*
X48241Y-26200D01*
X48212Y-26143D01*
X48212Y-26057D01*
X48241Y-26000D01*
X48298Y-25972D01*
X48612Y-25972D01*
X48612Y-25686D02*
X48212Y-25686D01*
X48012Y-25686D02*
X48041Y-25714D01*
X48070Y-25686D01*
X48041Y-25657D01*
X48012Y-25686D01*
X48070Y-25686D01*
X48584Y-24972D02*
X48612Y-24886D01*
X48612Y-24743D01*
X48584Y-24686D01*
X48555Y-24657D01*
X48498Y-24629D01*
X48441Y-24629D01*
X48384Y-24657D01*
X48355Y-24686D01*
X48327Y-24743D01*
X48298Y-24857D01*
X48270Y-24914D01*
X48241Y-24943D01*
X48184Y-24972D01*
X48127Y-24972D01*
X48070Y-24943D01*
X48041Y-24914D01*
X48012Y-24857D01*
X48012Y-24714D01*
X48041Y-24629D01*
X48212Y-24457D02*
X48212Y-24229D01*
X48012Y-24372D02*
X48527Y-24372D01*
X48584Y-24343D01*
X48612Y-24286D01*
X48612Y-24229D01*
X48612Y-23772D02*
X48298Y-23772D01*
X48241Y-23800D01*
X48212Y-23857D01*
X48212Y-23972D01*
X48241Y-24029D01*
X48584Y-23772D02*
X48612Y-23829D01*
X48612Y-23972D01*
X48584Y-24029D01*
X48527Y-24057D01*
X48470Y-24057D01*
X48412Y-24029D01*
X48384Y-23972D01*
X48384Y-23829D01*
X48355Y-23772D01*
X48612Y-23486D02*
X48212Y-23486D01*
X48270Y-23486D02*
X48241Y-23457D01*
X48212Y-23400D01*
X48212Y-23314D01*
X48241Y-23257D01*
X48298Y-23229D01*
X48612Y-23229D01*
X48298Y-23229D02*
X48241Y-23200D01*
X48212Y-23143D01*
X48212Y-23057D01*
X48241Y-23000D01*
X48298Y-22972D01*
X48612Y-22972D01*
X48212Y-22686D02*
X48812Y-22686D01*
X48241Y-22686D02*
X48212Y-22629D01*
X48212Y-22514D01*
X48241Y-22457D01*
X48270Y-22429D01*
X48327Y-22400D01*
X48498Y-22400D01*
X48555Y-22429D01*
X48584Y-22457D01*
X48612Y-22514D01*
X48612Y-22629D01*
X48584Y-22686D01*
X59646Y-36122D02*
X39371Y-36122D01*
X59646Y-13878D02*
X59646Y-36122D01*
X39371Y-13878D02*
X59646Y-13878D01*
X39371Y-36122D02*
X39371Y-13878D01*
X80512Y-12697D02*
X80512Y-41831D01*
G54D12*
X66028Y-33704D02*
X66028Y-34604D01*
X66028Y-34604D02*
X66678Y-34604D01*
X67378Y-33704D02*
X68028Y-33704D01*
X68028Y-33704D02*
X68028Y-34604D01*
X68028Y-34604D02*
X67378Y-34604D01*
X66678Y-33704D02*
X66028Y-33704D01*
G54D11*
X70276Y-14197D02*
X70276Y-15147D01*
X71176Y-15747D02*
X70876Y-15747D01*
X70876Y-15747D02*
X70826Y-15747D01*
X73276Y-15747D02*
X72926Y-15747D01*
X73876Y-14197D02*
X73876Y-15147D01*
X70276Y-12947D02*
X70276Y-12997D01*
X70276Y-12697D02*
X70276Y-12947D01*
X70276Y-12697D02*
X73876Y-12697D01*
X73876Y-12697D02*
X73876Y-12997D01*
G54D13*
X42102Y-14594D02*
X42102Y-16594D01*
X42102Y-16594D02*
X54102Y-16594D01*
X54102Y-16594D02*
X54102Y-14594D01*
X54102Y-14594D02*
X42102Y-14594D01*
X42102Y-33594D02*
X42102Y-35594D01*
X42102Y-35594D02*
X54102Y-35594D01*
X54102Y-35594D02*
X54102Y-33594D01*
X54102Y-33594D02*
X42102Y-33594D01*
X57114Y-28444D02*
X59114Y-28444D01*
X59114Y-28444D02*
X59114Y-16444D01*
X59114Y-16444D02*
X57114Y-16444D01*
X57114Y-16444D02*
X57114Y-28444D01*
G54D14*
X55090Y-16625D02*
X54090Y-16625D01*
X54090Y-16625D02*
X54090Y-14625D01*
X54090Y-14625D02*
X55090Y-14625D01*
X55090Y-14625D02*
X55090Y-16625D01*
G54D12*
X61125Y-15706D02*
X61125Y-10156D01*
X67025Y-10156D02*
X67025Y-15706D01*
X61125Y-15706D02*
X67025Y-15706D01*
X61125Y-10156D02*
X67025Y-10156D01*
X72990Y-17209D02*
X72090Y-17209D01*
X72090Y-17209D02*
X72090Y-17859D01*
X72990Y-18559D02*
X72990Y-19209D01*
X72990Y-19209D02*
X72090Y-19209D01*
X72090Y-19209D02*
X72090Y-18559D01*
X72990Y-17859D02*
X72990Y-17209D01*
X71710Y-17209D02*
X70810Y-17209D01*
X70810Y-17209D02*
X70810Y-17859D01*
X71710Y-18559D02*
X71710Y-19209D01*
X71710Y-19209D02*
X70810Y-19209D01*
X70810Y-19209D02*
X70810Y-18559D01*
X71710Y-17859D02*
X71710Y-17209D01*
X82438Y-23410D02*
X81538Y-23410D01*
X81538Y-23410D02*
X81538Y-24060D01*
X82438Y-24760D02*
X82438Y-25410D01*
X82438Y-25410D02*
X81538Y-25410D01*
X81538Y-25410D02*
X81538Y-24760D01*
X82438Y-24060D02*
X82438Y-23410D01*
G54D15*
X74925Y-31595D02*
X75425Y-31595D01*
X71925Y-31595D02*
X71425Y-31595D01*
X71925Y-31595D02*
X72225Y-31595D01*
G54D11*
X72225Y-31595D02*
X72225Y-31995D01*
X72225Y-31995D02*
X74625Y-31995D01*
X74625Y-31995D02*
X74625Y-31595D01*
X74625Y-31595D02*
X74925Y-31595D01*
X74625Y-31595D02*
X74625Y-31195D01*
X74625Y-31195D02*
X72225Y-31195D01*
X72225Y-31195D02*
X72225Y-31595D01*
X72425Y-31995D02*
X72425Y-31195D01*
X72525Y-31195D02*
X72525Y-31995D01*
G54D15*
X74925Y-33268D02*
X75425Y-33268D01*
X71925Y-33268D02*
X71425Y-33268D01*
X71925Y-33268D02*
X72225Y-33268D01*
G54D11*
X72225Y-33268D02*
X72225Y-33668D01*
X72225Y-33668D02*
X74625Y-33668D01*
X74625Y-33668D02*
X74625Y-33268D01*
X74625Y-33268D02*
X74925Y-33268D01*
X74625Y-33268D02*
X74625Y-32868D01*
X74625Y-32868D02*
X72225Y-32868D01*
X72225Y-32868D02*
X72225Y-33268D01*
X72425Y-33668D02*
X72425Y-32868D01*
X72525Y-32868D02*
X72525Y-33668D01*
G54D15*
X74925Y-34941D02*
X75425Y-34941D01*
X71925Y-34941D02*
X71425Y-34941D01*
X71925Y-34941D02*
X72225Y-34941D01*
G54D11*
X72225Y-34941D02*
X72225Y-35341D01*
X72225Y-35341D02*
X74625Y-35341D01*
X74625Y-35341D02*
X74625Y-34941D01*
X74625Y-34941D02*
X74925Y-34941D01*
X74625Y-34941D02*
X74625Y-34541D01*
X74625Y-34541D02*
X72225Y-34541D01*
X72225Y-34541D02*
X72225Y-34941D01*
X72425Y-35341D02*
X72425Y-34541D01*
X72525Y-34541D02*
X72525Y-35341D01*
G54D15*
X74925Y-29725D02*
X75425Y-29725D01*
X71925Y-29725D02*
X71425Y-29725D01*
X71925Y-29725D02*
X72225Y-29725D01*
G54D11*
X72225Y-29725D02*
X72225Y-30125D01*
X72225Y-30125D02*
X74625Y-30125D01*
X74625Y-30125D02*
X74625Y-29725D01*
X74625Y-29725D02*
X74925Y-29725D01*
X74625Y-29725D02*
X74625Y-29325D01*
X74625Y-29325D02*
X72225Y-29325D01*
X72225Y-29325D02*
X72225Y-29725D01*
X72425Y-30125D02*
X72425Y-29325D01*
X72525Y-29325D02*
X72525Y-30125D01*
G54D15*
X74925Y-26181D02*
X75425Y-26181D01*
X71925Y-26181D02*
X71425Y-26181D01*
X71925Y-26181D02*
X72225Y-26181D01*
G54D11*
X72225Y-26181D02*
X72225Y-26581D01*
X72225Y-26581D02*
X74625Y-26581D01*
X74625Y-26581D02*
X74625Y-26181D01*
X74625Y-26181D02*
X74925Y-26181D01*
X74625Y-26181D02*
X74625Y-25781D01*
X74625Y-25781D02*
X72225Y-25781D01*
X72225Y-25781D02*
X72225Y-26181D01*
X72425Y-26581D02*
X72425Y-25781D01*
X72525Y-25781D02*
X72525Y-26581D01*
G54D15*
X74925Y-27953D02*
X75425Y-27953D01*
X71925Y-27953D02*
X71425Y-27953D01*
X71925Y-27953D02*
X72225Y-27953D01*
G54D11*
X72225Y-27953D02*
X72225Y-28353D01*
X72225Y-28353D02*
X74625Y-28353D01*
X74625Y-28353D02*
X74625Y-27953D01*
X74625Y-27953D02*
X74925Y-27953D01*
X74625Y-27953D02*
X74625Y-27553D01*
X74625Y-27553D02*
X72225Y-27553D01*
X72225Y-27553D02*
X72225Y-27953D01*
X72425Y-28353D02*
X72425Y-27553D01*
X72525Y-27553D02*
X72525Y-28353D01*
X58465Y-40370D02*
X56465Y-40370D01*
X58465Y-39370D02*
X56465Y-39370D01*
X58465Y-38370D02*
X56465Y-38370D01*
X56465Y-37370D02*
X50465Y-37370D01*
X50465Y-37370D02*
X50465Y-41370D01*
X50465Y-41370D02*
X56465Y-41370D01*
X56465Y-41370D02*
X56465Y-37370D01*
X53465Y-37870D02*
X53465Y-41370D01*
X53465Y-37870D02*
X53465Y-37370D01*
G54D14*
X44662Y-40461D02*
X44662Y-39461D01*
X44662Y-39461D02*
X47662Y-39461D01*
X47662Y-39461D02*
X47662Y-40461D01*
X47662Y-40461D02*
X44662Y-40461D01*
X45662Y-39461D02*
X45662Y-40461D01*
G54D11*
X42945Y-40961D02*
X38945Y-40961D01*
X42945Y-41461D02*
X42945Y-38461D01*
X42945Y-38461D02*
X38945Y-38461D01*
X38945Y-38461D02*
X38945Y-41461D01*
X38945Y-41461D02*
X42945Y-41461D01*
X65370Y-25201D02*
X65370Y-17151D01*
X62870Y-25201D02*
X62870Y-17151D01*
X62870Y-17151D02*
X65870Y-17151D01*
X65870Y-17151D02*
X65870Y-25201D01*
X62870Y-37201D02*
X65870Y-37201D01*
X65370Y-37201D02*
X65370Y-25201D01*
X62870Y-37201D02*
X62870Y-25201D01*
X65870Y-37201D02*
X65870Y-25201D01*
X65370Y-37469D02*
X65370Y-41469D01*
X65870Y-37469D02*
X62870Y-37469D01*
X62870Y-37469D02*
X62870Y-41469D01*
X62870Y-41469D02*
X65870Y-41469D01*
X65870Y-41469D02*
X65870Y-37469D01*
X72208Y-42183D02*
X72958Y-42183D01*
X72958Y-42183D02*
X72958Y-41733D01*
X72208Y-41683D02*
X72208Y-42033D01*
X72208Y-42033D02*
X72208Y-42183D01*
X71858Y-41683D02*
X73408Y-41683D01*
X73408Y-41683D02*
X73458Y-36233D01*
X73458Y-36233D02*
X71858Y-36233D01*
X71858Y-41683D02*
X71858Y-36233D01*
G54D12*
X59630Y-40003D02*
X59630Y-40903D01*
X59630Y-40903D02*
X60280Y-40903D01*
X60980Y-40003D02*
X61630Y-40003D01*
X61630Y-40003D02*
X61630Y-40903D01*
X61630Y-40903D02*
X60980Y-40903D01*
X60280Y-40003D02*
X59630Y-40003D01*
X70613Y-21965D02*
X71513Y-21965D01*
X71513Y-21965D02*
X71513Y-21315D01*
X70613Y-20615D02*
X70613Y-19965D01*
X70613Y-19965D02*
X71513Y-19965D01*
X71513Y-19965D02*
X71513Y-20615D01*
X70613Y-21315D02*
X70613Y-21965D01*
X80693Y-27700D02*
X80693Y-28600D01*
X80693Y-28600D02*
X81343Y-28600D01*
X82043Y-27700D02*
X82693Y-27700D01*
X82693Y-27700D02*
X82693Y-28600D01*
X82693Y-28600D02*
X82043Y-28600D01*
X81343Y-27700D02*
X80693Y-27700D01*
X82465Y-38428D02*
X82465Y-39328D01*
X82465Y-39328D02*
X83115Y-39328D01*
X83815Y-38428D02*
X84465Y-38428D01*
X84465Y-38428D02*
X84465Y-39328D01*
X84465Y-39328D02*
X83815Y-39328D01*
X83115Y-38428D02*
X82465Y-38428D01*
X82465Y-33507D02*
X82465Y-34407D01*
X82465Y-34407D02*
X83115Y-34407D01*
X83815Y-33507D02*
X84465Y-33507D01*
X84465Y-33507D02*
X84465Y-34407D01*
X84465Y-34407D02*
X83815Y-34407D01*
X83115Y-33507D02*
X82465Y-33507D01*
X82465Y-15594D02*
X82465Y-16494D01*
X82465Y-16494D02*
X83115Y-16494D01*
X83815Y-15594D02*
X84465Y-15594D01*
X84465Y-15594D02*
X84465Y-16494D01*
X84465Y-16494D02*
X83815Y-16494D01*
X83115Y-15594D02*
X82465Y-15594D01*
X82465Y-20023D02*
X82465Y-20923D01*
X82465Y-20923D02*
X83115Y-20923D01*
X83815Y-20023D02*
X84465Y-20023D01*
X84465Y-20023D02*
X84465Y-20923D01*
X84465Y-20923D02*
X83815Y-20923D01*
X83115Y-20023D02*
X82465Y-20023D01*
X66028Y-25731D02*
X66028Y-26631D01*
X66028Y-26631D02*
X66678Y-26631D01*
X67378Y-25731D02*
X68028Y-25731D01*
X68028Y-25731D02*
X68028Y-26631D01*
X68028Y-26631D02*
X67378Y-26631D01*
X66678Y-25731D02*
X66028Y-25731D01*
X67307Y-24255D02*
X67307Y-25155D01*
X67307Y-25155D02*
X67957Y-25155D01*
X68657Y-24255D02*
X69307Y-24255D01*
X69307Y-24255D02*
X69307Y-25155D01*
X69307Y-25155D02*
X68657Y-25155D01*
X67957Y-24255D02*
X67307Y-24255D01*
X66028Y-31735D02*
X66028Y-32635D01*
X66028Y-32635D02*
X66678Y-32635D01*
X67378Y-31735D02*
X68028Y-31735D01*
X68028Y-31735D02*
X68028Y-32635D01*
X68028Y-32635D02*
X67378Y-32635D01*
X66678Y-31735D02*
X66028Y-31735D01*
X66028Y-29767D02*
X66028Y-30667D01*
X66028Y-30667D02*
X66678Y-30667D01*
X67378Y-29767D02*
X68028Y-29767D01*
X68028Y-29767D02*
X68028Y-30667D01*
X68028Y-30667D02*
X67378Y-30667D01*
X66678Y-29767D02*
X66028Y-29767D01*
X66028Y-27798D02*
X66028Y-28698D01*
X66028Y-28698D02*
X66678Y-28698D01*
X67378Y-27798D02*
X68028Y-27798D01*
X68028Y-27798D02*
X68028Y-28698D01*
X68028Y-28698D02*
X67378Y-28698D01*
X66678Y-27798D02*
X66028Y-27798D01*
X68488Y-25731D02*
X68488Y-26631D01*
X68488Y-26631D02*
X69138Y-26631D01*
X69838Y-25731D02*
X70488Y-25731D01*
X70488Y-25731D02*
X70488Y-26631D01*
X70488Y-26631D02*
X69838Y-26631D01*
X69138Y-25731D02*
X68488Y-25731D01*
X66028Y-22877D02*
X66028Y-23777D01*
X66028Y-23777D02*
X66678Y-23777D01*
X67378Y-22877D02*
X68028Y-22877D01*
X68028Y-22877D02*
X68028Y-23777D01*
X68028Y-23777D02*
X67378Y-23777D01*
X66678Y-22877D02*
X66028Y-22877D01*
X66028Y-21007D02*
X66028Y-21907D01*
X66028Y-21907D02*
X66678Y-21907D01*
X67378Y-21007D02*
X68028Y-21007D01*
X68028Y-21007D02*
X68028Y-21907D01*
X68028Y-21907D02*
X67378Y-21907D01*
X66678Y-21007D02*
X66028Y-21007D01*
X66028Y-19137D02*
X66028Y-20037D01*
X66028Y-20037D02*
X66678Y-20037D01*
X67378Y-19137D02*
X68028Y-19137D01*
X68028Y-19137D02*
X68028Y-20037D01*
X68028Y-20037D02*
X67378Y-20037D01*
X66678Y-19137D02*
X66028Y-19137D01*
X68390Y-35771D02*
X68390Y-36671D01*
X68390Y-36671D02*
X69040Y-36671D01*
X69740Y-35771D02*
X70390Y-35771D01*
X70390Y-35771D02*
X70390Y-36671D01*
X70390Y-36671D02*
X69740Y-36671D01*
X69040Y-35771D02*
X68390Y-35771D01*
X68488Y-33704D02*
X68488Y-34604D01*
X68488Y-34604D02*
X69138Y-34604D01*
X69838Y-33704D02*
X70488Y-33704D01*
X70488Y-33704D02*
X70488Y-34604D01*
X70488Y-34604D02*
X69838Y-34604D01*
X69138Y-33704D02*
X68488Y-33704D01*
X68488Y-31735D02*
X68488Y-32635D01*
X68488Y-32635D02*
X69138Y-32635D01*
X69838Y-31735D02*
X70488Y-31735D01*
X70488Y-31735D02*
X70488Y-32635D01*
X70488Y-32635D02*
X69838Y-32635D01*
X69138Y-31735D02*
X68488Y-31735D01*
X68488Y-29767D02*
X68488Y-30667D01*
X68488Y-30667D02*
X69138Y-30667D01*
X69838Y-29767D02*
X70488Y-29767D01*
X70488Y-29767D02*
X70488Y-30667D01*
X70488Y-30667D02*
X69838Y-30667D01*
X69138Y-29767D02*
X68488Y-29767D01*
X68488Y-27798D02*
X68488Y-28698D01*
X68488Y-28698D02*
X69138Y-28698D01*
X69838Y-27798D02*
X70488Y-27798D01*
X70488Y-27798D02*
X70488Y-28698D01*
X70488Y-28698D02*
X69838Y-28698D01*
X69138Y-27798D02*
X68488Y-27798D01*
X72162Y-25155D02*
X72162Y-24255D01*
X72162Y-24255D02*
X71512Y-24255D01*
X70812Y-25155D02*
X70162Y-25155D01*
X70162Y-25155D02*
X70162Y-24255D01*
X70162Y-24255D02*
X70812Y-24255D01*
X71512Y-25155D02*
X72162Y-25155D01*
X70587Y-23777D02*
X70587Y-22877D01*
X70587Y-22877D02*
X69937Y-22877D01*
X69237Y-23777D02*
X68587Y-23777D01*
X68587Y-23777D02*
X68587Y-22877D01*
X68587Y-22877D02*
X69237Y-22877D01*
X69937Y-23777D02*
X70587Y-23777D01*
X70390Y-21907D02*
X70390Y-21007D01*
X70390Y-21007D02*
X69740Y-21007D01*
X69040Y-21907D02*
X68390Y-21907D01*
X68390Y-21907D02*
X68390Y-21007D01*
X68390Y-21007D02*
X69040Y-21007D01*
X69740Y-21907D02*
X70390Y-21907D01*
X70390Y-20037D02*
X70390Y-19137D01*
X70390Y-19137D02*
X69740Y-19137D01*
X69040Y-20037D02*
X68390Y-20037D01*
X68390Y-20037D02*
X68390Y-19137D01*
X68390Y-19137D02*
X69040Y-19137D01*
X69740Y-20037D02*
X70390Y-20037D01*
X62221Y-17379D02*
X62221Y-16479D01*
X62221Y-16479D02*
X61571Y-16479D01*
X60871Y-17379D02*
X60221Y-17379D01*
X60221Y-17379D02*
X60221Y-16479D01*
X60221Y-16479D02*
X60871Y-16479D01*
X61571Y-17379D02*
X62221Y-17379D01*
X62221Y-18462D02*
X62221Y-17562D01*
X62221Y-17562D02*
X61571Y-17562D01*
X60871Y-18462D02*
X60221Y-18462D01*
X60221Y-18462D02*
X60221Y-17562D01*
X60221Y-17562D02*
X60871Y-17562D01*
X61571Y-18462D02*
X62221Y-18462D01*
X62221Y-19545D02*
X62221Y-18645D01*
X62221Y-18645D02*
X61571Y-18645D01*
X60871Y-19545D02*
X60221Y-19545D01*
X60221Y-19545D02*
X60221Y-18645D01*
X60221Y-18645D02*
X60871Y-18645D01*
X61571Y-19545D02*
X62221Y-19545D01*
X69632Y-39901D02*
G75*
G03X69632Y-39901I-50J0D01*
G74*
G01*
X69582Y-40351D02*
X69582Y-39951D01*
X69582Y-39951D02*
X70182Y-39951D01*
X70182Y-39951D02*
X70182Y-40351D01*
X70182Y-40751D02*
X70182Y-41151D01*
X70182Y-41151D02*
X69582Y-41151D01*
X69582Y-41151D02*
X69582Y-40751D01*
X75941Y-37855D02*
G75*
G03X75941Y-37855I-50J0D01*
G74*
G01*
X75891Y-37405D02*
X75891Y-37805D01*
X75891Y-37805D02*
X75291Y-37805D01*
X75291Y-37805D02*
X75291Y-37405D01*
X75291Y-37005D02*
X75291Y-36605D01*
X75291Y-36605D02*
X75891Y-36605D01*
X75891Y-36605D02*
X75891Y-37005D01*
X75941Y-41201D02*
G75*
G03X75941Y-41201I-50J0D01*
G74*
G01*
X75891Y-40751D02*
X75891Y-41151D01*
X75891Y-41151D02*
X75291Y-41151D01*
X75291Y-41151D02*
X75291Y-40751D01*
X75291Y-40351D02*
X75291Y-39951D01*
X75291Y-39951D02*
X75891Y-39951D01*
X75891Y-39951D02*
X75891Y-40351D01*
X61330Y-39070D02*
G75*
G03X61330Y-39070I-50J0D01*
G74*
G01*
X60830Y-39070D02*
X61230Y-39070D01*
X61230Y-39070D02*
X61230Y-39670D01*
X61230Y-39670D02*
X60830Y-39670D01*
X60430Y-39670D02*
X60030Y-39670D01*
X60030Y-39670D02*
X60030Y-39070D01*
X60030Y-39070D02*
X60430Y-39070D01*
G54D16*
X40364Y-37436D02*
X40164Y-37436D01*
X40164Y-37436D02*
X40164Y-37736D01*
X40164Y-37736D02*
X40364Y-37736D01*
X40564Y-37436D02*
X40764Y-37436D01*
X40764Y-37436D02*
X40764Y-37736D01*
X40764Y-37736D02*
X40564Y-37736D01*
G54D17*
X80541Y-23999D02*
G75*
G03X80541Y-23999I-50J0D01*
G74*
G01*
X80491Y-24449D02*
X80491Y-24049D01*
X80491Y-24049D02*
X81091Y-24049D01*
X81091Y-24049D02*
X81091Y-24449D01*
X81091Y-24849D02*
X81091Y-25249D01*
X81091Y-25249D02*
X80491Y-25249D01*
X80491Y-25249D02*
X80491Y-24849D01*
G54D12*
X66028Y-35771D02*
X66028Y-36671D01*
X66028Y-36671D02*
X66678Y-36671D01*
X67378Y-35771D02*
X68028Y-35771D01*
X68028Y-35771D02*
X68028Y-36671D01*
X68028Y-36671D02*
X67378Y-36671D01*
X66678Y-35771D02*
X66028Y-35771D01*
X77280Y-36484D02*
X76380Y-36484D01*
X76380Y-36484D02*
X76380Y-37134D01*
X77280Y-37834D02*
X77280Y-38484D01*
X77280Y-38484D02*
X76380Y-38484D01*
X76380Y-38484D02*
X76380Y-37834D01*
X77280Y-37134D02*
X77280Y-36484D01*
X80693Y-28783D02*
X80693Y-29683D01*
X80693Y-29683D02*
X81343Y-29683D01*
X82043Y-28783D02*
X82693Y-28783D01*
X82693Y-28783D02*
X82693Y-29683D01*
X82693Y-29683D02*
X82043Y-29683D01*
X81343Y-28783D02*
X80693Y-28783D01*
X67956Y-41551D02*
X68856Y-41551D01*
X68856Y-41551D02*
X68856Y-40901D01*
X67956Y-40201D02*
X67956Y-39551D01*
X67956Y-39551D02*
X68856Y-39551D01*
X68856Y-39551D02*
X68856Y-40201D01*
X67956Y-40901D02*
X67956Y-41551D01*
X66835Y-35062D02*
X66735Y-34919D01*
X66663Y-35062D02*
X66663Y-34762D01*
X66778Y-34762D01*
X66806Y-34776D01*
X66820Y-34791D01*
X66835Y-34819D01*
X66835Y-34862D01*
X66820Y-34891D01*
X66806Y-34905D01*
X66778Y-34919D01*
X66663Y-34919D01*
X67120Y-35062D02*
X66949Y-35062D01*
X67035Y-35062D02*
X67035Y-34762D01*
X67006Y-34805D01*
X66978Y-34833D01*
X66949Y-34848D01*
X67235Y-34791D02*
X67249Y-34776D01*
X67278Y-34762D01*
X67349Y-34762D01*
X67378Y-34776D01*
X67392Y-34791D01*
X67406Y-34819D01*
X67406Y-34848D01*
X67392Y-34891D01*
X67220Y-35062D01*
X67406Y-35062D01*
G54D18*
X74604Y-17640D02*
X75009Y-17640D01*
X75056Y-17616D01*
X75080Y-17593D01*
X75104Y-17545D01*
X75104Y-17450D01*
X75080Y-17402D01*
X75056Y-17378D01*
X75009Y-17355D01*
X74604Y-17355D01*
X75080Y-17140D02*
X75104Y-17069D01*
X75104Y-16950D01*
X75080Y-16902D01*
X75056Y-16878D01*
X75009Y-16855D01*
X74961Y-16855D01*
X74913Y-16878D01*
X74890Y-16902D01*
X74866Y-16950D01*
X74842Y-17045D01*
X74818Y-17093D01*
X74794Y-17116D01*
X74747Y-17140D01*
X74699Y-17140D01*
X74652Y-17116D01*
X74628Y-17093D01*
X74604Y-17045D01*
X74604Y-16926D01*
X74628Y-16855D01*
X74842Y-16474D02*
X74866Y-16402D01*
X74890Y-16378D01*
X74937Y-16355D01*
X75009Y-16355D01*
X75056Y-16378D01*
X75080Y-16402D01*
X75104Y-16450D01*
X75104Y-16640D01*
X74604Y-16640D01*
X74604Y-16474D01*
X74628Y-16426D01*
X74652Y-16402D01*
X74699Y-16378D01*
X74747Y-16378D01*
X74794Y-16402D01*
X74818Y-16426D01*
X74842Y-16474D01*
X74842Y-16640D01*
X74913Y-16140D02*
X74913Y-15759D01*
X75104Y-15521D02*
X74604Y-15521D01*
X74961Y-15355D01*
X74604Y-15188D01*
X75104Y-15188D01*
X75104Y-14950D02*
X74604Y-14950D01*
X75104Y-14712D02*
X74604Y-14712D01*
X75104Y-14426D01*
X74604Y-14426D01*
X75104Y-14188D02*
X74604Y-14188D01*
X74913Y-13950D02*
X74913Y-13569D01*
X74842Y-13164D02*
X74866Y-13093D01*
X74890Y-13069D01*
X74937Y-13045D01*
X75009Y-13045D01*
X75056Y-13069D01*
X75080Y-13093D01*
X75104Y-13140D01*
X75104Y-13331D01*
X74604Y-13331D01*
X74604Y-13164D01*
X74628Y-13116D01*
X74652Y-13093D01*
X74699Y-13069D01*
X74747Y-13069D01*
X74794Y-13093D01*
X74818Y-13116D01*
X74842Y-13164D01*
X74842Y-13331D01*
G54D19*
X42679Y-17613D02*
X42285Y-17613D01*
X42285Y-17463D01*
X42304Y-17426D01*
X42323Y-17407D01*
X42360Y-17388D01*
X42416Y-17388D01*
X42454Y-17407D01*
X42473Y-17426D01*
X42491Y-17463D01*
X42491Y-17613D01*
X42323Y-17238D02*
X42304Y-17219D01*
X42285Y-17182D01*
X42285Y-17088D01*
X42304Y-17050D01*
X42323Y-17032D01*
X42360Y-17013D01*
X42398Y-17013D01*
X42454Y-17032D01*
X42679Y-17257D01*
X42679Y-17013D01*
X44153Y-33003D02*
X43753Y-33003D01*
X43753Y-32850D01*
X43772Y-32812D01*
X43792Y-32793D01*
X43830Y-32774D01*
X43887Y-32774D01*
X43925Y-32793D01*
X43944Y-32812D01*
X43963Y-32850D01*
X43963Y-33003D01*
X44153Y-32393D02*
X44153Y-32622D01*
X44153Y-32507D02*
X43753Y-32507D01*
X43811Y-32546D01*
X43849Y-32584D01*
X43868Y-32622D01*
G54D18*
X58928Y-29239D02*
X58528Y-29239D01*
X58528Y-29086D01*
X58547Y-29048D01*
X58567Y-29029D01*
X58605Y-29010D01*
X58662Y-29010D01*
X58700Y-29029D01*
X58719Y-29048D01*
X58738Y-29086D01*
X58738Y-29239D01*
X58662Y-28667D02*
X58928Y-28667D01*
X58509Y-28763D02*
X58795Y-28858D01*
X58795Y-28610D01*
G54D20*
X55162Y-15790D02*
X55331Y-15790D01*
X55364Y-15801D01*
X55387Y-15824D01*
X55398Y-15858D01*
X55398Y-15880D01*
X55398Y-15678D02*
X55162Y-15678D01*
X55162Y-15588D01*
X55173Y-15565D01*
X55185Y-15554D01*
X55207Y-15543D01*
X55241Y-15543D01*
X55263Y-15554D01*
X55274Y-15565D01*
X55286Y-15588D01*
X55286Y-15678D01*
X55241Y-15341D02*
X55398Y-15341D01*
X55151Y-15397D02*
X55319Y-15453D01*
X55319Y-15307D01*
G54D11*
X68206Y-13816D02*
X68206Y-14245D01*
X68177Y-14331D01*
X68120Y-14388D01*
X68034Y-14416D01*
X67977Y-14416D01*
X68463Y-13874D02*
X68491Y-13845D01*
X68548Y-13816D01*
X68691Y-13816D01*
X68748Y-13845D01*
X68777Y-13874D01*
X68806Y-13931D01*
X68806Y-13988D01*
X68777Y-14074D01*
X68434Y-14416D01*
X68806Y-14416D01*
X62606Y-16079D02*
X62606Y-16565D01*
X62635Y-16622D01*
X62663Y-16651D01*
X62720Y-16679D01*
X62835Y-16679D01*
X62892Y-16651D01*
X62920Y-16622D01*
X62949Y-16565D01*
X62949Y-16079D01*
X63206Y-16651D02*
X63292Y-16679D01*
X63435Y-16679D01*
X63492Y-16651D01*
X63520Y-16622D01*
X63549Y-16565D01*
X63549Y-16508D01*
X63520Y-16451D01*
X63492Y-16422D01*
X63435Y-16394D01*
X63320Y-16365D01*
X63263Y-16337D01*
X63235Y-16308D01*
X63206Y-16251D01*
X63206Y-16194D01*
X63235Y-16137D01*
X63263Y-16108D01*
X63320Y-16079D01*
X63463Y-16079D01*
X63549Y-16108D01*
X64006Y-16365D02*
X64092Y-16394D01*
X64120Y-16422D01*
X64149Y-16479D01*
X64149Y-16565D01*
X64120Y-16622D01*
X64092Y-16651D01*
X64035Y-16679D01*
X63806Y-16679D01*
X63806Y-16079D01*
X64006Y-16079D01*
X64063Y-16108D01*
X64092Y-16137D01*
X64120Y-16194D01*
X64120Y-16251D01*
X64092Y-16308D01*
X64063Y-16337D01*
X64006Y-16365D01*
X63806Y-16365D01*
X64263Y-16737D02*
X64720Y-16737D01*
X64835Y-16137D02*
X64863Y-16108D01*
X64920Y-16079D01*
X65063Y-16079D01*
X65120Y-16108D01*
X65149Y-16137D01*
X65178Y-16194D01*
X65178Y-16251D01*
X65149Y-16337D01*
X64806Y-16679D01*
X65178Y-16679D01*
G54D12*
X72460Y-20382D02*
X72460Y-20210D01*
X72760Y-20296D02*
X72460Y-20296D01*
X72460Y-20153D02*
X72760Y-20053D01*
X72460Y-19953D01*
X72746Y-19867D02*
X72760Y-19824D01*
X72760Y-19753D01*
X72746Y-19724D01*
X72731Y-19710D01*
X72703Y-19696D01*
X72674Y-19696D01*
X72646Y-19710D01*
X72631Y-19724D01*
X72617Y-19753D01*
X72603Y-19810D01*
X72589Y-19839D01*
X72574Y-19853D01*
X72546Y-19867D01*
X72517Y-19867D01*
X72489Y-19853D01*
X72474Y-19839D01*
X72460Y-19810D01*
X72460Y-19739D01*
X72474Y-19696D01*
X72489Y-19582D02*
X72474Y-19567D01*
X72460Y-19539D01*
X72460Y-19467D01*
X72474Y-19439D01*
X72489Y-19424D01*
X72517Y-19410D01*
X72546Y-19410D01*
X72589Y-19424D01*
X72760Y-19596D01*
X72760Y-19410D01*
X70195Y-18709D02*
X70195Y-18537D01*
X70495Y-18623D02*
X70195Y-18623D01*
X70195Y-18480D02*
X70495Y-18380D01*
X70195Y-18280D01*
X70481Y-18194D02*
X70495Y-18151D01*
X70495Y-18080D01*
X70481Y-18051D01*
X70466Y-18037D01*
X70438Y-18023D01*
X70409Y-18023D01*
X70381Y-18037D01*
X70366Y-18051D01*
X70352Y-18080D01*
X70338Y-18137D01*
X70324Y-18166D01*
X70309Y-18180D01*
X70281Y-18194D01*
X70252Y-18194D01*
X70224Y-18180D01*
X70209Y-18166D01*
X70195Y-18137D01*
X70195Y-18066D01*
X70209Y-18023D01*
X70495Y-17737D02*
X70495Y-17909D01*
X70495Y-17823D02*
X70195Y-17823D01*
X70238Y-17851D01*
X70266Y-17880D01*
X70281Y-17909D01*
X82080Y-25838D02*
X82095Y-25852D01*
X82109Y-25895D01*
X82109Y-25923D01*
X82095Y-25966D01*
X82066Y-25995D01*
X82038Y-26009D01*
X81980Y-26023D01*
X81938Y-26023D01*
X81880Y-26009D01*
X81852Y-25995D01*
X81823Y-25966D01*
X81809Y-25923D01*
X81809Y-25895D01*
X81823Y-25852D01*
X81838Y-25838D01*
X82109Y-25552D02*
X82109Y-25723D01*
X82109Y-25638D02*
X81809Y-25638D01*
X81852Y-25666D01*
X81880Y-25695D01*
X81895Y-25723D01*
G54D21*
X73129Y-30969D02*
X73129Y-30569D01*
X73225Y-30569D01*
X73282Y-30588D01*
X73320Y-30627D01*
X73339Y-30665D01*
X73358Y-30741D01*
X73358Y-30798D01*
X73339Y-30874D01*
X73320Y-30912D01*
X73282Y-30950D01*
X73225Y-30969D01*
X73129Y-30969D01*
X73491Y-30569D02*
X73739Y-30569D01*
X73605Y-30722D01*
X73663Y-30722D01*
X73701Y-30741D01*
X73720Y-30760D01*
X73739Y-30798D01*
X73739Y-30893D01*
X73720Y-30931D01*
X73701Y-30950D01*
X73663Y-30969D01*
X73548Y-30969D01*
X73510Y-30950D01*
X73491Y-30931D01*
X73129Y-32641D02*
X73129Y-32241D01*
X73225Y-32241D01*
X73282Y-32260D01*
X73320Y-32299D01*
X73339Y-32337D01*
X73358Y-32413D01*
X73358Y-32470D01*
X73339Y-32546D01*
X73320Y-32584D01*
X73282Y-32622D01*
X73225Y-32641D01*
X73129Y-32641D01*
X73510Y-32280D02*
X73529Y-32260D01*
X73567Y-32241D01*
X73663Y-32241D01*
X73701Y-32260D01*
X73720Y-32280D01*
X73739Y-32318D01*
X73739Y-32356D01*
X73720Y-32413D01*
X73491Y-32641D01*
X73739Y-32641D01*
X73129Y-34315D02*
X73129Y-33915D01*
X73225Y-33915D01*
X73282Y-33934D01*
X73320Y-33973D01*
X73339Y-34011D01*
X73358Y-34087D01*
X73358Y-34144D01*
X73339Y-34220D01*
X73320Y-34258D01*
X73282Y-34296D01*
X73225Y-34315D01*
X73129Y-34315D01*
X73739Y-34315D02*
X73510Y-34315D01*
X73625Y-34315D02*
X73625Y-33915D01*
X73586Y-33973D01*
X73548Y-34011D01*
X73510Y-34030D01*
X73129Y-29098D02*
X73129Y-28698D01*
X73225Y-28698D01*
X73282Y-28717D01*
X73320Y-28756D01*
X73339Y-28794D01*
X73358Y-28870D01*
X73358Y-28927D01*
X73339Y-29003D01*
X73320Y-29041D01*
X73282Y-29079D01*
X73225Y-29098D01*
X73129Y-29098D01*
X73701Y-28832D02*
X73701Y-29098D01*
X73605Y-28679D02*
X73510Y-28965D01*
X73758Y-28965D01*
X73031Y-25554D02*
X73031Y-25154D01*
X73127Y-25154D01*
X73184Y-25173D01*
X73222Y-25212D01*
X73241Y-25250D01*
X73260Y-25326D01*
X73260Y-25383D01*
X73241Y-25459D01*
X73222Y-25497D01*
X73184Y-25535D01*
X73127Y-25554D01*
X73031Y-25554D01*
X73603Y-25154D02*
X73527Y-25154D01*
X73488Y-25173D01*
X73469Y-25193D01*
X73431Y-25250D01*
X73412Y-25326D01*
X73412Y-25478D01*
X73431Y-25516D01*
X73450Y-25535D01*
X73488Y-25554D01*
X73565Y-25554D01*
X73603Y-25535D01*
X73622Y-25516D01*
X73641Y-25478D01*
X73641Y-25383D01*
X73622Y-25345D01*
X73603Y-25326D01*
X73565Y-25307D01*
X73488Y-25307D01*
X73450Y-25326D01*
X73431Y-25345D01*
X73412Y-25383D01*
X73031Y-27327D02*
X73031Y-26927D01*
X73127Y-26927D01*
X73184Y-26946D01*
X73222Y-26985D01*
X73241Y-27023D01*
X73260Y-27099D01*
X73260Y-27156D01*
X73241Y-27232D01*
X73222Y-27270D01*
X73184Y-27308D01*
X73127Y-27327D01*
X73031Y-27327D01*
X73622Y-26927D02*
X73431Y-26927D01*
X73412Y-27118D01*
X73431Y-27099D01*
X73469Y-27080D01*
X73565Y-27080D01*
X73603Y-27099D01*
X73622Y-27118D01*
X73641Y-27156D01*
X73641Y-27251D01*
X73622Y-27289D01*
X73603Y-27308D01*
X73565Y-27327D01*
X73469Y-27327D01*
X73431Y-27308D01*
X73412Y-27289D01*
X55476Y-39674D02*
X55800Y-39674D01*
X55838Y-39655D01*
X55857Y-39636D01*
X55876Y-39598D01*
X55876Y-39522D01*
X55857Y-39484D01*
X55838Y-39465D01*
X55800Y-39446D01*
X55476Y-39446D01*
X55876Y-39046D02*
X55876Y-39274D01*
X55876Y-39160D02*
X55476Y-39160D01*
X55534Y-39198D01*
X55572Y-39236D01*
X55591Y-39274D01*
X54376Y-40236D02*
X54376Y-40427D01*
X53976Y-40427D01*
X54376Y-40103D02*
X53976Y-40103D01*
X54262Y-39970D01*
X53976Y-39836D01*
X54376Y-39836D01*
X54015Y-39665D02*
X53995Y-39646D01*
X53976Y-39608D01*
X53976Y-39512D01*
X53995Y-39474D01*
X54015Y-39455D01*
X54053Y-39436D01*
X54091Y-39436D01*
X54148Y-39455D01*
X54376Y-39684D01*
X54376Y-39436D01*
X54376Y-39246D02*
X54376Y-39169D01*
X54357Y-39131D01*
X54338Y-39112D01*
X54281Y-39074D01*
X54205Y-39055D01*
X54053Y-39055D01*
X54015Y-39074D01*
X53995Y-39093D01*
X53976Y-39131D01*
X53976Y-39208D01*
X53995Y-39246D01*
X54015Y-39265D01*
X54053Y-39284D01*
X54148Y-39284D01*
X54186Y-39265D01*
X54205Y-39246D01*
X54224Y-39208D01*
X54224Y-39131D01*
X54205Y-39093D01*
X54186Y-39074D01*
X54148Y-39055D01*
X54110Y-38712D02*
X54376Y-38712D01*
X53957Y-38808D02*
X54243Y-38903D01*
X54243Y-38655D01*
X53976Y-38427D02*
X53976Y-38389D01*
X53995Y-38350D01*
X54015Y-38331D01*
X54053Y-38312D01*
X54129Y-38293D01*
X54224Y-38293D01*
X54300Y-38312D01*
X54338Y-38331D01*
X54357Y-38350D01*
X54376Y-38389D01*
X54376Y-38427D01*
X54357Y-38465D01*
X54338Y-38484D01*
X54300Y-38503D01*
X54224Y-38522D01*
X54129Y-38522D01*
X54053Y-38503D01*
X54015Y-38484D01*
X53995Y-38465D01*
X53976Y-38427D01*
G54D14*
X47929Y-40122D02*
X47929Y-39722D01*
X48157Y-40122D02*
X47986Y-39893D01*
X48157Y-39722D02*
X47929Y-39951D01*
X48538Y-40122D02*
X48310Y-40122D01*
X48424Y-40122D02*
X48424Y-39722D01*
X48386Y-39779D01*
X48348Y-39817D01*
X48310Y-39836D01*
G54D11*
X37549Y-40400D02*
X37549Y-39800D01*
X37777Y-39800D01*
X37834Y-39829D01*
X37863Y-39858D01*
X37892Y-39915D01*
X37892Y-40000D01*
X37863Y-40058D01*
X37834Y-40086D01*
X37777Y-40115D01*
X37549Y-40115D01*
X38234Y-40058D02*
X38177Y-40029D01*
X38149Y-40000D01*
X38120Y-39943D01*
X38120Y-39915D01*
X38149Y-39858D01*
X38177Y-39829D01*
X38234Y-39800D01*
X38349Y-39800D01*
X38406Y-39829D01*
X38434Y-39858D01*
X38463Y-39915D01*
X38463Y-39943D01*
X38434Y-40000D01*
X38406Y-40029D01*
X38349Y-40058D01*
X38234Y-40058D01*
X38177Y-40086D01*
X38149Y-40115D01*
X38120Y-40172D01*
X38120Y-40286D01*
X38149Y-40343D01*
X38177Y-40372D01*
X38234Y-40400D01*
X38349Y-40400D01*
X38406Y-40372D01*
X38434Y-40343D01*
X38463Y-40286D01*
X38463Y-40172D01*
X38434Y-40115D01*
X38406Y-40086D01*
X38349Y-40058D01*
X36271Y-38914D02*
X36471Y-39514D01*
X36671Y-38914D01*
X36871Y-39514D02*
X36871Y-38914D01*
X37157Y-39514D02*
X37157Y-38914D01*
X37300Y-38914D01*
X37385Y-38943D01*
X37442Y-39000D01*
X37471Y-39057D01*
X37500Y-39172D01*
X37500Y-39257D01*
X37471Y-39372D01*
X37442Y-39429D01*
X37385Y-39486D01*
X37300Y-39514D01*
X37157Y-39514D01*
X37757Y-39200D02*
X37957Y-39200D01*
X38042Y-39514D02*
X37757Y-39514D01*
X37757Y-38914D01*
X38042Y-38914D01*
X38414Y-38914D02*
X38528Y-38914D01*
X38585Y-38943D01*
X38642Y-39000D01*
X38671Y-39114D01*
X38671Y-39314D01*
X38642Y-39429D01*
X38585Y-39486D01*
X38528Y-39514D01*
X38414Y-39514D01*
X38357Y-39486D01*
X38300Y-39429D01*
X38271Y-39314D01*
X38271Y-39114D01*
X38300Y-39000D01*
X38357Y-38943D01*
X38414Y-38914D01*
X62545Y-28690D02*
X61945Y-28690D01*
X61945Y-28462D01*
X61974Y-28405D01*
X62003Y-28376D01*
X62060Y-28348D01*
X62145Y-28348D01*
X62203Y-28376D01*
X62231Y-28405D01*
X62260Y-28462D01*
X62260Y-28690D01*
X61945Y-28148D02*
X61945Y-27748D01*
X62545Y-28005D01*
X62644Y-35005D02*
X62044Y-35005D01*
X62644Y-34720D02*
X62044Y-34720D01*
X62644Y-34377D01*
X62044Y-34377D01*
X62644Y-34091D02*
X62044Y-34091D01*
X62044Y-33863D01*
X62073Y-33805D01*
X62102Y-33777D01*
X62159Y-33748D01*
X62244Y-33748D01*
X62302Y-33777D01*
X62330Y-33805D01*
X62359Y-33863D01*
X62359Y-34091D01*
X62044Y-33491D02*
X62530Y-33491D01*
X62587Y-33463D01*
X62616Y-33434D01*
X62644Y-33377D01*
X62644Y-33263D01*
X62616Y-33205D01*
X62587Y-33177D01*
X62530Y-33148D01*
X62044Y-33148D01*
X62044Y-32948D02*
X62044Y-32605D01*
X62644Y-32777D02*
X62044Y-32777D01*
X62616Y-32434D02*
X62644Y-32348D01*
X62644Y-32205D01*
X62616Y-32148D01*
X62587Y-32120D01*
X62530Y-32091D01*
X62473Y-32091D01*
X62416Y-32120D01*
X62387Y-32148D01*
X62359Y-32205D01*
X62330Y-32320D01*
X62302Y-32377D01*
X62273Y-32405D01*
X62216Y-32434D01*
X62159Y-32434D01*
X62102Y-32405D01*
X62073Y-32377D01*
X62044Y-32320D01*
X62044Y-32177D01*
X62073Y-32091D01*
X62612Y-39911D02*
X62012Y-39911D01*
X62012Y-39683D01*
X62041Y-39626D01*
X62070Y-39597D01*
X62127Y-39569D01*
X62212Y-39569D01*
X62270Y-39597D01*
X62298Y-39626D01*
X62327Y-39683D01*
X62327Y-39911D01*
X62012Y-39054D02*
X62012Y-39169D01*
X62041Y-39226D01*
X62070Y-39254D01*
X62155Y-39311D01*
X62270Y-39340D01*
X62498Y-39340D01*
X62555Y-39311D01*
X62584Y-39283D01*
X62612Y-39226D01*
X62612Y-39111D01*
X62584Y-39054D01*
X62555Y-39026D01*
X62498Y-38997D01*
X62355Y-38997D01*
X62298Y-39026D01*
X62270Y-39054D01*
X62241Y-39111D01*
X62241Y-39226D01*
X62270Y-39283D01*
X62298Y-39311D01*
X62355Y-39340D01*
X66612Y-40854D02*
X66012Y-40854D01*
X66012Y-40626D01*
X66041Y-40569D01*
X66070Y-40540D01*
X66127Y-40511D01*
X66212Y-40511D01*
X66270Y-40540D01*
X66298Y-40569D01*
X66327Y-40626D01*
X66327Y-40854D01*
X66012Y-40140D02*
X66012Y-40026D01*
X66041Y-39969D01*
X66098Y-39911D01*
X66212Y-39883D01*
X66412Y-39883D01*
X66527Y-39911D01*
X66584Y-39969D01*
X66612Y-40026D01*
X66612Y-40140D01*
X66584Y-40197D01*
X66527Y-40254D01*
X66412Y-40283D01*
X66212Y-40283D01*
X66098Y-40254D01*
X66041Y-40197D01*
X66012Y-40140D01*
X66012Y-39683D02*
X66612Y-39540D01*
X66184Y-39426D01*
X66612Y-39311D01*
X66012Y-39169D01*
X66298Y-38940D02*
X66298Y-38740D01*
X66612Y-38654D02*
X66612Y-38940D01*
X66012Y-38940D01*
X66012Y-38654D01*
X66612Y-38054D02*
X66327Y-38254D01*
X66612Y-38397D02*
X66012Y-38397D01*
X66012Y-38169D01*
X66041Y-38111D01*
X66070Y-38083D01*
X66127Y-38054D01*
X66212Y-38054D01*
X66270Y-38083D01*
X66298Y-38111D01*
X66327Y-38169D01*
X66327Y-38397D01*
G54D18*
X72439Y-37371D02*
X72796Y-37371D01*
X72867Y-37395D01*
X72915Y-37443D01*
X72939Y-37514D01*
X72939Y-37562D01*
X72939Y-36871D02*
X72939Y-37157D01*
X72939Y-37014D02*
X72439Y-37014D01*
X72510Y-37062D01*
X72558Y-37109D01*
X72582Y-37157D01*
X74272Y-40696D02*
X74272Y-40458D01*
X74415Y-40744D02*
X73915Y-40577D01*
X74415Y-40410D01*
X73915Y-40244D02*
X74320Y-40244D01*
X74367Y-40220D01*
X74391Y-40196D01*
X74415Y-40149D01*
X74415Y-40053D01*
X74391Y-40006D01*
X74367Y-39982D01*
X74320Y-39958D01*
X73915Y-39958D01*
X74415Y-39720D02*
X73915Y-39720D01*
X73915Y-39601D01*
X73939Y-39530D01*
X73986Y-39482D01*
X74034Y-39458D01*
X74129Y-39434D01*
X74201Y-39434D01*
X74296Y-39458D01*
X74343Y-39482D01*
X74391Y-39530D01*
X74415Y-39601D01*
X74415Y-39720D01*
X74415Y-39220D02*
X73915Y-39220D01*
X73915Y-38887D02*
X73915Y-38791D01*
X73939Y-38744D01*
X73986Y-38696D01*
X74082Y-38672D01*
X74248Y-38672D01*
X74343Y-38696D01*
X74391Y-38744D01*
X74415Y-38791D01*
X74415Y-38887D01*
X74391Y-38934D01*
X74343Y-38982D01*
X74248Y-39006D01*
X74082Y-39006D01*
X73986Y-38982D01*
X73939Y-38934D01*
X73915Y-38887D01*
X73915Y-37982D02*
X73915Y-37887D01*
X73939Y-37839D01*
X73986Y-37791D01*
X74082Y-37768D01*
X74248Y-37768D01*
X74343Y-37791D01*
X74391Y-37839D01*
X74415Y-37887D01*
X74415Y-37982D01*
X74391Y-38030D01*
X74343Y-38077D01*
X74248Y-38101D01*
X74082Y-38101D01*
X73986Y-38077D01*
X73939Y-38030D01*
X73915Y-37982D01*
X73915Y-37553D02*
X74320Y-37553D01*
X74367Y-37530D01*
X74391Y-37506D01*
X74415Y-37458D01*
X74415Y-37363D01*
X74391Y-37315D01*
X74367Y-37291D01*
X74320Y-37268D01*
X73915Y-37268D01*
X73915Y-37101D02*
X73915Y-36815D01*
X74415Y-36958D02*
X73915Y-36958D01*
G54D12*
X59202Y-40545D02*
X59187Y-40560D01*
X59144Y-40574D01*
X59116Y-40574D01*
X59073Y-40560D01*
X59044Y-40531D01*
X59030Y-40503D01*
X59016Y-40445D01*
X59016Y-40403D01*
X59030Y-40345D01*
X59044Y-40317D01*
X59073Y-40288D01*
X59116Y-40274D01*
X59144Y-40274D01*
X59187Y-40288D01*
X59202Y-40303D01*
X59302Y-40274D02*
X59487Y-40274D01*
X59387Y-40388D01*
X59430Y-40388D01*
X59459Y-40403D01*
X59473Y-40417D01*
X59487Y-40445D01*
X59487Y-40517D01*
X59473Y-40545D01*
X59459Y-40560D01*
X59430Y-40574D01*
X59344Y-40574D01*
X59316Y-40560D01*
X59302Y-40545D01*
X71155Y-22393D02*
X71170Y-22407D01*
X71184Y-22450D01*
X71184Y-22478D01*
X71170Y-22521D01*
X71141Y-22550D01*
X71113Y-22564D01*
X71055Y-22578D01*
X71013Y-22578D01*
X70955Y-22564D01*
X70927Y-22550D01*
X70898Y-22521D01*
X70884Y-22478D01*
X70884Y-22450D01*
X70898Y-22407D01*
X70913Y-22393D01*
X70884Y-22135D02*
X70884Y-22193D01*
X70898Y-22221D01*
X70913Y-22235D01*
X70955Y-22264D01*
X71013Y-22278D01*
X71127Y-22278D01*
X71155Y-22264D01*
X71170Y-22250D01*
X71184Y-22221D01*
X71184Y-22164D01*
X71170Y-22135D01*
X71155Y-22121D01*
X71127Y-22107D01*
X71055Y-22107D01*
X71027Y-22121D01*
X71013Y-22135D01*
X70998Y-22164D01*
X70998Y-22221D01*
X71013Y-22250D01*
X71027Y-22264D01*
X71055Y-22278D01*
X80068Y-28369D02*
X79968Y-28226D01*
X79896Y-28369D02*
X79896Y-28069D01*
X80010Y-28069D01*
X80039Y-28083D01*
X80053Y-28098D01*
X80068Y-28126D01*
X80068Y-28169D01*
X80053Y-28198D01*
X80039Y-28212D01*
X80010Y-28226D01*
X79896Y-28226D01*
X80353Y-28369D02*
X80182Y-28369D01*
X80268Y-28369D02*
X80268Y-28069D01*
X80239Y-28112D01*
X80210Y-28140D01*
X80182Y-28155D01*
X83415Y-38212D02*
X83315Y-38069D01*
X83243Y-38212D02*
X83243Y-37912D01*
X83357Y-37912D01*
X83386Y-37926D01*
X83400Y-37941D01*
X83415Y-37969D01*
X83415Y-38012D01*
X83400Y-38041D01*
X83386Y-38055D01*
X83357Y-38069D01*
X83243Y-38069D01*
X83515Y-37912D02*
X83700Y-37912D01*
X83600Y-38026D01*
X83643Y-38026D01*
X83672Y-38041D01*
X83686Y-38055D01*
X83700Y-38083D01*
X83700Y-38155D01*
X83686Y-38183D01*
X83672Y-38198D01*
X83643Y-38212D01*
X83557Y-38212D01*
X83529Y-38198D01*
X83515Y-38183D01*
X83415Y-33291D02*
X83315Y-33148D01*
X83243Y-33291D02*
X83243Y-32991D01*
X83357Y-32991D01*
X83386Y-33005D01*
X83400Y-33020D01*
X83415Y-33048D01*
X83415Y-33091D01*
X83400Y-33120D01*
X83386Y-33134D01*
X83357Y-33148D01*
X83243Y-33148D01*
X83672Y-33091D02*
X83672Y-33291D01*
X83600Y-32977D02*
X83529Y-33191D01*
X83715Y-33191D01*
X83415Y-15377D02*
X83315Y-15234D01*
X83243Y-15377D02*
X83243Y-15077D01*
X83357Y-15077D01*
X83386Y-15091D01*
X83400Y-15106D01*
X83415Y-15134D01*
X83415Y-15177D01*
X83400Y-15206D01*
X83386Y-15220D01*
X83357Y-15234D01*
X83243Y-15234D01*
X83686Y-15077D02*
X83543Y-15077D01*
X83529Y-15220D01*
X83543Y-15206D01*
X83572Y-15191D01*
X83643Y-15191D01*
X83672Y-15206D01*
X83686Y-15220D01*
X83700Y-15248D01*
X83700Y-15320D01*
X83686Y-15348D01*
X83672Y-15363D01*
X83643Y-15377D01*
X83572Y-15377D01*
X83543Y-15363D01*
X83529Y-15348D01*
X83415Y-19806D02*
X83315Y-19663D01*
X83243Y-19806D02*
X83243Y-19506D01*
X83357Y-19506D01*
X83386Y-19520D01*
X83400Y-19535D01*
X83415Y-19563D01*
X83415Y-19606D01*
X83400Y-19635D01*
X83386Y-19649D01*
X83357Y-19663D01*
X83243Y-19663D01*
X83672Y-19506D02*
X83615Y-19506D01*
X83586Y-19520D01*
X83572Y-19535D01*
X83543Y-19577D01*
X83529Y-19635D01*
X83529Y-19749D01*
X83543Y-19777D01*
X83557Y-19792D01*
X83586Y-19806D01*
X83643Y-19806D01*
X83672Y-19792D01*
X83686Y-19777D01*
X83700Y-19749D01*
X83700Y-19677D01*
X83686Y-19649D01*
X83672Y-19635D01*
X83643Y-19620D01*
X83586Y-19620D01*
X83557Y-19635D01*
X83543Y-19649D01*
X83529Y-19677D01*
X66978Y-27090D02*
X66878Y-26947D01*
X66806Y-27090D02*
X66806Y-26790D01*
X66920Y-26790D01*
X66949Y-26804D01*
X66963Y-26819D01*
X66978Y-26847D01*
X66978Y-26890D01*
X66963Y-26919D01*
X66949Y-26933D01*
X66920Y-26947D01*
X66806Y-26947D01*
X67120Y-27090D02*
X67178Y-27090D01*
X67206Y-27076D01*
X67220Y-27061D01*
X67249Y-27019D01*
X67263Y-26961D01*
X67263Y-26847D01*
X67249Y-26819D01*
X67235Y-26804D01*
X67206Y-26790D01*
X67149Y-26790D01*
X67120Y-26804D01*
X67106Y-26819D01*
X67092Y-26847D01*
X67092Y-26919D01*
X67106Y-26947D01*
X67120Y-26961D01*
X67149Y-26976D01*
X67206Y-26976D01*
X67235Y-26961D01*
X67249Y-26947D01*
X67263Y-26919D01*
X68114Y-25515D02*
X68014Y-25372D01*
X67942Y-25515D02*
X67942Y-25215D01*
X68057Y-25215D01*
X68085Y-25229D01*
X68099Y-25244D01*
X68114Y-25272D01*
X68114Y-25315D01*
X68099Y-25344D01*
X68085Y-25358D01*
X68057Y-25372D01*
X67942Y-25372D01*
X68399Y-25515D02*
X68228Y-25515D01*
X68314Y-25515D02*
X68314Y-25215D01*
X68285Y-25258D01*
X68257Y-25286D01*
X68228Y-25301D01*
X68585Y-25215D02*
X68614Y-25215D01*
X68642Y-25229D01*
X68657Y-25244D01*
X68671Y-25272D01*
X68685Y-25329D01*
X68685Y-25401D01*
X68671Y-25458D01*
X68657Y-25486D01*
X68642Y-25501D01*
X68614Y-25515D01*
X68585Y-25515D01*
X68557Y-25501D01*
X68542Y-25486D01*
X68528Y-25458D01*
X68514Y-25401D01*
X68514Y-25329D01*
X68528Y-25272D01*
X68542Y-25244D01*
X68557Y-25229D01*
X68585Y-25215D01*
X66835Y-33094D02*
X66735Y-32951D01*
X66663Y-33094D02*
X66663Y-32794D01*
X66778Y-32794D01*
X66806Y-32808D01*
X66820Y-32823D01*
X66835Y-32851D01*
X66835Y-32894D01*
X66820Y-32923D01*
X66806Y-32937D01*
X66778Y-32951D01*
X66663Y-32951D01*
X67120Y-33094D02*
X66949Y-33094D01*
X67035Y-33094D02*
X67035Y-32794D01*
X67006Y-32837D01*
X66978Y-32865D01*
X66949Y-32880D01*
X67220Y-32794D02*
X67406Y-32794D01*
X67306Y-32908D01*
X67349Y-32908D01*
X67378Y-32923D01*
X67392Y-32937D01*
X67406Y-32965D01*
X67406Y-33037D01*
X67392Y-33065D01*
X67378Y-33080D01*
X67349Y-33094D01*
X67263Y-33094D01*
X67235Y-33080D01*
X67220Y-33065D01*
X66835Y-31125D02*
X66735Y-30982D01*
X66663Y-31125D02*
X66663Y-30825D01*
X66778Y-30825D01*
X66806Y-30839D01*
X66820Y-30854D01*
X66835Y-30882D01*
X66835Y-30925D01*
X66820Y-30954D01*
X66806Y-30968D01*
X66778Y-30982D01*
X66663Y-30982D01*
X67120Y-31125D02*
X66949Y-31125D01*
X67035Y-31125D02*
X67035Y-30825D01*
X67006Y-30868D01*
X66978Y-30896D01*
X66949Y-30911D01*
X67378Y-30925D02*
X67378Y-31125D01*
X67306Y-30811D02*
X67235Y-31025D01*
X67420Y-31025D01*
X66835Y-29157D02*
X66735Y-29014D01*
X66663Y-29157D02*
X66663Y-28857D01*
X66778Y-28857D01*
X66806Y-28871D01*
X66820Y-28886D01*
X66835Y-28914D01*
X66835Y-28957D01*
X66820Y-28986D01*
X66806Y-29000D01*
X66778Y-29014D01*
X66663Y-29014D01*
X67120Y-29157D02*
X66949Y-29157D01*
X67035Y-29157D02*
X67035Y-28857D01*
X67006Y-28900D01*
X66978Y-28928D01*
X66949Y-28943D01*
X67392Y-28857D02*
X67249Y-28857D01*
X67235Y-29000D01*
X67249Y-28986D01*
X67278Y-28971D01*
X67349Y-28971D01*
X67378Y-28986D01*
X67392Y-29000D01*
X67406Y-29028D01*
X67406Y-29100D01*
X67392Y-29128D01*
X67378Y-29143D01*
X67349Y-29157D01*
X67278Y-29157D01*
X67249Y-29143D01*
X67235Y-29128D01*
X69295Y-27188D02*
X69195Y-27045D01*
X69123Y-27188D02*
X69123Y-26888D01*
X69238Y-26888D01*
X69266Y-26902D01*
X69280Y-26917D01*
X69295Y-26945D01*
X69295Y-26988D01*
X69280Y-27017D01*
X69266Y-27031D01*
X69238Y-27045D01*
X69123Y-27045D01*
X69580Y-27188D02*
X69409Y-27188D01*
X69495Y-27188D02*
X69495Y-26888D01*
X69466Y-26931D01*
X69438Y-26959D01*
X69409Y-26974D01*
X69838Y-26888D02*
X69780Y-26888D01*
X69752Y-26902D01*
X69738Y-26917D01*
X69709Y-26959D01*
X69695Y-27017D01*
X69695Y-27131D01*
X69709Y-27159D01*
X69723Y-27174D01*
X69752Y-27188D01*
X69809Y-27188D01*
X69838Y-27174D01*
X69852Y-27159D01*
X69866Y-27131D01*
X69866Y-27059D01*
X69852Y-27031D01*
X69838Y-27017D01*
X69809Y-27002D01*
X69752Y-27002D01*
X69723Y-27017D01*
X69709Y-27031D01*
X69695Y-27059D01*
X66835Y-24235D02*
X66735Y-24092D01*
X66663Y-24235D02*
X66663Y-23935D01*
X66778Y-23935D01*
X66806Y-23949D01*
X66820Y-23964D01*
X66835Y-23992D01*
X66835Y-24035D01*
X66820Y-24064D01*
X66806Y-24078D01*
X66778Y-24092D01*
X66663Y-24092D01*
X67120Y-24235D02*
X66949Y-24235D01*
X67035Y-24235D02*
X67035Y-23935D01*
X67006Y-23978D01*
X66978Y-24006D01*
X66949Y-24021D01*
X67220Y-23935D02*
X67420Y-23935D01*
X67292Y-24235D01*
X66835Y-22365D02*
X66735Y-22222D01*
X66663Y-22365D02*
X66663Y-22065D01*
X66778Y-22065D01*
X66806Y-22079D01*
X66820Y-22094D01*
X66835Y-22122D01*
X66835Y-22165D01*
X66820Y-22194D01*
X66806Y-22208D01*
X66778Y-22222D01*
X66663Y-22222D01*
X67120Y-22365D02*
X66949Y-22365D01*
X67035Y-22365D02*
X67035Y-22065D01*
X67006Y-22108D01*
X66978Y-22136D01*
X66949Y-22151D01*
X67292Y-22194D02*
X67263Y-22179D01*
X67249Y-22165D01*
X67235Y-22136D01*
X67235Y-22122D01*
X67249Y-22094D01*
X67263Y-22079D01*
X67292Y-22065D01*
X67349Y-22065D01*
X67378Y-22079D01*
X67392Y-22094D01*
X67406Y-22122D01*
X67406Y-22136D01*
X67392Y-22165D01*
X67378Y-22179D01*
X67349Y-22194D01*
X67292Y-22194D01*
X67263Y-22208D01*
X67249Y-22222D01*
X67235Y-22251D01*
X67235Y-22308D01*
X67249Y-22336D01*
X67263Y-22351D01*
X67292Y-22365D01*
X67349Y-22365D01*
X67378Y-22351D01*
X67392Y-22336D01*
X67406Y-22308D01*
X67406Y-22251D01*
X67392Y-22222D01*
X67378Y-22208D01*
X67349Y-22194D01*
X67460Y-20562D02*
X67360Y-20419D01*
X67289Y-20562D02*
X67289Y-20262D01*
X67403Y-20262D01*
X67432Y-20276D01*
X67446Y-20290D01*
X67460Y-20319D01*
X67460Y-20362D01*
X67446Y-20390D01*
X67432Y-20405D01*
X67403Y-20419D01*
X67289Y-20419D01*
X67746Y-20562D02*
X67574Y-20562D01*
X67660Y-20562D02*
X67660Y-20262D01*
X67632Y-20305D01*
X67603Y-20333D01*
X67574Y-20348D01*
X67889Y-20562D02*
X67946Y-20562D01*
X67974Y-20548D01*
X67989Y-20533D01*
X68017Y-20490D01*
X68032Y-20433D01*
X68032Y-20319D01*
X68017Y-20290D01*
X68003Y-20276D01*
X67974Y-20262D01*
X67917Y-20262D01*
X67889Y-20276D01*
X67874Y-20290D01*
X67860Y-20319D01*
X67860Y-20390D01*
X67874Y-20419D01*
X67889Y-20433D01*
X67917Y-20448D01*
X67974Y-20448D01*
X68003Y-20433D01*
X68017Y-20419D01*
X68032Y-20390D01*
X69197Y-37129D02*
X69097Y-36986D01*
X69025Y-37129D02*
X69025Y-36829D01*
X69140Y-36829D01*
X69168Y-36843D01*
X69182Y-36858D01*
X69197Y-36886D01*
X69197Y-36929D01*
X69182Y-36958D01*
X69168Y-36972D01*
X69140Y-36986D01*
X69025Y-36986D01*
X69311Y-36858D02*
X69325Y-36843D01*
X69354Y-36829D01*
X69425Y-36829D01*
X69454Y-36843D01*
X69468Y-36858D01*
X69482Y-36886D01*
X69482Y-36915D01*
X69468Y-36958D01*
X69297Y-37129D01*
X69482Y-37129D01*
X69668Y-36829D02*
X69697Y-36829D01*
X69725Y-36843D01*
X69740Y-36858D01*
X69754Y-36886D01*
X69768Y-36943D01*
X69768Y-37015D01*
X69754Y-37072D01*
X69740Y-37100D01*
X69725Y-37115D01*
X69697Y-37129D01*
X69668Y-37129D01*
X69640Y-37115D01*
X69625Y-37100D01*
X69611Y-37072D01*
X69597Y-37015D01*
X69597Y-36943D01*
X69611Y-36886D01*
X69625Y-36858D01*
X69640Y-36843D01*
X69668Y-36829D01*
X69295Y-35062D02*
X69195Y-34919D01*
X69123Y-35062D02*
X69123Y-34762D01*
X69238Y-34762D01*
X69266Y-34776D01*
X69280Y-34791D01*
X69295Y-34819D01*
X69295Y-34862D01*
X69280Y-34891D01*
X69266Y-34905D01*
X69238Y-34919D01*
X69123Y-34919D01*
X69409Y-34791D02*
X69423Y-34776D01*
X69452Y-34762D01*
X69523Y-34762D01*
X69552Y-34776D01*
X69566Y-34791D01*
X69580Y-34819D01*
X69580Y-34848D01*
X69566Y-34891D01*
X69395Y-35062D01*
X69580Y-35062D01*
X69866Y-35062D02*
X69695Y-35062D01*
X69780Y-35062D02*
X69780Y-34762D01*
X69752Y-34805D01*
X69723Y-34833D01*
X69695Y-34848D01*
X69295Y-33094D02*
X69195Y-32951D01*
X69123Y-33094D02*
X69123Y-32794D01*
X69238Y-32794D01*
X69266Y-32808D01*
X69280Y-32823D01*
X69295Y-32851D01*
X69295Y-32894D01*
X69280Y-32923D01*
X69266Y-32937D01*
X69238Y-32951D01*
X69123Y-32951D01*
X69409Y-32823D02*
X69423Y-32808D01*
X69452Y-32794D01*
X69523Y-32794D01*
X69552Y-32808D01*
X69566Y-32823D01*
X69580Y-32851D01*
X69580Y-32880D01*
X69566Y-32923D01*
X69395Y-33094D01*
X69580Y-33094D01*
X69695Y-32823D02*
X69709Y-32808D01*
X69738Y-32794D01*
X69809Y-32794D01*
X69838Y-32808D01*
X69852Y-32823D01*
X69866Y-32851D01*
X69866Y-32880D01*
X69852Y-32923D01*
X69680Y-33094D01*
X69866Y-33094D01*
X69295Y-31125D02*
X69195Y-30982D01*
X69123Y-31125D02*
X69123Y-30825D01*
X69238Y-30825D01*
X69266Y-30839D01*
X69280Y-30854D01*
X69295Y-30882D01*
X69295Y-30925D01*
X69280Y-30954D01*
X69266Y-30968D01*
X69238Y-30982D01*
X69123Y-30982D01*
X69409Y-30854D02*
X69423Y-30839D01*
X69452Y-30825D01*
X69523Y-30825D01*
X69552Y-30839D01*
X69566Y-30854D01*
X69580Y-30882D01*
X69580Y-30911D01*
X69566Y-30954D01*
X69395Y-31125D01*
X69580Y-31125D01*
X69680Y-30825D02*
X69866Y-30825D01*
X69766Y-30939D01*
X69809Y-30939D01*
X69838Y-30954D01*
X69852Y-30968D01*
X69866Y-30996D01*
X69866Y-31068D01*
X69852Y-31096D01*
X69838Y-31111D01*
X69809Y-31125D01*
X69723Y-31125D01*
X69695Y-31111D01*
X69680Y-31096D01*
X69295Y-29157D02*
X69195Y-29014D01*
X69123Y-29157D02*
X69123Y-28857D01*
X69238Y-28857D01*
X69266Y-28871D01*
X69280Y-28886D01*
X69295Y-28914D01*
X69295Y-28957D01*
X69280Y-28986D01*
X69266Y-29000D01*
X69238Y-29014D01*
X69123Y-29014D01*
X69409Y-28886D02*
X69423Y-28871D01*
X69452Y-28857D01*
X69523Y-28857D01*
X69552Y-28871D01*
X69566Y-28886D01*
X69580Y-28914D01*
X69580Y-28943D01*
X69566Y-28986D01*
X69395Y-29157D01*
X69580Y-29157D01*
X69838Y-28957D02*
X69838Y-29157D01*
X69766Y-28843D02*
X69695Y-29057D01*
X69880Y-29057D01*
X70969Y-25515D02*
X70869Y-25372D01*
X70797Y-25515D02*
X70797Y-25215D01*
X70912Y-25215D01*
X70940Y-25229D01*
X70954Y-25244D01*
X70969Y-25272D01*
X70969Y-25315D01*
X70954Y-25344D01*
X70940Y-25358D01*
X70912Y-25372D01*
X70797Y-25372D01*
X71083Y-25244D02*
X71097Y-25229D01*
X71126Y-25215D01*
X71197Y-25215D01*
X71226Y-25229D01*
X71240Y-25244D01*
X71254Y-25272D01*
X71254Y-25301D01*
X71240Y-25344D01*
X71069Y-25515D01*
X71254Y-25515D01*
X71526Y-25215D02*
X71383Y-25215D01*
X71369Y-25358D01*
X71383Y-25344D01*
X71412Y-25329D01*
X71483Y-25329D01*
X71512Y-25344D01*
X71526Y-25358D01*
X71540Y-25386D01*
X71540Y-25458D01*
X71526Y-25486D01*
X71512Y-25501D01*
X71483Y-25515D01*
X71412Y-25515D01*
X71383Y-25501D01*
X71369Y-25486D01*
X69394Y-24235D02*
X69294Y-24092D01*
X69222Y-24235D02*
X69222Y-23935D01*
X69337Y-23935D01*
X69365Y-23949D01*
X69379Y-23964D01*
X69394Y-23992D01*
X69394Y-24035D01*
X69379Y-24064D01*
X69365Y-24078D01*
X69337Y-24092D01*
X69222Y-24092D01*
X69508Y-23964D02*
X69522Y-23949D01*
X69551Y-23935D01*
X69622Y-23935D01*
X69651Y-23949D01*
X69665Y-23964D01*
X69679Y-23992D01*
X69679Y-24021D01*
X69665Y-24064D01*
X69494Y-24235D01*
X69679Y-24235D01*
X69937Y-23935D02*
X69879Y-23935D01*
X69851Y-23949D01*
X69837Y-23964D01*
X69808Y-24006D01*
X69794Y-24064D01*
X69794Y-24178D01*
X69808Y-24206D01*
X69822Y-24221D01*
X69851Y-24235D01*
X69908Y-24235D01*
X69937Y-24221D01*
X69951Y-24206D01*
X69965Y-24178D01*
X69965Y-24106D01*
X69951Y-24078D01*
X69937Y-24064D01*
X69908Y-24049D01*
X69851Y-24049D01*
X69822Y-24064D01*
X69808Y-24078D01*
X69794Y-24106D01*
X69197Y-22365D02*
X69097Y-22222D01*
X69025Y-22365D02*
X69025Y-22065D01*
X69140Y-22065D01*
X69168Y-22079D01*
X69182Y-22094D01*
X69197Y-22122D01*
X69197Y-22165D01*
X69182Y-22194D01*
X69168Y-22208D01*
X69140Y-22222D01*
X69025Y-22222D01*
X69311Y-22094D02*
X69325Y-22079D01*
X69354Y-22065D01*
X69425Y-22065D01*
X69454Y-22079D01*
X69468Y-22094D01*
X69482Y-22122D01*
X69482Y-22151D01*
X69468Y-22194D01*
X69297Y-22365D01*
X69482Y-22365D01*
X69582Y-22065D02*
X69782Y-22065D01*
X69654Y-22365D01*
X69197Y-20495D02*
X69097Y-20352D01*
X69025Y-20495D02*
X69025Y-20195D01*
X69140Y-20195D01*
X69168Y-20209D01*
X69182Y-20224D01*
X69197Y-20252D01*
X69197Y-20295D01*
X69182Y-20324D01*
X69168Y-20338D01*
X69140Y-20352D01*
X69025Y-20352D01*
X69311Y-20224D02*
X69325Y-20209D01*
X69354Y-20195D01*
X69425Y-20195D01*
X69454Y-20209D01*
X69468Y-20224D01*
X69482Y-20252D01*
X69482Y-20281D01*
X69468Y-20324D01*
X69297Y-20495D01*
X69482Y-20495D01*
X69654Y-20324D02*
X69625Y-20309D01*
X69611Y-20295D01*
X69597Y-20266D01*
X69597Y-20252D01*
X69611Y-20224D01*
X69625Y-20209D01*
X69654Y-20195D01*
X69711Y-20195D01*
X69740Y-20209D01*
X69754Y-20224D01*
X69768Y-20252D01*
X69768Y-20266D01*
X69754Y-20295D01*
X69740Y-20309D01*
X69711Y-20324D01*
X69654Y-20324D01*
X69625Y-20338D01*
X69611Y-20352D01*
X69597Y-20381D01*
X69597Y-20438D01*
X69611Y-20466D01*
X69625Y-20481D01*
X69654Y-20495D01*
X69711Y-20495D01*
X69740Y-20481D01*
X69754Y-20466D01*
X69768Y-20438D01*
X69768Y-20381D01*
X69754Y-20352D01*
X69740Y-20338D01*
X69711Y-20324D01*
X60339Y-20200D02*
X60239Y-20057D01*
X60167Y-20200D02*
X60167Y-19900D01*
X60282Y-19900D01*
X60310Y-19914D01*
X60324Y-19929D01*
X60339Y-19957D01*
X60339Y-20000D01*
X60324Y-20029D01*
X60310Y-20043D01*
X60282Y-20057D01*
X60167Y-20057D01*
X60439Y-19900D02*
X60624Y-19900D01*
X60524Y-20014D01*
X60567Y-20014D01*
X60596Y-20029D01*
X60610Y-20043D01*
X60624Y-20071D01*
X60624Y-20143D01*
X60610Y-20171D01*
X60596Y-20186D01*
X60567Y-20200D01*
X60482Y-20200D01*
X60453Y-20186D01*
X60439Y-20171D01*
X60810Y-19900D02*
X60839Y-19900D01*
X60867Y-19914D01*
X60882Y-19929D01*
X60896Y-19957D01*
X60910Y-20014D01*
X60910Y-20086D01*
X60896Y-20143D01*
X60882Y-20171D01*
X60867Y-20186D01*
X60839Y-20200D01*
X60810Y-20200D01*
X60782Y-20186D01*
X60767Y-20171D01*
X60753Y-20143D01*
X60739Y-20086D01*
X60739Y-20014D01*
X60753Y-19957D01*
X60767Y-19929D01*
X60782Y-19914D01*
X60810Y-19900D01*
X60339Y-21184D02*
X60239Y-21041D01*
X60167Y-21184D02*
X60167Y-20884D01*
X60282Y-20884D01*
X60310Y-20898D01*
X60324Y-20913D01*
X60339Y-20941D01*
X60339Y-20984D01*
X60324Y-21013D01*
X60310Y-21027D01*
X60282Y-21041D01*
X60167Y-21041D01*
X60439Y-20884D02*
X60624Y-20884D01*
X60524Y-20998D01*
X60567Y-20998D01*
X60596Y-21013D01*
X60610Y-21027D01*
X60624Y-21055D01*
X60624Y-21127D01*
X60610Y-21155D01*
X60596Y-21170D01*
X60567Y-21184D01*
X60482Y-21184D01*
X60453Y-21170D01*
X60439Y-21155D01*
X60739Y-20913D02*
X60753Y-20898D01*
X60782Y-20884D01*
X60853Y-20884D01*
X60882Y-20898D01*
X60896Y-20913D01*
X60910Y-20941D01*
X60910Y-20970D01*
X60896Y-21013D01*
X60724Y-21184D01*
X60910Y-21184D01*
X60339Y-20692D02*
X60239Y-20549D01*
X60167Y-20692D02*
X60167Y-20392D01*
X60282Y-20392D01*
X60310Y-20406D01*
X60324Y-20421D01*
X60339Y-20449D01*
X60339Y-20492D01*
X60324Y-20521D01*
X60310Y-20535D01*
X60282Y-20549D01*
X60167Y-20549D01*
X60439Y-20392D02*
X60624Y-20392D01*
X60524Y-20506D01*
X60567Y-20506D01*
X60596Y-20521D01*
X60610Y-20535D01*
X60624Y-20563D01*
X60624Y-20635D01*
X60610Y-20663D01*
X60596Y-20678D01*
X60567Y-20692D01*
X60482Y-20692D01*
X60453Y-20678D01*
X60439Y-20663D01*
X60882Y-20492D02*
X60882Y-20692D01*
X60810Y-20378D02*
X60739Y-20592D01*
X60924Y-20592D01*
X69294Y-40592D02*
X69294Y-40711D01*
X69044Y-40711D01*
X69068Y-40521D02*
X69056Y-40509D01*
X69044Y-40485D01*
X69044Y-40426D01*
X69056Y-40402D01*
X69068Y-40390D01*
X69091Y-40378D01*
X69115Y-40378D01*
X69151Y-40390D01*
X69294Y-40533D01*
X69294Y-40378D01*
X75692Y-36262D02*
X75692Y-36381D01*
X75442Y-36381D01*
X75442Y-36203D02*
X75442Y-36048D01*
X75537Y-36131D01*
X75537Y-36096D01*
X75549Y-36072D01*
X75561Y-36060D01*
X75585Y-36048D01*
X75644Y-36048D01*
X75668Y-36060D01*
X75680Y-36072D01*
X75692Y-36096D01*
X75692Y-36167D01*
X75680Y-36191D01*
X75668Y-36203D01*
X75790Y-39608D02*
X75790Y-39727D01*
X75540Y-39727D01*
X75623Y-39418D02*
X75790Y-39418D01*
X75528Y-39477D02*
X75706Y-39537D01*
X75706Y-39382D01*
X59604Y-39471D02*
X59485Y-39471D01*
X59485Y-39221D01*
X59794Y-39221D02*
X59747Y-39221D01*
X59723Y-39233D01*
X59711Y-39245D01*
X59687Y-39280D01*
X59675Y-39328D01*
X59675Y-39423D01*
X59687Y-39447D01*
X59699Y-39459D01*
X59723Y-39471D01*
X59771Y-39471D01*
X59794Y-39459D01*
X59806Y-39447D01*
X59818Y-39423D01*
X59818Y-39364D01*
X59806Y-39340D01*
X59794Y-39328D01*
X59771Y-39316D01*
X59723Y-39316D01*
X59699Y-39328D01*
X59687Y-39340D01*
X59675Y-39364D01*
G54D16*
X41054Y-37605D02*
X41049Y-37612D01*
X41031Y-37618D01*
X41020Y-37618D01*
X41003Y-37612D01*
X40991Y-37599D01*
X40986Y-37585D01*
X40980Y-37559D01*
X40980Y-37539D01*
X40986Y-37513D01*
X40991Y-37500D01*
X41003Y-37487D01*
X41020Y-37480D01*
X41031Y-37480D01*
X41049Y-37487D01*
X41054Y-37493D01*
X41094Y-37480D02*
X41174Y-37480D01*
X41123Y-37618D01*
G54D22*
X81383Y-24662D02*
X81392Y-24671D01*
X81402Y-24699D01*
X81402Y-24718D01*
X81392Y-24746D01*
X81373Y-24765D01*
X81355Y-24774D01*
X81317Y-24784D01*
X81289Y-24784D01*
X81251Y-24774D01*
X81233Y-24765D01*
X81214Y-24746D01*
X81205Y-24718D01*
X81205Y-24699D01*
X81214Y-24671D01*
X81223Y-24662D01*
X81223Y-24587D02*
X81214Y-24577D01*
X81205Y-24559D01*
X81205Y-24512D01*
X81214Y-24493D01*
X81223Y-24483D01*
X81242Y-24474D01*
X81261Y-24474D01*
X81289Y-24483D01*
X81402Y-24596D01*
X81402Y-24474D01*
X80228Y-24766D02*
X80228Y-24878D01*
X80228Y-24822D02*
X80031Y-24822D01*
X80059Y-24841D01*
X80078Y-24860D01*
X80088Y-24878D01*
X80097Y-24597D02*
X80228Y-24597D01*
X80097Y-24681D02*
X80200Y-24681D01*
X80219Y-24672D01*
X80228Y-24653D01*
X80228Y-24625D01*
X80219Y-24606D01*
X80210Y-24597D01*
X80125Y-24437D02*
X80125Y-24503D01*
X80228Y-24503D02*
X80031Y-24503D01*
X80031Y-24409D01*
G54D12*
X66818Y-37089D02*
X66718Y-36947D01*
X66647Y-37089D02*
X66647Y-36789D01*
X66761Y-36789D01*
X66790Y-36804D01*
X66804Y-36818D01*
X66818Y-36847D01*
X66818Y-36889D01*
X66804Y-36918D01*
X66790Y-36932D01*
X66761Y-36947D01*
X66647Y-36947D01*
X67104Y-37089D02*
X66933Y-37089D01*
X67018Y-37089D02*
X67018Y-36789D01*
X66990Y-36832D01*
X66961Y-36861D01*
X66933Y-36875D01*
X67390Y-37089D02*
X67218Y-37089D01*
X67304Y-37089D02*
X67304Y-36789D01*
X67276Y-36832D01*
X67247Y-36861D01*
X67218Y-36875D01*
X76991Y-36140D02*
X76848Y-36240D01*
X76991Y-36311D02*
X76691Y-36311D01*
X76691Y-36197D01*
X76705Y-36169D01*
X76720Y-36154D01*
X76748Y-36140D01*
X76791Y-36140D01*
X76820Y-36154D01*
X76834Y-36169D01*
X76848Y-36197D01*
X76848Y-36311D01*
X76691Y-36040D02*
X76691Y-35840D01*
X76991Y-35969D01*
X80060Y-29349D02*
X79960Y-29206D01*
X79888Y-29349D02*
X79888Y-29049D01*
X80003Y-29049D01*
X80031Y-29064D01*
X80045Y-29078D01*
X80060Y-29106D01*
X80060Y-29149D01*
X80045Y-29178D01*
X80031Y-29192D01*
X80003Y-29206D01*
X79888Y-29206D01*
X80174Y-29078D02*
X80188Y-29064D01*
X80217Y-29049D01*
X80288Y-29049D01*
X80317Y-29064D01*
X80331Y-29078D01*
X80345Y-29106D01*
X80345Y-29135D01*
X80331Y-29178D01*
X80160Y-29349D01*
X80345Y-29349D01*
X67747Y-40620D02*
X67604Y-40720D01*
X67747Y-40792D02*
X67447Y-40792D01*
X67447Y-40678D01*
X67461Y-40649D01*
X67475Y-40635D01*
X67504Y-40620D01*
X67547Y-40620D01*
X67575Y-40635D01*
X67590Y-40649D01*
X67604Y-40678D01*
X67604Y-40792D01*
X67575Y-40449D02*
X67561Y-40478D01*
X67547Y-40492D01*
X67518Y-40506D01*
X67504Y-40506D01*
X67475Y-40492D01*
X67461Y-40478D01*
X67447Y-40449D01*
X67447Y-40392D01*
X67461Y-40363D01*
X67475Y-40349D01*
X67504Y-40335D01*
X67518Y-40335D01*
X67547Y-40349D01*
X67561Y-40363D01*
X67575Y-40392D01*
X67575Y-40449D01*
X67590Y-40478D01*
X67604Y-40492D01*
X67633Y-40506D01*
X67690Y-40506D01*
X67718Y-40492D01*
X67733Y-40478D01*
X67747Y-40449D01*
X67747Y-40392D01*
X67733Y-40363D01*
X67718Y-40349D01*
X67690Y-40335D01*
X67633Y-40335D01*
X67604Y-40349D01*
X67590Y-40363D01*
X67575Y-40392D01*
M02*
