G04 (created by PCBNEW (2013-june-11)-stable) date lun 19 ago 2013 20:26:35 COT*
%MOIN*%
G04 Gerber Fmt 3.4, Leading zero omitted, Abs format*
%FSLAX34Y34*%
G01*
G70*
G90*
G04 APERTURE LIST*
%ADD10C,0.00590551*%
%ADD11R,0.06X0.08*%
%ADD12R,0.0787X0.0984*%
%ADD13R,0.0197X0.0906*%
%ADD14R,0.08X0.06*%
%ADD15R,0.1161X0.0945*%
%ADD16R,0.0945X0.1043*%
%ADD17R,0.1043X0.0945*%
%ADD18R,0.055X0.035*%
%ADD19R,0.035X0.055*%
%ADD20R,0.0157X0.0236*%
G04 APERTURE END LIST*
G54D10*
G54D11*
X66378Y-34154D03*
X67678Y-34154D03*
G54D12*
X70276Y-13583D03*
X73780Y-13583D03*
X73780Y-15748D03*
X70276Y-15748D03*
G54D13*
X72028Y-15748D03*
X72343Y-15748D03*
X71713Y-15747D03*
X72658Y-15748D03*
X71398Y-15748D03*
G54D14*
X72540Y-17559D03*
X72540Y-18859D03*
X71260Y-17559D03*
X71260Y-18859D03*
X81988Y-23760D03*
X81988Y-25060D03*
G54D15*
X71349Y-40001D03*
G54D16*
X71289Y-37245D03*
G54D15*
X73927Y-41064D03*
G54D17*
X73986Y-37245D03*
G54D11*
X59980Y-40453D03*
X61280Y-40453D03*
G54D14*
X71063Y-21615D03*
X71063Y-20315D03*
G54D11*
X81043Y-28150D03*
X82343Y-28150D03*
X82815Y-38878D03*
X84115Y-38878D03*
X82815Y-33957D03*
X84115Y-33957D03*
X82815Y-16044D03*
X84115Y-16044D03*
X82815Y-20473D03*
X84115Y-20473D03*
X66378Y-26181D03*
X67678Y-26181D03*
X67657Y-24705D03*
X68957Y-24705D03*
X66378Y-32185D03*
X67678Y-32185D03*
X66378Y-30217D03*
X67678Y-30217D03*
X66378Y-28248D03*
X67678Y-28248D03*
X68838Y-26181D03*
X70138Y-26181D03*
X66378Y-23327D03*
X67678Y-23327D03*
X66378Y-21457D03*
X67678Y-21457D03*
X66378Y-19587D03*
X67678Y-19587D03*
X68740Y-36221D03*
X70040Y-36221D03*
X68838Y-34154D03*
X70138Y-34154D03*
X68838Y-32185D03*
X70138Y-32185D03*
X68838Y-30217D03*
X70138Y-30217D03*
X68838Y-28248D03*
X70138Y-28248D03*
X71812Y-24705D03*
X70512Y-24705D03*
X70237Y-23327D03*
X68937Y-23327D03*
X70040Y-21457D03*
X68740Y-21457D03*
X70040Y-19587D03*
X68740Y-19587D03*
X61871Y-16929D03*
X60571Y-16929D03*
X61871Y-18012D03*
X60571Y-18012D03*
X61871Y-19095D03*
X60571Y-19095D03*
G54D18*
X69882Y-40176D03*
X69882Y-40926D03*
X75591Y-37580D03*
X75591Y-36830D03*
X75591Y-40926D03*
X75591Y-40176D03*
G54D19*
X61005Y-39370D03*
X60255Y-39370D03*
G54D20*
X40287Y-37586D03*
X40641Y-37586D03*
G54D18*
X80791Y-24274D03*
X80791Y-25024D03*
G54D11*
X66378Y-36221D03*
X67678Y-36221D03*
G54D14*
X76830Y-36834D03*
X76830Y-38134D03*
G54D11*
X81043Y-29233D03*
X82343Y-29233D03*
G54D14*
X68406Y-41201D03*
X68406Y-39901D03*
M02*
