M48
;DRILL file {Pcbnew (2013-june-11)-stable} date lun 19 ago 2013 20:26:45 COT
;FORMAT={-:-/ absolute / metric / decimal}
FMAT,2
METRIC,TZ
T1C0.300
T2C0.813
T3C0.889
T4C1.001
T5C1.016
T6C1.143
T7C1.524
T8C2.301
T9C2.997
T10C3.048
%
G90
G05
M71
T1
X94.75Y-73.751
X95.75Y-74.75
X98.001Y-58.001
X99.251Y-52.751
X100.5Y-55.502
X101.501Y-70.5
X104.252Y-68.001
X105.25Y-51.501
X105.25Y-56.5
X105.501Y-60.5
X105.501Y-63.
X109.502Y-70.
X110.752Y-63.
X111.501Y-68.001
X113.251Y-60.251
X119.002Y-56.251
X153.6Y-77.65
X153.69Y-75.62
X154.252Y-85.75
X154.501Y-83.251
X155.001Y-78.75
X155.06Y-63.39
X155.7Y-81.79
X155.72Y-80.23
X156.002Y-68.001
X156.002Y-72.25
X156.002Y-74.
X156.251Y-77.
X158.501Y-66.751
X158.501Y-77.
X158.501Y-85.25
X158.65Y-56.33
X158.76Y-88.7
X158.88Y-54.96
X158.94Y-52.06
X159.01Y-53.54
X159.25Y-67.752
X159.751Y-90.301
X160.14Y-68.75
X160.47Y-74.46
X160.89Y-70.1
X160.89Y-71.76
X161.58Y-53.96
X161.75Y-78.001
X161.75Y-80.
X165.48Y-59.83
X169.25Y-63.751
X169.751Y-52.001
X170.Y-90.
X170.251Y-50.
X171.81Y-47.67
X173.15Y-73.7
X176.25Y-52.73
X176.251Y-54.501
X176.5Y-83.5
X176.751Y-59.251
X178.001Y-90.
X178.501Y-44.252
X179.001Y-42.25
X180.251Y-73.
X180.251Y-86.5
X180.5Y-64.75
X180.5Y-78.25
X181.Y-91.001
X188.75Y-86.751
X191.252Y-50.
X192.502Y-98.75
X192.75Y-49.751
X194.252Y-49.751
T2
X87.252Y-93.381
X108.209Y-40.879
X108.209Y-89.139
X148.88Y-70.978
X208.191Y-38.212
X208.191Y-43.292
X208.191Y-49.461
X208.191Y-54.541
X208.191Y-83.711
X208.191Y-88.791
X208.191Y-96.21
X208.191Y-101.29
X215.811Y-38.212
X215.811Y-43.292
X215.811Y-49.461
X215.811Y-54.541
X215.811Y-83.711
X215.811Y-88.791
X215.811Y-96.21
X215.811Y-101.29
T3
X181.419Y-66.5
X181.419Y-71.001
X181.419Y-75.501
X181.419Y-80.251
X181.419Y-84.501
X181.419Y-88.75
X191.579Y-66.5
X191.579Y-71.001
X191.579Y-75.501
X191.579Y-80.251
X191.579Y-84.501
X191.579Y-88.75
T4
X112.751Y-71.25
X133.5Y-79.502
X139.502Y-88.25
X140.251Y-75.501
X142.25Y-83.251
X144.252Y-75.75
X146.002Y-91.501
X154.252Y-40.5
X155.501Y-88.25
X159.195Y-38.75
X161.734Y-38.75
X163.766Y-38.75
X166.306Y-38.75
X173.751Y-97.5
X177.21Y-63.21
X183.99Y-54.8
X191.39Y-58.5
X196.499Y-49.251
X196.499Y-61.001
X198.001Y-52.751
X199.25Y-74.252
X208.001Y-80.752
T5
X87.252Y-45.121
X87.252Y-47.661
X87.252Y-50.201
X87.252Y-52.741
X87.252Y-55.281
X87.252Y-57.821
X87.252Y-60.361
X87.252Y-62.901
X87.252Y-65.441
X87.252Y-67.981
X87.252Y-70.521
X87.252Y-73.061
X87.252Y-75.601
X87.252Y-78.141
X87.252Y-80.681
X87.252Y-83.221
X87.252Y-85.761
X87.252Y-88.301
X87.252Y-90.841
X89.792Y-45.121
X89.792Y-47.661
X89.792Y-50.201
X89.792Y-52.741
X89.792Y-55.281
X89.792Y-57.821
X89.792Y-60.361
X89.792Y-62.901
X89.792Y-65.441
X89.792Y-67.981
X89.792Y-70.521
X89.792Y-73.061
X89.792Y-75.601
X89.792Y-78.141
X89.792Y-80.681
X89.792Y-83.221
X89.792Y-85.761
X89.792Y-88.301
X89.792Y-90.841
X89.792Y-93.381
X108.209Y-38.339
X108.209Y-86.599
X110.749Y-38.339
X110.749Y-40.879
X110.749Y-86.599
X110.749Y-89.139
X113.289Y-38.339
X113.289Y-40.879
X113.289Y-86.599
X113.289Y-89.139
X114.711Y-101.501
X115.829Y-38.339
X115.829Y-40.879
X115.829Y-86.599
X115.829Y-89.139
X117.251Y-101.501
X118.369Y-38.339
X118.369Y-40.879
X118.369Y-86.599
X118.369Y-89.139
X119.791Y-101.501
X120.909Y-38.339
X120.909Y-40.879
X120.909Y-86.599
X120.909Y-89.139
X123.449Y-38.339
X123.449Y-40.879
X123.449Y-86.599
X123.449Y-89.139
X125.989Y-38.339
X125.989Y-40.879
X125.989Y-86.599
X125.989Y-89.139
X128.529Y-38.339
X128.529Y-40.879
X128.529Y-86.599
X128.529Y-89.139
X131.069Y-38.339
X131.069Y-40.879
X131.069Y-86.599
X131.069Y-89.139
X133.609Y-38.339
X133.609Y-40.879
X133.609Y-86.599
X133.609Y-89.139
X136.149Y-38.339
X136.149Y-40.879
X136.149Y-86.599
X136.149Y-89.139
X138.659Y-38.417
X138.659Y-40.957
X146.34Y-43.038
X146.34Y-45.578
X146.34Y-48.118
X146.34Y-50.658
X146.34Y-53.198
X146.34Y-55.738
X146.34Y-58.278
X146.34Y-60.818
X146.34Y-63.358
X146.34Y-65.898
X146.34Y-68.438
X146.34Y-70.978
X148.88Y-43.038
X148.88Y-45.578
X148.88Y-48.118
X148.88Y-50.658
X148.88Y-53.198
X148.88Y-55.738
X148.88Y-58.278
X148.88Y-60.818
X148.88Y-63.358
X148.88Y-65.898
X148.88Y-68.438
X211.999Y-60.896
X211.999Y-63.436
X211.999Y-65.977
X211.999Y-68.516
X211.999Y-71.056
X211.999Y-73.596
T6
X148.501Y-97.46
X148.501Y-100.
X148.501Y-102.54
T7
X101.46Y-101.501
X106.54Y-101.501
X163.5Y-46.231
X163.5Y-51.311
X163.5Y-56.391
X163.5Y-61.471
X163.5Y-66.551
X163.5Y-71.631
X163.5Y-76.711
X163.5Y-81.791
X163.5Y-86.871
X163.5Y-91.951
X163.5Y-97.711
X163.5Y-102.791
T8
X156.147Y-36.083
X169.862Y-36.083
T9
X87.5Y-35.25
X87.5Y-103.251
X103.668Y-38.349
X103.688Y-87.069
X147.49Y-38.598
X147.61Y-87.058
X201.501Y-35.25
X201.501Y-103.248
T10
X131.991Y-100.
T0
M30
